<?xml version="1.0" encoding="UTF-8" standalone="no"?>
<!-- Generator: Adobe Illustrator 19.0.0, SVG Export Plug-In . SVG Version: 6.00 Build 0)  -->

<svg
   xmlns:dc="http://purl.org/dc/elements/1.1/"
   xmlns:cc="http://creativecommons.org/ns#"
   xmlns:rdf="http://www.w3.org/1999/02/22-rdf-syntax-ns#"
   xmlns:svg="http://www.w3.org/2000/svg"
   xmlns="http://www.w3.org/2000/svg"
   xmlns:sodipodi="http://sodipodi.sourceforge.net/DTD/sodipodi-0.dtd"
   xmlns:inkscape="http://www.inkscape.org/namespaces/inkscape"
   version="1.1"
   id="Capa_1"
   x="0px"
   y="0px"
   viewBox="0 0 455.992 455.992"
   style="enable-background:new 0 0 455.992 455.992;"
   xml:space="preserve"
   sodipodi:docname="Close.svg"
   inkscape:version="0.92.3 (unknown)"><metadata
   id="metadata79"><rdf:RDF><cc:Work
       rdf:about=""><dc:format>image/svg+xml</dc:format><dc:type
         rdf:resource="http://purl.org/dc/dcmitype/StillImage" /></cc:Work></rdf:RDF></metadata><defs
   id="defs77" /><sodipodi:namedview
   pagecolor="#ffffff"
   bordercolor="#666666"
   borderopacity="1"
   objecttolerance="10"
   gridtolerance="10"
   guidetolerance="10"
   inkscape:pageopacity="0"
   inkscape:pageshadow="2"
   inkscape:window-width="1920"
   inkscape:window-height="1031"
   id="namedview75"
   showgrid="false"
   inkscape:zoom="0.51755293"
   inkscape:cx="-170.03092"
   inkscape:cy="227.996"
   inkscape:window-x="0"
   inkscape:window-y="25"
   inkscape:window-maximized="1"
   inkscape:current-layer="Capa_1" />
<g
   id="g42"
   style="fill:#b3b3b3">
	<g
   id="g10"
   style="fill:#b3b3b3">
		<g
   id="g8"
   style="fill:#b3b3b3">
			<g
   id="g6"
   style="fill:#b3b3b3">
				<path
   style="fill:#b3b3b3"
   d="M227.996,0C102.081,0,0,102.081,0,227.996c0,125.945,102.081,227.996,227.996,227.996      c125.945,0,227.996-102.051,227.996-227.996C455.992,102.081,353.941,0,227.996,0z M227.996,425.593      c-108.952,0-197.597-88.645-197.597-197.597S119.044,30.399,227.996,30.399s197.597,88.645,197.597,197.597      S336.948,425.593,227.996,425.593z"
   id="path2" />
				<path
   style="fill:#b3b3b3"
   d="M312.142,122.358l-83.538,83.568l-74.965-83.568c-5.928-5.928-15.565-5.928-21.492,0      c-5.928,5.928-5.928,15.565,0,21.492l74.965,83.568l-84.723,84.723c-5.928,5.928-5.928,15.595,0,21.492      c5.928,5.928,15.565,5.928,21.492,0l83.568-83.538l74.965,83.538c5.897,5.928,15.565,5.928,21.462,0      c5.928-5.898,5.928-15.565,0-21.492l-74.995-83.538l84.723-84.754c5.928-5.928,5.928-15.565,0-21.492      C327.676,116.43,318.07,116.43,312.142,122.358z"
   id="path4" />
			</g>
		</g>
	</g>
	<g
   id="g12"
   style="fill:#b3b3b3">
	</g>
	<g
   id="g14"
   style="fill:#b3b3b3">
	</g>
	<g
   id="g16"
   style="fill:#b3b3b3">
	</g>
	<g
   id="g18"
   style="fill:#b3b3b3">
	</g>
	<g
   id="g20"
   style="fill:#b3b3b3">
	</g>
	<g
   id="g22"
   style="fill:#b3b3b3">
	</g>
	<g
   id="g24"
   style="fill:#b3b3b3">
	</g>
	<g
   id="g26"
   style="fill:#b3b3b3">
	</g>
	<g
   id="g28"
   style="fill:#b3b3b3">
	</g>
	<g
   id="g30"
   style="fill:#b3b3b3">
	</g>
	<g
   id="g32"
   style="fill:#b3b3b3">
	</g>
	<g
   id="g34"
   style="fill:#b3b3b3">
	</g>
	<g
   id="g36"
   style="fill:#b3b3b3">
	</g>
	<g
   id="g38"
   style="fill:#b3b3b3">
	</g>
	<g
   id="g40"
   style="fill:#b3b3b3">
	</g>
</g>
<g
   id="g44">
</g>
<g
   id="g46">
</g>
<g
   id="g48">
</g>
<g
   id="g50">
</g>
<g
   id="g52">
</g>
<g
   id="g54">
</g>
<g
   id="g56">
</g>
<g
   id="g58">
</g>
<g
   id="g60">
</g>
<g
   id="g62">
</g>
<g
   id="g64">
</g>
<g
   id="g66">
</g>
<g
   id="g68">
</g>
<g
   id="g70">
</g>
<g
   id="g72">
</g>
</svg>