<?xml version="1.0" encoding="UTF-8" standalone="no"?>
<!-- Created with Inkscape (http://www.inkscape.org/) -->

<svg
   xmlns:dc="http://purl.org/dc/elements/1.1/"
   xmlns:cc="http://creativecommons.org/ns#"
   xmlns:rdf="http://www.w3.org/1999/02/22-rdf-syntax-ns#"
   xmlns:svg="http://www.w3.org/2000/svg"
   xmlns="http://www.w3.org/2000/svg"
   xmlns:sodipodi="http://sodipodi.sourceforge.net/DTD/sodipodi-0.dtd"
   xmlns:inkscape="http://www.inkscape.org/namespaces/inkscape"
   width="250"
   height="40"
   viewBox="0 0 66.145832 10.583334"
   version="1.1"
   id="svg4163"
   inkscape:version="0.92.3 (unknown)"
   sodipodi:docname="logo_nobel.svg">
  <defs
     id="defs4157" />
  <sodipodi:namedview
     id="base"
     pagecolor="#ffffff"
     bordercolor="#666666"
     borderopacity="1.0"
     inkscape:pageopacity="0.0"
     inkscape:pageshadow="2"
     inkscape:zoom="3.6331046"
     inkscape:cx="92.73897"
     inkscape:cy="23.779223"
     inkscape:document-units="mm"
     inkscape:current-layer="layer1"
     showgrid="false"
     units="px"
     inkscape:window-width="1920"
     inkscape:window-height="1031"
     inkscape:window-x="0"
     inkscape:window-y="25"
     inkscape:window-maximized="1" />
  <metadata
     id="metadata4160">
    <rdf:RDF>
      <cc:Work
         rdf:about="">
        <dc:format>image/svg+xml</dc:format>
        <dc:type
           rdf:resource="http://purl.org/dc/dcmitype/StillImage" />
        <dc:title></dc:title>
      </cc:Work>
    </rdf:RDF>
  </metadata>
  <g
     inkscape:label="Capa 1"
     inkscape:groupmode="layer"
     id="layer1"
     transform="translate(0,-286.41665)">
    <g
       id="g5393"
       transform="translate(-30.767698,169.10218)">
      <path
         d="m 41.258256,120.30044 h 1.040609 l 2.40366,3.15846 v -3.15846 h 1.113891 v 5.12976 h -0.959998 l -2.484271,-3.26106 v 3.26106 h -1.113891 z"
         style="font-style:normal;font-variant:normal;font-weight:bold;font-stretch:normal;font-size:7.32823086px;line-height:1.25;font-family:'Gotham Bold';-inkscape-font-specification:'Gotham Bold, Bold';letter-spacing:0px;word-spacing:0px;fill:#ffffff;fill-opacity:1;stroke:none;stroke-width:0.26458332px;stroke-linecap:butt;stroke-linejoin:miter;stroke-opacity:1"
         id="path5182"
         inkscape:connector-curvature="0" />
      <path
         d="m 48.865418,124.55814 q 0.241832,0 0.425037,-0.0806 0.190534,-0.0879 0.322442,-0.2345 0.131909,-0.14657 0.197863,-0.3371 0.07328,-0.19787 0.07328,-0.41771 v -0.0147 q 0,-0.21985 -0.07328,-0.41038 -0.07328,-0.19786 -0.212519,-0.34443 -0.139236,-0.15389 -0.32977,-0.24183 -0.190534,-0.0879 -0.41771,-0.0879 -0.241831,0 -0.432365,0.0879 -0.183206,0.0806 -0.315114,0.22718 -0.131908,0.14656 -0.205191,0.34442 -0.06595,0.19054 -0.06595,0.41038 v 0.0147 q 0,0.21985 0.07328,0.41771 0.07328,0.19053 0.212518,0.34443 0.139237,0.14656 0.322443,0.2345 0.190534,0.0879 0.425037,0.0879 z m -0.01466,0.96 q -0.45435,0 -0.842746,-0.1539 -0.388396,-0.16122 -0.674197,-0.43236 -0.278473,-0.27847 -0.439694,-0.64489 -0.161221,-0.37374 -0.161221,-0.79877 v -0.0147 q 0,-0.42504 0.161221,-0.79145 0.161221,-0.37374 0.447022,-0.65221 0.285801,-0.27847 0.674197,-0.43969 0.388396,-0.16123 0.850075,-0.16123 0.45435,0 0.842746,0.16123 0.388397,0.15389 0.666869,0.43236 0.285801,0.27115 0.447023,0.64489 0.161221,0.36641 0.161221,0.79144 v 0.0147 q 0,0.42504 -0.161221,0.79878 -0.161222,0.36641 -0.447023,0.64488 -0.285801,0.27848 -0.674197,0.4397 -0.388396,0.16122 -0.850075,0.16122 z"
         style="font-style:normal;font-variant:normal;font-weight:bold;font-stretch:normal;font-size:7.32823086px;line-height:1.25;font-family:'Gotham Bold';-inkscape-font-specification:'Gotham Bold, Bold';letter-spacing:0px;word-spacing:0px;fill:#ffffff;fill-opacity:1;stroke:none;stroke-width:0.26458332px;stroke-linecap:butt;stroke-linejoin:miter;stroke-opacity:1"
         id="path5184"
         inkscape:connector-curvature="0" />
      <path
         d="m 53.841744,124.55814 q 0.197863,0 0.366412,-0.0733 0.175878,-0.0806 0.307786,-0.21985 0.131908,-0.14656 0.20519,-0.34443 0.08061,-0.19786 0.08061,-0.44702 v -0.0147 q 0,-0.24183 -0.08061,-0.43969 -0.07328,-0.20519 -0.20519,-0.34443 -0.131908,-0.14656 -0.307786,-0.21984 -0.168549,-0.0806 -0.366412,-0.0806 -0.197862,0 -0.373739,0.0806 -0.16855,0.0733 -0.300458,0.21984 -0.12458,0.13924 -0.20519,0.34443 -0.07328,0.19786 -0.07328,0.43969 v 0.0147 q 0,0.24183 0.07328,0.44702 0.08061,0.19787 0.20519,0.34443 0.131908,0.13924 0.300458,0.21985 0.175877,0.0733 0.373739,0.0733 z m 0.285801,0.94534 q -0.447022,0 -0.740151,-0.17588 -0.285801,-0.17587 -0.483663,-0.41038 v 0.51298 H 51.78984 v -5.34961 h 1.113891 v 1.98595 q 0.20519,-0.27847 0.490991,-0.45435 0.29313,-0.18321 0.732823,-0.18321 0.344427,0 0.666869,0.13191 0.322443,0.13191 0.571602,0.39573 0.24916,0.25649 0.395725,0.63755 0.153893,0.37374 0.153893,0.86473 v 0.0147 q 0,0.49099 -0.153893,0.87206 -0.146565,0.37374 -0.395725,0.63756 -0.241831,0.25648 -0.564273,0.38839 -0.322442,0.13191 -0.674198,0.13191 z"
         style="font-style:normal;font-variant:normal;font-weight:bold;font-stretch:normal;font-size:7.32823086px;line-height:1.25;font-family:'Gotham Bold';-inkscape-font-specification:'Gotham Bold, Bold';letter-spacing:0px;word-spacing:0px;fill:#ffffff;fill-opacity:1;stroke:none;stroke-width:0.26458332px;stroke-linecap:butt;stroke-linejoin:miter;stroke-opacity:1"
         id="path5186"
         inkscape:connector-curvature="0" />
      <path
         d="m 59.321658,123.15845 q -0.0513,-0.37374 -0.263816,-0.60092 -0.212519,-0.2345 -0.564274,-0.2345 -0.351755,0 -0.571602,0.22717 -0.212519,0.22718 -0.278473,0.60825 z m -0.718167,2.35969 q -0.439693,0 -0.820761,-0.14657 -0.37374,-0.14656 -0.652213,-0.41771 -0.271144,-0.27114 -0.425037,-0.63755 -0.153893,-0.37374 -0.153893,-0.82809 v -0.0147 q 0,-0.41771 0.139236,-0.79145 0.146565,-0.37374 0.403053,-0.65221 0.256488,-0.27847 0.608243,-0.43969 0.359083,-0.16123 0.791449,-0.16123 0.490991,0 0.850075,0.17588 0.359083,0.17588 0.593586,0.47634 0.241832,0.29313 0.351756,0.68152 0.117251,0.38107 0.117251,0.79878 0,0.066 -0.0073,0.13924 0,0.0733 -0.0073,0.15389 h -2.73343 q 0.08061,0.38107 0.32977,0.57893 0.256488,0.19053 0.630228,0.19053 0.278473,0 0.49832,-0.0953 0.219847,-0.0953 0.45435,-0.30779 l 0.637556,0.56427 q -0.278473,0.34443 -0.674197,0.54229 -0.395725,0.19054 -0.930686,0.19054 z"
         style="font-style:normal;font-variant:normal;font-weight:bold;font-stretch:normal;font-size:7.32823086px;line-height:1.25;font-family:'Gotham Bold';-inkscape-font-specification:'Gotham Bold, Bold';letter-spacing:0px;word-spacing:0px;fill:#ffffff;fill-opacity:1;stroke:none;stroke-width:0.26458332px;stroke-linecap:butt;stroke-linejoin:miter;stroke-opacity:1"
         id="path5188"
         inkscape:connector-curvature="0" />
      <path
         d="m 61.287685,120.08059 h 1.113891 v 5.34961 h -1.113891 z"
         style="font-style:normal;font-variant:normal;font-weight:bold;font-stretch:normal;font-size:7.32823086px;line-height:1.25;font-family:'Gotham Bold';-inkscape-font-specification:'Gotham Bold, Bold';letter-spacing:0px;word-spacing:0px;fill:#ffffff;fill-opacity:1;stroke:none;stroke-width:0.26458332px;stroke-linecap:butt;stroke-linejoin:miter;stroke-opacity:1"
         id="path5190"
         inkscape:connector-curvature="0" />
      <path
         d="m 65.5068,124.55814 q 0.197862,0 0.366411,-0.0733 0.175878,-0.0806 0.307786,-0.21985 0.131908,-0.14656 0.20519,-0.34443 0.08061,-0.19786 0.08061,-0.44702 v -0.0147 q 0,-0.24183 -0.08061,-0.43969 -0.07328,-0.20519 -0.20519,-0.34443 -0.131908,-0.14656 -0.307786,-0.21984 -0.168549,-0.0806 -0.366411,-0.0806 -0.197863,0 -0.37374,0.0806 -0.168549,0.0733 -0.300458,0.21984 -0.124579,0.13924 -0.20519,0.34443 -0.07328,0.19786 -0.07328,0.43969 v 0.0147 q 0,0.24183 0.07328,0.44702 0.08061,0.19787 0.20519,0.34443 0.131909,0.13924 0.300458,0.21985 0.175877,0.0733 0.37374,0.0733 z m -2.051905,-3.05587 h 1.113891 v 0.56427 q 0.205191,-0.27847 0.490992,-0.45435 0.293129,-0.18321 0.732823,-0.18321 0.344427,0 0.666869,0.13191 0.322442,0.13191 0.571602,0.39573 0.24916,0.25649 0.395724,0.63755 0.153893,0.37374 0.153893,0.86473 v 0.0147 q 0,0.49099 -0.153893,0.87206 -0.146564,0.37374 -0.395724,0.63756 -0.241832,0.25648 -0.564274,0.38839 -0.322442,0.13191 -0.674197,0.13191 -0.447022,0 -0.740152,-0.17588 -0.285801,-0.17587 -0.483663,-0.41038 v 1.6855 h -1.113891 z"
         style="font-style:normal;font-variant:normal;font-weight:bold;font-stretch:normal;font-size:7.32823086px;line-height:1.25;font-family:'Gotham Bold';-inkscape-font-specification:'Gotham Bold, Bold';letter-spacing:0px;word-spacing:0px;fill:#ffffff;fill-opacity:1;stroke:none;stroke-width:0.26458332px;stroke-linecap:butt;stroke-linejoin:miter;stroke-opacity:1"
         id="path5192"
         inkscape:connector-curvature="0" />
      <path
         d="m 68.407175,121.50227 h 1.113891 v 0.79145 q 0.16855,-0.40306 0.461679,-0.64489 0.293129,-0.24183 0.791449,-0.21985 v 1.16519 h -0.05863 q -0.556946,0 -0.879388,0.3371 -0.315114,0.3371 -0.315114,1.04794 v 1.45099 h -1.113891 z"
         style="font-style:normal;font-variant:normal;font-weight:bold;font-stretch:normal;font-size:7.32823086px;line-height:1.25;font-family:'Gotham Bold';-inkscape-font-specification:'Gotham Bold, Bold';letter-spacing:0px;word-spacing:0px;fill:#ffffff;fill-opacity:1;stroke:none;stroke-width:0.26458332px;stroke-linecap:butt;stroke-linejoin:miter;stroke-opacity:1"
         id="path5194"
         inkscape:connector-curvature="0" />
      <path
         d="m 71.521446,121.50227 h 1.113891 v 3.92793 h -1.113891 z m -0.02931,-1.42168 h 1.172517 v 0.98931 h -1.172517 z"
         style="font-style:normal;font-variant:normal;font-weight:bold;font-stretch:normal;font-size:7.32823086px;line-height:1.25;font-family:'Gotham Bold';-inkscape-font-specification:'Gotham Bold, Bold';letter-spacing:0px;word-spacing:0px;fill:#ffffff;fill-opacity:1;stroke:none;stroke-width:0.26458332px;stroke-linecap:butt;stroke-linejoin:miter;stroke-opacity:1"
         id="path5196"
         inkscape:connector-curvature="0" />
      <path
         d="m 73.556746,124.64608 2.02992,-2.24244 H 73.6227 v -0.90137 h 3.349001 v 0.78412 l -2.037248,2.24244 h 2.037248 v 0.90137 h -3.414955 z"
         style="font-style:normal;font-variant:normal;font-weight:bold;font-stretch:normal;font-size:7.32823086px;line-height:1.25;font-family:'Gotham Bold';-inkscape-font-specification:'Gotham Bold, Bold';letter-spacing:0px;word-spacing:0px;fill:#ffffff;fill-opacity:1;stroke:none;stroke-width:0.26458332px;stroke-linecap:butt;stroke-linejoin:miter;stroke-opacity:1"
         id="path5198"
         inkscape:connector-curvature="0" />
      <path
         d="m 80.390323,123.15845 q -0.0513,-0.37374 -0.263817,-0.60092 -0.212518,-0.2345 -0.564273,-0.2345 -0.351756,0 -0.571602,0.22717 -0.212519,0.22718 -0.278473,0.60825 z m -0.718167,2.35969 q -0.439694,0 -0.820762,-0.14657 -0.37374,-0.14656 -0.652212,-0.41771 -0.271145,-0.27114 -0.425038,-0.63755 -0.153893,-0.37374 -0.153893,-0.82809 v -0.0147 q 0,-0.41771 0.139237,-0.79145 0.146564,-0.37374 0.403052,-0.65221 0.256489,-0.27847 0.608244,-0.43969 0.359083,-0.16123 0.791449,-0.16123 0.490991,0 0.850074,0.17588 0.359084,0.17588 0.593587,0.47634 0.241832,0.29313 0.351755,0.68152 0.117252,0.38107 0.117252,0.79878 0,0.066 -0.0073,0.13924 0,0.0733 -0.0073,0.15389 h -2.73343 q 0.08061,0.38107 0.329771,0.57893 0.256488,0.19053 0.630227,0.19053 0.278473,0 0.49832,-0.0953 0.219847,-0.0953 0.45435,-0.30779 l 0.637557,0.56427 q -0.278473,0.34443 -0.674198,0.54229 -0.395724,0.19054 -0.930685,0.19054 z"
         style="font-style:normal;font-variant:normal;font-weight:bold;font-stretch:normal;font-size:7.32823086px;line-height:1.25;font-family:'Gotham Bold';-inkscape-font-specification:'Gotham Bold, Bold';letter-spacing:0px;word-spacing:0px;fill:#ffffff;fill-opacity:1;stroke:none;stroke-width:0.26458332px;stroke-linecap:butt;stroke-linejoin:miter;stroke-opacity:1"
         id="path5200"
         inkscape:connector-curvature="0" />
      <path
         d="m 82.261082,124.25768 h 1.187174 v 1.17252 h -1.187174 z"
         style="font-style:normal;font-variant:normal;font-weight:bold;font-stretch:normal;font-size:7.32823086px;line-height:1.25;font-family:'Gotham Bold';-inkscape-font-specification:'Gotham Bold, Bold';letter-spacing:0px;word-spacing:0px;fill:#ffffff;fill-opacity:1;stroke:none;stroke-width:0.26458332px;stroke-linecap:butt;stroke-linejoin:miter;stroke-opacity:1"
         id="path5202"
         inkscape:connector-curvature="0" />
      <path
         d="m 86.336724,124.55814 q 0.241832,0 0.425038,-0.0806 0.190534,-0.0879 0.322442,-0.2345 0.131908,-0.14657 0.197862,-0.3371 0.07328,-0.19787 0.07328,-0.41771 v -0.0147 q 0,-0.21985 -0.07328,-0.41038 -0.07328,-0.19786 -0.212519,-0.34443 -0.139236,-0.15389 -0.32977,-0.24183 -0.190534,-0.0879 -0.417709,-0.0879 -0.241832,0 -0.432366,0.0879 -0.183206,0.0806 -0.315114,0.22718 -0.131908,0.14656 -0.20519,0.34442 -0.06595,0.19054 -0.06595,0.41038 v 0.0147 q 0,0.21985 0.07328,0.41771 0.07328,0.19053 0.212519,0.34443 0.139236,0.14656 0.322442,0.2345 0.190534,0.0879 0.425037,0.0879 z m -0.01466,0.96 q -0.454351,0 -0.842747,-0.1539 -0.388396,-0.16122 -0.674197,-0.43236 -0.278473,-0.27847 -0.439694,-0.64489 -0.161221,-0.37374 -0.161221,-0.79877 v -0.0147 q 0,-0.42504 0.161221,-0.79145 0.161221,-0.37374 0.447022,-0.65221 0.285801,-0.27847 0.674197,-0.43969 0.388397,-0.16123 0.850075,-0.16123 0.454351,0 0.842747,0.16123 0.388396,0.15389 0.666869,0.43236 0.285801,0.27115 0.447022,0.64489 0.161221,0.36641 0.161221,0.79144 v 0.0147 q 0,0.42504 -0.161221,0.79878 -0.161221,0.36641 -0.447022,0.64488 -0.285801,0.27848 -0.674197,0.4397 -0.388397,0.16122 -0.850075,0.16122 z"
         style="font-style:normal;font-variant:normal;font-weight:bold;font-stretch:normal;font-size:7.32823086px;line-height:1.25;font-family:'Gotham Bold';-inkscape-font-specification:'Gotham Bold, Bold';letter-spacing:0px;word-spacing:0px;fill:#ffffff;fill-opacity:1;stroke:none;stroke-width:0.26458332px;stroke-linecap:butt;stroke-linejoin:miter;stroke-opacity:1"
         id="path5204"
         inkscape:connector-curvature="0" />
      <path
         d="m 89.261145,121.50227 h 1.113891 v 0.79145 q 0.168549,-0.40306 0.461678,-0.64489 0.29313,-0.24183 0.791449,-0.21985 v 1.16519 h -0.05863 q -0.556945,0 -0.879387,0.3371 -0.315114,0.3371 -0.315114,1.04794 v 1.45099 h -1.113891 z"
         style="font-style:normal;font-variant:normal;font-weight:bold;font-stretch:normal;font-size:7.32823086px;line-height:1.25;font-family:'Gotham Bold';-inkscape-font-specification:'Gotham Bold, Bold';letter-spacing:0px;word-spacing:0px;fill:#ffffff;fill-opacity:1;stroke:none;stroke-width:0.26458332px;stroke-linecap:butt;stroke-linejoin:miter;stroke-opacity:1"
         id="path5206"
         inkscape:connector-curvature="0" />
      <path
         d="m 94.214801,124.1844 q 0.205191,0 0.381068,-0.066 0.175878,-0.066 0.300458,-0.18321 0.131908,-0.12458 0.20519,-0.29313 0.07328,-0.16855 0.07328,-0.36641 v -0.0147 q 0,-0.19786 -0.07328,-0.36641 -0.07328,-0.16855 -0.20519,-0.2858 -0.12458,-0.12458 -0.300458,-0.19053 -0.175877,-0.066 -0.381068,-0.066 -0.20519,0 -0.381068,0.066 -0.168549,0.066 -0.300457,0.19053 -0.12458,0.11725 -0.197862,0.2858 -0.07328,0.16855 -0.07328,0.36641 v 0.0147 q 0,0.41038 0.271145,0.65954 0.271144,0.24916 0.681525,0.24916 z m -0.131908,2.43297 q -0.483663,0 -0.923357,-0.10992 -0.439694,-0.1026 -0.813434,-0.30046 l 0.381068,-0.83542 q 0.307786,0.16855 0.615572,0.26382 0.315114,0.0953 0.710838,0.0953 0.571602,0 0.842747,-0.27115 0.278473,-0.27114 0.278473,-0.79878 v -0.19053 q -0.24916,0.30046 -0.54229,0.46901 -0.293129,0.16855 -0.740151,0.16855 -0.344427,0 -0.659541,-0.11726 -0.315114,-0.12458 -0.556945,-0.35908 -0.241832,-0.2345 -0.388396,-0.5716 -0.139237,-0.34443 -0.139237,-0.78412 v -0.0147 q 0,-0.43969 0.146565,-0.77679 0.146564,-0.34443 0.388396,-0.57893 0.241832,-0.2345 0.556946,-0.35176 0.315114,-0.12458 0.652212,-0.12458 0.45435,0 0.74748,0.16855 0.293129,0.16855 0.520304,0.41771 v -0.51297 h 1.113891 v 3.04121 q 0,1.04794 -0.49832,1.54626 -0.278472,0.27847 -0.70351,0.40305 -0.417709,0.12458 -0.989311,0.12458 z"
         style="font-style:normal;font-variant:normal;font-weight:bold;font-stretch:normal;font-size:7.32823086px;line-height:1.25;font-family:'Gotham Bold';-inkscape-font-specification:'Gotham Bold, Bold';letter-spacing:0px;word-spacing:0px;fill:#ffffff;fill-opacity:1;stroke:none;stroke-width:0.26458332px;stroke-linecap:butt;stroke-linejoin:miter;stroke-opacity:1"
         id="path5208"
         inkscape:connector-curvature="0" />
      <g
         style="overflow:visible"
         id="g4690"
         transform="matrix(0.03101189,0,0,0.03101189,31.399438,118.41132)">
        <g
           id="XMLID_12_">
          <g
             id="g4380">
            <path
               id="path4382"
               d="m 241.422,43.25 c 20.04,21.48 37.13,53.12 37,93 -0.03,9.919 -1.96,20.12 -4,29 -6.31,27.4 -20.74,49.091 -37,65 -22.45,21.98 -54.19,39.17 -95,40 -38.93,0.79 -73.65,-14.38 -98,-37 -23.75,-22.06 -41.85,-51.739 -44,-92 -1.31,-24.52 5.08,-46.21 12,-61 1.84,-3.94 3.14,-7.53 5,-11 0.91,-1.69 2.88,-3.22 4,-5 21.09,-33.5 54.82,-57.9 102,-63 0.61,-0.07 1.18,-0.14 1,-1 10,0 20,0 30,0 8.09,2.05 18.75,3.52 27,6 6.45,1.94 12.62,5.09 17,7 6.5,2.84 10.84,4.72 16,8 9.78,6.22 19.73,14.2 27,22 z m 34,82 c -0.1,-5.9 0.65,-12.65 -4,-14 -8.49,1.18 -15.54,3.79 -25,4 -2.13,6.45 2.19,13.34 9,14 4.39,1.05 3.28,-3.38 7,-3 4.07,3.04 9.29,1.38 13,-1 z m -3,24 c 5.46,0.13 2.04,-8.62 3,-13 -10.23,-0.47 -19.18,-0.86 -29,1 0.4,4.74 -1.79,6.88 -1,12 1.67,0 3.33,0 5,0 0.17,-4.97 -1.92,-7.729 2,-10 5.39,-1.39 4.19,3.81 9,3 1.59,-3.78 8.03,-3.44 11,-1 0,2.67 0,5.33 0,8 z m 0,13 c 0.39,-2.729 -3.71,-2.68 -5,-3 -7.27,-1.83 -14.19,-2.229 -20,-4 -0.67,0 -1.33,0 -2,0 0.13,5.391 -4.76,10.95 -1,14 5.17,0.5 2.72,-6.609 5,-9 4.07,-0.649 7.81,1.221 12,2 3.82,0.709 10.349,3.89 11,0 z m -25,-54 c 8.55,1.82 23.18,-5.36 23,-12 -0.17,-6.37 -4.15,-7.71 -12,-7 -4.64,0.42 -8.25,2.22 -11,4 -2.55,1.65 -7.77,4.27 -7,9 0.58,3.56 3.94,5.35 7,6 z m 9,-29 c 1.49,-1.43 4.31,-1.66 4,-4 -6.71,-0.36 -11.14,6.84 -16,5 1.57,-7.12 10.38,-11.12 7,-20 -4,0.56 -7.7,3.59 -10,5 -2.06,1.26 -4.3,2.33 -5,3 -0.84,0.8 -2.15,1.19 -3,2 -2.28,2.19 -6.83,3.52 -7,7 9.02,-1.31 12.65,-8.02 21,-10 -1.5,4.15 -4.43,7.27 -7,11 -2.26,3.29 -6.74,6.85 -5,11 4.02,0.38 7.49,-4.19 9,-5 3.15,-1.69 10.62,-3.68 12,-5 z m -2,109 c 3.11,-2.76 -1.24,-7.109 -4,-4 -0.691,3.35 1.68,3.65 4,4 z m -18,20 c 6.36,-0.859 16.6,6.471 17,-3 -7.96,-4.71 -13.35,-11.979 -23,-15 -0.08,1.74 0.22,3.11 1,4 3.43,0.69 6.41,3.11 9,5 2.49,1.82 5.96,3.75 7,7 -3.99,-0.489 -8.09,-0.17 -12,-1 -5.4,-1.149 -10.54,-6.649 -13,-1 3.14,0.86 4.22,3.78 8,4 0.75,2.061 3.12,4.181 4,5 0.76,0.71 2.17,0.311 3,1 2.2,1.82 3.99,7.03 7,5 0.4,-6.09 -9.33,-7.3 -8,-11 z m -1,-149 c 0.79,-3.45 -0.93,-4.4 -3,-5 -1.21,1.55 -3.2,3.9 -1,6 1.89,0.22 2.21,-1.13 4,-1 z m -4,175 c 0.86,-0.81 0.59,-2.739 2,-3 -2.72,-9.609 -9.15,-15.52 -12,-25 -2.93,0.9 -3.07,0.9 -6,0 -2.74,-4.83 -7.45,-9.97 -11,-16 -0.29,-0.489 0.3,-1.52 0,-2 -0.53,-0.859 -2.45,-1.18 -3,-2 -0.8,-1.199 -0.23,-2.739 -1,-4 -1.42,-2.319 -2.96,-3.43 -4,-6 -1.12,-2.77 -1.75,-4.51 -3,-7 -0.91,-1.819 -1.3,-4.859 -1,-9 0.08,-1.13 1.78,-2.31 2,-3 0.68,-2.109 0.12,-4.729 1,-7 0.75,-1.939 2.79,-3.21 4,-5 2.03,-3.02 3.45,-5.26 5,-9 0.86,-2.08 2.76,-5.84 5,-8 -0.13,-10.02 7.14,-15.35 7,-24 -0.05,-2.92 -3.81,-5.93 -2,-10 -4.9,-5.1 -7.13,-12.87 -10,-20 -3.95,-1.54 -6.41,-6.12 -10,-9 -2.35,-1.89 -3.69,-2.23 -6,-5 -0.25,-0.3 -1.88,-0.73 -2,-1 -1.02,-2.27 -0.92,-1.64 -4,-4 -0.33,-0.25 -0.71,-1.87 -1,-2 -0.49,-0.22 -1.58,0.31 -2,0 -2.03,-1.53 -3.86,-4.45 -5,-5 -1.33,-0.64 -3.99,-0.33 -6,-1 -1.14,-0.38 -2.74,-1.75 -4,-2 0.07,0.01 -1.21,1.3 -2,1 -0.35,-0.13 -0.09,-0.85 -1,-1 -3.31,-0.54 -5.19,-1.45 -8,0 0.31,-2.31 -2.89,-1.11 -3,-3 -3.04,0.63 -8.61,-1.28 -10,1 3.11,0.01 6.91,1.98 5,4 -3.08,0.7 -1.92,0.7 -5,0 -0.41,5.08 3.92,5.42 8,6 0.62,1.45 1.21,-0.1 0,0 -0.56,-2.44 -3.87,-2.13 -3,-6 3.83,-1.25 4.23,-2.91 10,-1 0.52,0.17 1.62,1.89 2,2 0.76,0.23 2.34,-0.42 3,0 0.04,0.03 0.63,3.72 4,2 0.15,4.18 4.48,4.18 7,6 1.39,1.61 4.94,1.06 6,3 -0.37,-1.7 0.78,-1.89 2,-2 0.44,1.23 1.28,2.05 3,2 -0.84,3.57 5.09,5.49 3,7 -3.14,-2.52 -7.23,-4.11 -13,-4 -2.68,-2.99 -6.81,-4.53 -13,-4 -2.49,0.41 -6.57,-5.71 -7,-1 2.45,2.22 9.18,0.15 8,6 5.06,-0.73 7.34,1.33 10,3 0,1 0,2 0,3 3.05,0.05 2.4,-3.6 6,-3 0.35,1.31 1.76,1.57 2,3 0.54,3.54 -3.54,2.46 -3,6 3.21,-0.83 2.07,-0.85 4,1 0.64,-3.02 1.56,-5.77 5,-6 0.82,1.05 2.54,2.04 3,3 0.94,1.98 -0.73,4.37 1,6 -0.46,3.85 2.69,9.24 5,7 -1.76,-0.24 -2.28,-1.72 -2,-4 3.55,1.55 0.6,-3.4 3,-3 4.01,3.32 4.43,10.23 5,17 1.79,0.13 2.11,-1.22 4,-1 0,1 0,2 0,3 -3.81,0.05 -0.72,9.44 -6,10 2.17,-0.17 0.45,3.55 1,5 -1.9,1.87 -2.51,0.11 -5,0 0.85,3.19 -0.87,3.8 -2,5 1.71,1.29 3.93,2.07 4,5 -2.52,1.81 -2.84,5.82 -6,7 -0.77,-2.56 3.91,-4.6 1,-6 -1.06,5.27 -8.34,4.33 -11,8 0.61,1.39 3.85,0.15 4,2 -0.4,2.4 4.55,-0.56 3,3 -4.15,-0.27 -3.9,1.31 -7,0 0.34,-2.01 -0.2,-3.13 -2,-3 -2,1.88 -1.58,3.63 -5,2 0.49,-3.22 3.65,-5.91 0,-8 0.28,2.28 -0.24,3.76 -2,4 -0.08,-1.58 0.48,-3.81 -1,-4 0.28,2.28 -0.24,3.76 -2,4 -0.07,-5.25 -1.91,-10.04 2,-13 0.61,0.58 4.74,2.34 5,0 -3.78,-2.88 -5.55,-7.78 -9,-11 -6.08,3.64 -9.24,-7.53 -15,-4 2.28,-0.28 3.76,0.24 4,2 -2.49,-0.15 -3.1,1.57 -5,2 -1.49,-2.51 -4.49,-3.51 -7,-5 -0.21,1.71 1.71,2.59 0,3 -2.68,-1.65 -4.43,-4.24 -7,-6 -3.78,0.22 -9.02,-1.02 -9,3 7.59,0.75 14.99,1.68 18,7 -2.55,2.56 -4.85,-0.22 -6,-2 0.96,-4.15 -3,-0.2 0,0 -0.88,4.25 0.68,6.49 -2,10 4.72,0.05 5.11,-4.22 8,-6 2.63,2.4 3.91,-1.43 7,-2 2.18,-0.4 4.08,0.29 7,0 0.62,2.71 4.18,2.49 4,6 -2.86,-2.47 -6,-4.67 -12,-4 -4.97,2.76 -4.79,11.15 -6,15 0.3,-2.64 -1.38,-3.28 -4,-3 -1.15,1.18 -1.13,3.53 -1,6 -3.57,1.43 -4.17,5.83 -8,7 0.17,5.88 -8.91,8.98 -2,13 -0.09,-1.42 -0.17,-2.83 1,-3 -0.8,3.471 1.49,3.841 1,7 3.55,1.551 0.6,-3.399 3,-3 1.06,2.271 6.29,0.38 9,1 7.82,-4.92 12.81,-11.89 24,-11 -0.1,2.57 -3.9,1.43 -4,4 6.84,-0.97 14.14,-3.17 20,0 -1.16,-0.16 -1.78,0.22 -2,1 -1.45,0.61 0.1,1.21 0,0 1.77,0.23 5.01,-1.01 4,2 -0.27,2.061 -4.43,0.24 -4,3 4.08,1.11 -1.14,3.051 -1,6 0.81,0.86 2.74,0.591 3,2 0.17,2.891 0.92,4.62 0,7 -0.18,0.48 -1.83,0.62 -2,1 -1.12,2.49 -2.53,3.63 -5,6 -1.39,1.33 -5.44,2.36 -8,4 -0.86,0.551 -1.18,2.45 -2,3 -1.65,1.101 -10.04,2.62 -6,7 0.19,-1.14 1,-0.56 1,0 1.4,0.48 1.48,-0.609 2,-1 0.37,-0.279 2.12,-2.609 3,-3 0.41,-0.189 1.69,0.311 2,0 1.04,-1.05 0.84,-3.06 2,-4 0.85,-0.689 2.23,-0.29 3,-1 0.4,-0.37 0.58,-1.71 1,-2 1.28,-0.88 3.83,-1.02 5,-2 2.1,-1.76 2.88,-5.31 6,-6 0.02,3.07 -6.22,5.03 -3,8 1.13,-2.93 2.87,1.65 4,2 -1.48,0.851 -2.15,2.521 -2,5 -4.15,-0.96 -0.2,2.99 0,0 1.7,0.051 3.49,-4.93 6,-5 -0.61,0.021 4.48,3.2 5,4 1.05,1.62 1.47,4.341 0,8 1.7,-0.37 1.89,0.78 2,2 -1.24,3.431 -5.91,3.42 -6,8 -2.83,0.17 -6.86,-0.859 -7,2 1.79,-1.21 5.82,-0.18 7,-2 3.46,-0.149 7.55,-2.699 10,1 -1.77,0.891 -1.27,4.061 -5,3 0.12,2.5 1.91,3.13 -1,4 -5.95,-2.659 -14.25,0.2 -17,4 4.87,-0.46 3.76,-0.67 7,1 2.85,-1.81 4.09,-5.25 10,-4 -0.35,1.311 -1.76,1.57 -2,3 6.67,0.69 11.47,-7.8 16,-3 -1.48,2.521 -3.87,4.13 -7,5 -1.01,2.75 -4.65,5.351 -8,7 -2.1,1.03 -4.57,1 -7,2 -4.16,1.71 -8.09,4.351 -12,6 -2.19,0.92 -4.79,1.08 -7,2 -2.61,1.091 -5.51,3.2 -9,4 -2.99,0.681 -6.19,0.761 -9,2 -0.61,-1.39 -3.85,-0.149 -4,-2 2.28,-3.72 9.53,-2.47 12,-6 3.05,0.051 5.09,-0.909 6,-3 -3.38,-0.38 -4.27,1.73 -6,3 -6.01,-0.56 -7.2,2.771 -12,1 0.27,4.091 -3.59,1.891 -6,3 -0.46,0.21 -0.63,1.83 -1,2 -1.23,0.551 -2.81,-0.1 -5,1 -2.14,1.07 -2.8,2.69 -5,3 -4.55,0.641 -8.68,-1.87 -14,-1 0,-1 0,-2 0,-3 -1.58,-0.08 -3.81,0.48 -4,-1 -3.24,-1.239 -0.76,3.23 -4,2 -2.79,-2.659 -7.9,-2.069 -12,-1 -1.55,-4.22 5.55,0.221 4,-4 -6.41,0.261 -10.44,2.891 -15,5 -2.29,-2.85 2.15,-8.71 -2,-11 -4.25,0.75 -5.33,4.67 -11,4 0.55,-3.79 2.42,-6.25 2,-11 -1.71,0.04 -2.59,-0.739 -3,-2 -4.65,-0.939 -8.72,3.891 -12,1 0.84,-3.489 3.34,-5.319 3,-10 -4.88,1.45 -5.25,7.42 -7,12 -1.31,0.351 -1.57,1.761 -3,2 -2.2,2.801 -10.01,-0.01 -10,5 2.56,3.11 6.86,-3.89 10,0 -1.11,1.891 -1.28,4.721 -2,7 1.66,2 2.69,4.65 6,5 3.06,0 7.25,-4.01 10,-1 -0.86,3.851 -2.18,8.9 3,9 3.37,5.49 7.9,-1.92 12,-2 -2.59,2.88 0.45,6.2 0,10 5.19,-0.81 2.49,-9.51 4,-14 4.23,-1.109 6.35,-4.319 11,-5 -0.43,4.431 5.83,2.17 6,6 0.58,7.25 -3.12,10.221 -7,13 -3.43,2.5 -6.46,-2.01 -9,0 4.51,9.62 14.94,-0.08 18,-4 1.07,-3.93 0.22,-9.779 2,-13 1.47,3.86 7.76,2.91 9,7 -0.18,7.49 -2.22,13.11 -7,16 -3.55,1.681 -8.06,-3.39 -8,1 2.09,1.58 5.26,2.07 9,2 4.3,-2.689 8.37,-9.479 9,-16 0.2,-2.09 -0.67,-4.5 0,-6 3.71,-0.71 4.29,1.71 8,1 3.13,7.721 3.34,23.79 -10,21 0.59,6.13 8.9,1.48 12,1 0.59,-3.14 2.62,-7.51 3,-12 0.33,-3.81 -0.54,-7.729 0,-10 1.58,0.08 3.81,-0.479 4,1 -5.25,9.11 -2.19,30.2 12,23 0.54,-8.22 -0.79,-19.859 0,-25 3.91,-0.14 1.46,4.25 2,6 0.16,0.53 1.89,1.62 2,2 1.42,4.7 1.72,11.44 4,17 6.75,-1.25 1.61,-14.39 7,-17 4.69,4.311 6.29,11.71 13,14 2.26,-8.739 -4.34,-16.88 -4,-27 3.36,-2.67 7.4,-4.069 13,-6 4.79,-1.649 8.82,-3.93 14,-5 2.88,7.12 7.16,12.841 9,21 0.49,3.16 -4.96,0.37 -4,4 3.1,3.28 6.67,-1.72 9,-3 2.93,-1.6 7.93,-2.159 8,-6 -4.18,-0.84 -4.72,1.94 -8,2 -4.63,-5.699 -7.08,-13.59 -11,-20 1.31,-0.35 1.57,-1.76 3,-2 11.809,1.86 16,11.33 28,13 z m -10,-188 c 7.14,0.14 9.87,-3.67 9,-9 -0.61,-3.74 -6.46,-5.73 -9,-7 -4.51,5.18 -9.34,10.28 -13,15 -1.18,1.52 -4.5,3.27 -4,6 4.78,-0.55 5.53,-5.14 10,-6 4.97,5.5 -1.63,9.98 -2,16 7.12,-0.88 6.29,-9.71 9,-15 z m -16,-23 c 3.05,0.33 7.04,4.89 10,2 -3.82,-2.18 -6,-6 -12,-6 -5.17,7.17 -9.85,14.81 -14,23 8.41,1.41 3.96,-10.04 13,-8 1.07,-3.74 -2.48,-2.85 -2,-6 2.89,-0.45 2.36,-4.3 5,-5 z m -13,179 c -2.28,-0.279 -3.76,0.24 -4,2 1.86,-0.14 3.34,-0.66 4,-2 z m -5,-164 c 1.35,-6.35 -7.52,-2.48 -7,-8 2.23,-6.77 5.26,-12.74 8,-19 -1.35,-0.31 -1.91,-1.42 -4,-1 -4.09,7.24 -6.67,15.99 -9,25 4.47,0.53 7.65,2.35 12,3 z m -2,39 c 0.14,-1.18 1.78,-2.27 0,-3 -0.14,1.18 -1.78,2.27 0,3 z m -9,89 c -1.72,-0.05 -2.56,0.771 -3,2 1.72,0.05 2.559,-0.77 3,-2 z m -2,-73 c 0.62,1.45 1.21,-0.1 0,0 -0.62,-1.45 -1.21,0.1 0,0 z m -1,29 c 0.28,0.28 1.52,-0.48 1,-1 -0.28,-0.28 -1.52,0.48 -1,1 z m -2,-88 c 0.67,-10.67 -1.93,-18.07 -2,-28 -2.36,0.02 -2.94,-1.72 -6,-1 -2.28,3.21 -4.62,6.99 -7,11 -2.24,3.78 -5.96,7.93 -5,12 6.98,-1.25 3.91,-9.69 10,-10 11.07,-0.56 2.63,13.89 10,16 z m -2,191 c 1.45,-0.621 -0.1,-1.21 0,0 -4.151,-0.96 -0.2,2.99 0,0 z m -2,-59 c 0.28,0.28 1.52,-0.479 1,-1 -0.28,-0.28 -1.52,0.48 -1,1 z m -8,24 c 0.28,0.28 1.52,-0.479 1,-1 -0.28,-0.28 -1.52,0.48 -1,1 z m -3,-102 c 3.21,0.79 4.37,3.63 7,5 -1.02,-4.67 -7.65,-8.99 -12,-7 1.97,0.69 2.67,2.67 3,5 -2.51,-0.42 -5.51,-5.46 -7,-1 6.67,-1.39 7.22,11.93 12,6 -4.24,1.18 -3.35,-7.9 -3,-8 z m 4,16 c -1.33,0.15 -3.02,-4.07 -4,-1 0.63,0.55 3.019,4.06 4,1 z m -1,-42 c -2.62,-0.28 -4.3,0.36 -4,3 2.5,0.17 3.13,-1.54 4,-3 z m -2,126 c 1.45,-0.621 -0.1,-1.21 0,0 -0.85,-0.18 -0.94,0.391 -1,1 -2.06,-0.88 -4.49,2.591 -2,3 0.35,-1.31 1.76,-1.569 2,-3 0.849,0.18 0.94,-0.39 1,-1 z m -8,9 c -0.01,-1.01 -1.75,-1.26 -2,0 0.21,1.209 1.11,0.61 2,0 z m -3,-104 c 0.78,-0.22 1.97,-0.03 2,-1 -0.78,0.22 -1.97,0.03 -2,1 z m -3,-8 c 1.57,-0.1 3.47,0.13 3,-2 -0.67,0 -1.33,0 -2,0 0,1 -0.81,1.19 -1,2 z m 3,114 c -2.5,-0.17 -3.13,1.54 -4,3 2.5,0.169 3.13,-1.541 4,-3 z m -1,-139 c 1.72,0.05 2.56,-0.77 3,-2 -1.57,0.09 -3.47,-0.13 -3,2 z m -5,37 c 0.25,2.29 3.18,2.64 3,1 -0.07,-0.64 -3.26,-3.36 -3,-1 z m 0,6 c 0.28,0.28 1.52,-0.48 1,-1 -0.28,-0.28 -1.52,0.48 -1,1 z m 0,6 c 0.28,0.28 1.52,-0.48 1,-1 -0.28,-0.28 -1.52,0.48 -1,1 z m -2,-50 c 0,0.55 0.81,1.13 1,0 0,-0.56 -0.81,-1.14 -1,0 z m -11,-6 c 6.2,-2.16 8.18,5.1 12,2 -4.89,-3.1 -10.01,-6.73 -15,-7 -0.47,3.14 2.69,2.64 3,5 z m 7,-12 c 0.78,-0.22 1.97,-0.03 2,-1 -0.78,0.22 -1.97,0.03 -2,1 z m -2,-17 c 0.48,-3.86 5.12,-3.54 6,-7 -1.17,-2.83 -6.18,-1.82 -5,-7 -1,0 -2,0 -3,0 1.88,6.21 -3.78,4.88 -4,9 3.71,-0.05 2.44,4.9 6,5 z m 0,132 c 0.28,0.28 1.52,-0.479 1,-1 -0.28,-0.28 -1.52,0.48 -1,1 z m -1,10 c 0.28,0.28 1.52,-0.479 1,-1 -0.28,-0.28 -1.52,0.48 -1,1 z m -2,42 c 1.23,-1.409 5.21,-0.5 2,-3 -2.37,4.63 -10.54,3.46 -11,10 4.6,1.03 7.19,-4.93 9,-7 z m 1,-36 c 0.28,0.28 1.52,-0.479 1,-1 -0.28,-0.28 -1.52,0.48 -1,1 z m -1,-15 c 0,0.561 0.81,1.13 1,0 0,-0.56 -0.81,-1.14 -1,0 z m -1,-51 c 0.78,-0.22 1.97,-0.03 2,-1 -0.78,0.22 -1.97,0.03 -2,1 z m -12,-52 c 6.18,-1.49 10.55,4.07 14,2 -3.3,-2.36 -8.99,-2.34 -11,-6 -2.34,0.31 -4.13,1.96 -6,0 -0.88,3.21 3.3,1.37 3,4 z m 11,-14 c 0.28,0.28 1.52,-0.48 1,-1 -0.28,-0.28 -1.52,0.48 -1,1 z m 1,122 c -2.16,-2.26 -3.41,0.83 -7,0 1.36,3.03 -0.13,6.5 -5,6 -1.11,3.141 -0.47,2.641 1,5 -1.46,2.2 -7.92,-0.59 -8,3 -3.89,2.44 -5.38,7.28 -13,6 1.58,-3.909 -2.6,-2.069 -3,-4 2.38,-1.29 2.85,-4.479 4,-7 -2.13,-0.47 -1.9,1.431 -2,3 -1.88,0.21 -5.2,4.011 -6,2 0.91,-3.46 6.92,-7.029 4,-11 -1.44,2.42 -3.11,8.16 -7,5 -1.73,0.61 0.08,4.74 -2,5 -0.89,-0.779 -2.26,-1.08 -4,-1 0.15,-2.479 0.19,-4.85 -2,-5 -1.85,6.54 -13.48,3.24 -16,-1 0.48,4.08 -3.07,0.53 -2,-2 3.18,2.88 4.81,-1.84 7,-3 -0.16,1.16 0.22,1.78 1,2 1.96,-5.05 -6.3,-6.909 -3,-12 0.51,-0.79 1.89,0.511 2,-1 -0.06,0.79 -1.98,-0.92 -2,-1 -0.62,-2.14 2.71,-2.729 2,-5 -1.23,-0.439 -2.05,-1.28 -2,-3 0.85,0.18 0.94,-0.39 1,-1 1.71,0.04 2.59,-0.74 3,-2 -1.71,-0.04 -2.59,0.74 -3,2 -0.85,-0.18 -0.94,0.39 -1,1 -4.19,-0.94 0.66,-5.11 -4,-6 2.29,-3.62 4.75,-1.11 8,-3 -1.86,-0.14 -3.34,-0.66 -4,-2 1.1,0.43 2.97,-0.56 4,0 0.78,0.42 0.42,2.67 1,3 1.79,1.03 4.21,-0.6 5,2 1.05,4.95 1.62,10.379 4,14 -0.03,-6.31 0.4,-13.06 -1,-18 0.37,-1.73 3.02,-6.18 1,-7 -0.44,1.48 -1.28,-0.39 -3,0 -1.73,0.61 0.08,4.74 -2,5 -5.65,-1.68 -13.75,-0.92 -17,-5 0.59,-6.74 6.35,-8.32 9,-13 0.85,0.18 0.94,-0.39 1,-1 5.65,-1.02 7.63,-5.7 11,-9 -0.4,5.3 4.26,-3.44 5,0 0.13,7.96 -2.39,15.75 0,23 2.48,0.15 4.85,0.19 5,-2 1.45,-0.62 -0.1,-1.21 0,0 -3.21,0.87 -3.13,-1.54 -4,-3 1.75,-3.24 6,-5.91 6,-8 1.31,-0.35 1.57,-1.76 3,-2 2.41,3.13 5.31,-0.44 8,2 -0.14,1.86 -0.66,3.34 -2,4 -4.29,0.04 -7.36,1.3 -10,3 6.63,-0.85 -1.53,2.71 2,4 2.56,-3.77 8.47,-4.19 11,-8 4.84,1.23 6.55,0.75 10,-2 -4.26,0.4 -9.09,-2.18 -7,-5 -3.96,1.29 -2.04,-3.29 -6,-2 -1.03,-4.31 -5.07,-5.59 -9,-7 -0.95,-2.71 -3.6,-3.74 -5,-6 -2.67,0 -5.33,0 -8,0 0,-2.33 0,-4.67 0,-7 2.77,-2.33 6.63,-6.65 7,-9 0.15,-0.96 -0.14,-4.19 1,-5 0.26,-0.19 1.87,0.26 2,0 0.5,-0.98 -0.64,-3.13 0,-4 0.2,-0.27 1.68,-0.63 2,-1 2.33,-2.68 5.39,-5.27 11,-7 1.21,-0.38 2.75,0.27 4,0 1.71,-0.38 2.57,-1.79 4,-2 1.55,-0.22 3.7,1.11 6,1 2.58,-0.12 5.03,-1.97 8,-1 1.79,0.28 2.05,-0.95 1,-1 -6.98,1.32 -8.6,-2.73 -14,-3 -0.01,-3.66 -1.98,-5.36 -4,-7 2.96,3.9 -1.79,6.67 -5,4 -0.74,3.41 3.69,1.65 4,4 -12.56,3.77 -20.41,12.26 -25,24 -4.67,2.33 -7.18,6.82 -8,13 2.1,2.56 2.69,6.64 4,10 -1.65,4.01 -6.08,5.25 -8,9 -0.85,-0.18 -0.94,0.39 -1,1 -2.7,0.41 -4.62,3 -7,5 -2.85,2.4 -6.29,3.76 -6,10 1.35,2.32 2.84,4.49 5,6 0.23,4.9 -1.76,7.57 -1,13 0.43,1.91 2.86,1.811 2,5 0.17,2.5 -1.54,3.13 -3,4 -0.5,1.63 1.72,2.32 1,4 -0.09,0.221 -1.99,0.92 -2,1 -0.23,1.74 1.08,2.141 1,4 -0.1,2.44 -2.29,4.49 -2,6 0.23,1.19 1.72,1.29 2,2 0.29,0.73 -0.45,2.38 0,3 2.58,3.57 8.4,3.94 12,8 4.45,-0.779 6,1.33 10,1 2.37,0.9 3.8,3.54 6,5 2.28,1.521 6.7,1.33 7,5 4.54,-0.04 8.14,3.23 10,6 0.29,0.44 -1.31,1.261 -1,2 0.38,0.9 2.67,0.19 3,2 0.38,2.101 -0.65,2.641 -1,4 4.64,1.2 6.22,5.54 5,10 -1.88,1.45 -5.2,1.471 -6,4 1.7,-0.37 1.89,0.78 2,2 5.25,-1.09 7.41,-5.25 11,-8 -2.06,1.141 -2.43,-2.77 -3,-4 -0.77,-1.68 -2.01,-4.359 -2,-8 -3.3,-0.04 -3.82,-2.84 -4,-6 0.1,-2.569 3.9,-1.43 4,-4 -5.53,1.771 -3.85,-1.38 -9,0 1.15,-2.93 -4.8,-3.71 -2,-5 4.49,2.04 7.68,-0.52 12,2 0.61,1.45 1.21,-0.1 0,0 -0.53,-0.81 -1.04,-1.62 -1,-3 1.67,0 3.33,0 5,0 -0.04,-4.67 -2.84,-1.909 -6,-2 1.24,-3.239 -3.24,-0.77 -2,-4 0.74,-2.92 5.4,-1.939 5,-6 -1.16,0.16 -1.78,-0.22 -2,-1 4.35,1.37 6.71,-0.01 11,-1 0.13,-1.79 -1.22,-2.109 -1,-4 1.79,-0.13 2.11,1.221 4,1 0.28,-1.75 -2.82,-4.989 0,-6 2.55,0.11 1.98,3.351 2,6 2.82,0.15 2.51,-2.83 4,-4 -1.7,-1.81 -4.11,-4.85 -1,-6 z m -3,-12 c 1.45,-0.621 -0.1,-1.21 0,0 -2.64,1.08 -2.64,6.92 0,8 0,-2.67 0,-5.331 0,-8 z m -4,-12 c 1.49,-0.89 4.59,-0.93 4,-4 -5.83,-0.84 -8.08,1.92 -9,6 2.75,1.21 3.49,-1.1 5,-2 z m -1,-98 c 1.45,-0.55 5.17,1.17 5,-1 -1.27,-1.36 -4.9,-1.54 -5,1 z m 0,144 c 0.03,-2.38 5.12,-4.77 2,-7 -0.26,1.561 -2.19,0.69 -3,0 0.48,3.15 -3.07,2.261 -2,6 1.38,-0.041 2.2,0.47 3,1 z m 1,26 c 0.28,0.28 1.52,-0.479 1,-1 -0.28,-0.28 -1.52,0.48 -1,1 z m -2,-52 c 0.28,0.28 1.52,-0.479 1,-1 -0.28,-0.28 -1.52,0.48 -1,1 z m 1,-51 c 0,-0.67 0,-1.33 0,-2 -0.67,0 -1.33,0 -2,0 0,0.67 0,1.33 0,2 0.67,0 1.33,0 2,0 z m -5,58 c 0.28,0.28 1.52,-0.479 1,-1 -0.28,-0.28 -1.52,0.48 -1,1 z m -1,-124 c -1.72,-0.05 -2.56,0.77 -3,2 1.72,0.05 2.56,-0.77 3,-2 z m -1,130 c 0.55,-3.479 -6.71,-4.27 -7,-1 2.66,0.01 5.71,-0.38 7,1 z m 1,-123 c -4.04,-3.52 -2.36,3.22 0,0 z m -2,94 c -1.05,5.8 4.33,0.42 0,0 z m 1,81 c -1.44,-1.12 -2.44,-1.08 -3,1 -1.44,0.561 -2.44,1.561 -3,3 2.18,0.181 3.18,-0.819 3,-3 1.42,0.09 2.83,0.16 3,-1 z m -2,-112 c 1.58,-5.92 -3.51,-5.16 -3,-10 -3.06,0.72 -3.64,-1.02 -6,-1 1.17,-3.29 -1.82,-2.65 -3,-4 -0.32,-0.37 0.34,-1.66 0,-2 -1.27,-1.27 -4.1,0.06 -3,-3 -0.06,-0.61 -0.15,-1.18 -1,-1 -0.17,1.16 -1.58,1.09 -3,1 -0.54,7.87 4.74,9.92 11,11 2.59,3.08 3.69,7.64 8,9 z m -2,-77 c 1.79,-8.27 -2.71,-18.52 -4,-27 -1,0 -2,0 -3,0 -0.39,1.43 -1.2,1.69 0,3 2.47,7.87 1.95,18.72 7,24 z m -6,185 c 0.28,0.28 1.52,-0.479 1,-1 -0.28,-0.28 -1.52,0.48 -1,1 z m -1,-44 c 0.78,-0.22 1.97,-0.029 2,-1 -0.78,0.22 -1.97,0.03 -2,1 z m -1,-36 c 0.78,-0.22 1.97,-0.03 2,-1 -0.78,0.22 -1.97,0.03 -2,1 z m 2,-95 c -0.01,-1.01 -1.75,-1.26 -2,0 0.21,1.21 1.11,0.61 2,0 z m -2,7 c 0.28,0.28 1.52,-0.48 1,-1 -0.28,-0.28 -1.52,0.48 -1,1 z m -3,173 c 4.41,0.19 0.28,-3.94 0,0 -4.15,-0.96 -0.2,2.99 0,0 z m -1,-187 c -0.6,-9.07 1.24,-20.57 -1,-28 -1,0 -2,0 -3,0 -2.12,4.41 3.62,14.16 0,20 -3.1,-1.59 -4.66,-4.67 -7,-7 -2.67,-2.66 -4.15,-6.69 -9,-6 -2.17,2.37 1.84,3.64 3,5 5.02,5.92 9.84,13.49 17,16 z m -8,191 c 1.72,0.051 2.56,-0.77 3,-2 -1.57,0.1 -3.47,-0.13 -3,2 z m -1,-68 c 0.14,-3.14 -2.56,-3.439 -5,-4 0.68,2.32 1.8,4.2 5,4 z m -2,65 c 0.28,0.28 1.52,-0.479 1,-1 -0.28,-0.28 -1.52,0.48 -1,1 z m -6,-180 c 2.33,-0.26 8.74,-3 6,-8 -4.56,-0.56 -4.23,3.77 -9,3 -3.78,-1.88 -8.16,-3.57 -9,-8 -1.18,-6.18 2.64,-8.4 5,-13 -18.93,4.62 -3.56,27.19 7,26 z m -7,126 c 0.28,0.28 1.52,-0.479 1,-1 -0.28,-0.28 -1.52,0.48 -1,1 z m -1,-19 c 1.45,-0.621 -0.1,-1.21 0,0 -0.81,0.19 -1,1 -2,1 0.09,-1.42 0.17,-2.83 -1,-3 -1.12,1.44 -1.08,2.44 1,3 -0.09,1.42 -0.17,2.83 1,3 0.78,-0.89 1.08,-2.26 1,-4 z m 0,-4 c 0.28,-2.279 -0.24,-3.76 -2,-4 -0.28,2.28 0.24,3.76 2,4 z m -1,-94 c 0.43,-4.32 -4.9,-4.45 -7,-6 -2.25,-1.65 -4.44,-3.6 -6,-6 -2.42,-3.72 -1.04,-7.69 -5,-11 -3.08,3.4 3.08,8.6 0,12 -4.27,-0.66 -9.76,-7.05 -12,-1 4.55,2.45 10.32,3.68 14,7 1.48,3.86 3.11,7.56 3,13 -4.21,0.41 -7.63,2.59 -12,2 -2.95,-0.4 -9.47,-4.3 -10,-8 -1.19,-4.32 3.28,-5.61 1,-8 -1.71,-1.81 -3.93,0.31 -4,3 -2.24,0.43 -0.41,4.93 -1,7 4.66,6.18 17.54,13.8 26,7 0,-1 0,-2 0,-3 2.09,0.42 2.65,-0.69 4,-1 0.56,-3.95 -4.19,-7.74 -1,-11 4.53,0.14 5.23,4.1 10,4 z m -1,105 c 0.15,-1.05 -0.77,-2.58 -1,-1 -0.15,1.05 0.77,2.58 1,1 z m -3,12 c 0.28,0.28 1.52,-0.479 1,-1 -0.28,-0.28 -1.52,0.48 -1,1 z m -12,32 c -0.22,-0.779 -0.84,-1.159 -2,-1 -1.41,3.53 -4.26,3.2 -7,5 -1.49,0.98 -2.64,2.99 -4,4 -0.88,0.65 -2.22,0.4 -3,1 -0.56,0.431 -1.41,1.46 -2,2 -1.58,1.45 -3.83,1.83 -3,5 4.65,-0.409 7.7,-4.609 11,-7 1.52,-1.1 4.34,-1.59 6,-3 1.85,-1.56 3.48,-3.621 4,-6 z m -4,-7 c -1.33,0 -2.67,0 -4,0 -4.43,3.86 -10.55,7.391 -15,10 -1.77,1.04 -5.09,1.311 -5,4 4.66,2.101 9.14,-2.659 13,-5 4,-2.42 9.76,-4.36 11,-9 z m -7,-117 c 1.66,-2.34 5.58,-2.42 5,-7 -4.52,-0.52 -4.03,3.97 -8,4 -6.59,-1.75 -12.99,-3.67 -15,-10 0.31,-2.36 3.47,-1.86 3,-5 -1.28,-0.06 -1.38,-1.28 -3,-1 -10.24,9.2 5.4,20.75 18,19 z m 2,110 c -3.6,-1.25 -8.35,1.811 -11,3 -0.35,0.16 -0.58,1.761 -1,2 -4.15,2.36 -10.46,3.471 -12,8 5.12,-0.189 9.25,-2.949 13,-5 3.99,-2.18 8.53,-4.2 11,-8 z m -5,-100 c -0.02,-2.36 1.72,-2.94 1,-6 -5.35,-0.68 -3.71,5.62 -9,5 -5.03,-1.97 -11.4,-2.6 -13,-8 -1.39,-4.51 3.89,-4.99 1,-8 -1,0 -2,0 -3,0 -2.43,2.96 -2.81,7.1 -2,10 1.17,4.2 13.94,10.52 21,9 1.71,-0.37 2.21,-2.89 4,-2 z m -32,85 c 1.75,11.32 30.56,1.801 27,-7 -4.45,-9.63 -28.07,0.03 -27,7 z m 25,-66 c 1.77,-1.89 0.73,-6.61 1,-10 -4.57,-2.86 -13.16,-8.81 -20,-8 -2.92,0.34 -3.96,2.37 -7,3 -0.04,3.29 -1.69,4.98 -1,9 10.16,0.84 16.99,5.01 27,6 z m -1,49 c -0.05,-4.29 -1.08,-7.59 -3,-10 -5.9,-0.569 -10.31,0.351 -12,4 -9,-4.18 -18.39,4.931 -12,13 8.8,-2.53 18.09,-4.581 27,-7 z m -11,-26 c 3.62,0.16 8.3,3.23 10,-1 -4.54,-2.79 -14.38,-0.28 -18,-4 2.2,-0.31 4.56,-1.32 7,-2 2.42,-0.67 6.87,0.24 7,-3 -2.19,-3.15 -8.01,-2.66 -10,-6 2.91,-3.21 13.36,4.01 14,-3 -9.06,-0.07 -19.52,-3.65 -28,-1 0,1 0,2 0,3 4.12,2.88 11.29,2.71 14,7 -4.56,3.11 -11.99,3.35 -16,7 4.41,2.72 13.19,2.69 20,3 z m 7,56 c 0,-1 0,-2 0,-3 -1,0 -2,0 -3,0 0,1 0,2 0,3 1,0 2,0 3,0 z"
               inkscape:connector-curvature="0"
               style="fill:#fab017" />
            <path
               id="path4384"
               d="m 271.422,111.25 c 4.65,1.35 3.9,8.1 4,14 -3.71,2.38 -8.93,4.04 -13,1 -3.72,-0.38 -2.61,4.05 -7,3 -6.81,-0.66 -11.13,-7.55 -9,-14 9.46,-0.21 16.51,-2.82 25,-4 z m 1,11 c 1.97,-10.15 -10,-7.47 -9,0 1.76,2.62 7.24,2.62 9,0 z m -17,3 c 2.7,-0.97 4.83,-2.51 5,-6 -1.45,-2.44 -9.95,-3.53 -10,1 0.44,2.89 2.11,4.56 5,5 z"
               inkscape:connector-curvature="0"
               style="fill:#ffffff" />
            <path
               id="path4386"
               d="m 275.422,136.25 c -0.96,4.38 2.46,13.129 -3,13 0,-2.67 0,-5.33 0,-8 -2.97,-2.44 -9.41,-2.78 -11,1 -4.81,0.81 -3.61,-4.39 -9,-3 -3.92,2.27 -1.83,5.03 -2,10 -1.67,0 -3.33,0 -5,0 -0.79,-5.12 1.4,-7.26 1,-12 9.82,-1.86 18.769,-1.47 29,-1 z"
               inkscape:connector-curvature="0"
               style="fill:#ffffff" />
            <path
               id="path4388"
               d="m 263.422,122.25 c -1,-7.47 10.97,-10.15 9,0 -1.76,2.62 -7.24,2.62 -9,0 z"
               inkscape:connector-curvature="0"
               style="fill:#fab017" />
            <path
               id="path4390"
               d="m 267.422,159.25 c 1.29,0.32 5.39,0.271 5,3 -0.65,3.891 -7.18,0.71 -11,0 -4.19,-0.779 -7.93,-2.649 -12,-2 -2.28,2.391 0.17,9.5 -5,9 -3.76,-3.05 1.13,-8.609 1,-14 0.67,0 1.33,0 2,0 5.809,1.77 12.73,2.169 20,4 z"
               inkscape:connector-curvature="0"
               style="fill:#ffffff" />
            <path
               id="path4392"
               d="m 270.422,96.25 c 0.18,6.64 -14.45,13.82 -23,12 -3.06,-0.65 -6.42,-2.44 -7,-6 -0.77,-4.73 4.45,-7.35 7,-9 2.75,-1.78 6.36,-3.58 11,-4 7.849,-0.71 11.83,0.63 12,7 z m -13,8 c 5.78,-1.35 10.75,-3.84 9,-10 -6.88,-4.46 -22.37,-0.12 -21,9 2.13,2.9 7.519,2.05 12,1 z"
               inkscape:connector-curvature="0"
               style="fill:#ffffff" />
            <path
               id="path4394"
               d="m 266.422,94.25 c 1.75,6.16 -3.22,8.65 -9,10 -4.48,1.05 -9.87,1.9 -12,-1 -1.37,-9.12 14.12,-13.46 21,-9 z"
               inkscape:connector-curvature="0"
               style="fill:#fab017" />
            <path
               id="path4396"
               d="m 260.422,75.25 c 0.31,2.34 -2.51,2.57 -4,4 -1.38,1.32 -8.85,3.31 -12,5 -1.51,0.81 -4.98,5.38 -9,5 -1.74,-4.15 2.74,-7.71 5,-11 2.57,-3.73 5.5,-6.85 7,-11 -8.35,1.98 -11.98,8.69 -21,10 0.17,-3.48 4.72,-4.81 7,-7 0.85,-0.81 2.16,-1.2 3,-2 0.7,-0.67 2.94,-1.74 5,-3 2.3,-1.41 6,-4.44 10,-5 3.38,8.88 -5.43,12.88 -7,20 4.86,1.84 9.29,-5.36 16,-5 z"
               inkscape:connector-curvature="0"
               style="fill:#ffffff" />
            <path
               id="path4398"
               d="m 260.422,119.25 c -0.17,3.49 -2.3,5.03 -5,6 -2.89,-0.44 -4.56,-2.11 -5,-5 0.05,-4.53 8.55,-3.44 10,-1 z"
               inkscape:connector-curvature="0"
               style="fill:#fab017" />
            <path
               id="path4400"
               d="m 250.422,184.25 c 2.76,-3.109 7.11,1.24 4,4 -2.32,-0.35 -4.691,-0.65 -4,-4 z"
               inkscape:connector-curvature="0"
               style="fill:#ffffff" />
            <path
               id="path4402"
               d="m 253.422,205.25 c -0.4,9.471 -10.64,2.141 -17,3 -1.33,3.7 8.4,4.91 8,11 -3.01,2.03 -4.8,-3.18 -7,-5 -0.83,-0.689 -2.24,-0.29 -3,-1 -0.88,-0.819 -3.25,-2.939 -4,-5 -3.78,-0.22 -4.86,-3.14 -8,-4 2.46,-5.649 7.6,-0.149 13,1 3.91,0.83 8.01,0.511 12,1 -1.04,-3.25 -4.51,-5.18 -7,-7 -2.59,-1.89 -5.57,-4.31 -9,-5 -0.78,-0.89 -1.08,-2.26 -1,-4 9.65,3.02 15.04,10.29 23,15 z"
               inkscape:connector-curvature="0"
               style="fill:#ffffff" />
            <path
               id="path4404"
               d="m 232.422,54.25 c 2.07,0.6 3.79,1.55 3,5 -1.79,-0.13 -2.11,1.22 -4,1 -2.2,-2.1 -0.21,-4.45 1,-6 z"
               inkscape:connector-curvature="0"
               style="fill:#ffffff" />
            <path
               id="path4406"
               d="m 233.422,231.25 c -1.41,0.261 -1.14,2.19 -2,3 -12,-1.67 -16.19,-11.14 -28,-13 -1.43,0.24 -1.69,1.65 -3,2 3.92,6.41 6.37,14.301 11,20 3.28,-0.06 3.82,-2.84 8,-2 -0.07,3.841 -5.07,4.4 -8,6 -2.33,1.28 -5.9,6.28 -9,3 -0.96,-3.63 4.49,-0.84 4,-4 -1.84,-8.159 -6.12,-13.88 -9,-21 -5.18,1.07 -9.21,3.351 -14,5 -5.6,1.931 -9.64,3.33 -13,6 -0.34,10.12 6.26,18.261 4,27 -6.71,-2.29 -8.31,-9.689 -13,-14 -5.39,2.61 -0.25,15.75 -7,17 -2.28,-5.56 -2.58,-12.3 -4,-17 -0.11,-0.38 -1.84,-1.47 -2,-2 -0.54,-1.75 1.91,-6.14 -2,-6 -0.79,5.141 0.54,16.78 0,25 -14.19,7.2 -17.25,-13.89 -12,-23 -0.19,-1.479 -2.42,-0.92 -4,-1 -0.54,2.271 0.33,6.19 0,10 -0.38,4.49 -2.41,8.86 -3,12 -3.1,0.48 -11.41,5.13 -12,-1 13.34,2.79 13.13,-13.279 10,-21 -3.71,0.71 -4.29,-1.71 -8,-1 -0.67,1.5 0.2,3.91 0,6 -0.63,6.521 -4.7,13.311 -9,16 -3.74,0.07 -6.91,-0.42 -9,-2 -0.06,-4.39 4.45,0.681 8,-1 4.78,-2.89 6.82,-8.51 7,-16 -1.24,-4.09 -7.53,-3.14 -9,-7 -1.78,3.221 -0.93,9.07 -2,13 -3.06,3.92 -13.49,13.62 -18,4 2.54,-2.01 5.57,2.5 9,0 3.88,-2.779 7.58,-5.75 7,-13 -0.17,-3.83 -6.43,-1.569 -6,-6 4.1,-1.069 9.21,-1.659 12,1 3.24,1.23 0.76,-3.239 4,-2 0.19,1.48 2.42,0.92 4,1 0,1 0,2 0,3 5.32,-0.87 9.45,1.641 14,1 2.2,-0.31 2.86,-1.93 5,-3 2.19,-1.1 3.77,-0.449 5,-1 0.37,-0.17 0.54,-1.79 1,-2 2.41,-1.109 6.27,1.091 6,-3 4.8,1.771 5.99,-1.56 12,-1 -2.47,3.53 -9.72,2.28 -12,6 0.15,1.851 3.39,0.61 4,2 2.81,-1.239 6.01,-1.319 9,-2 3.49,-0.8 6.39,-2.909 9,-4 2.21,-0.92 4.81,-1.08 7,-2 3.91,-1.649 7.84,-4.29 12,-6 2.43,-1 4.9,-0.97 7,-2 3.35,-1.649 6.99,-4.25 8,-7 3.13,-0.87 5.52,-2.479 7,-5 -4.53,-4.8 -9.33,3.69 -16,3 0.24,-1.43 1.65,-1.689 2,-3 -5.91,-1.25 -7.15,2.19 -10,4 -3.24,-1.67 -2.13,-1.46 -7,-1 2.75,-3.8 11.05,-6.659 17,-4 2.91,-0.87 1.12,-1.5 1,-4 3.73,1.061 3.23,-2.109 5,-3 -2.45,-3.699 -6.54,-1.149 -10,-1 0.09,-4.58 4.76,-4.569 6,-8 -0.11,-1.22 -0.3,-2.37 -2,-2 1.47,-3.659 1.05,-6.38 0,-8 -0.52,-0.8 -5.61,-3.979 -5,-4 -2.51,0.07 -4.3,5.051 -6,5 -0.15,-2.479 0.52,-4.149 2,-5 -1.13,-0.35 -2.87,-4.93 -4,-2 -3.22,-2.97 3.02,-4.93 3,-8 -3.12,0.69 -3.9,4.24 -6,6 -1.17,0.98 -3.72,1.12 -5,2 -0.42,0.29 -0.6,1.63 -1,2 -0.77,0.71 -2.15,0.311 -3,1 -1.16,0.94 -0.96,2.95 -2,4 -0.31,0.311 -1.59,-0.189 -2,0 -0.88,0.391 -2.63,2.721 -3,3 -0.52,0.391 -0.6,1.48 -2,1 0,-0.56 -0.81,-1.14 -1,0 -4.04,-4.38 4.35,-5.899 6,-7 0.82,-0.55 1.14,-2.449 2,-3 2.56,-1.64 6.61,-2.67 8,-4 2.47,-2.37 3.88,-3.51 5,-6 0.17,-0.38 1.82,-0.52 2,-1 0.92,-2.38 0.17,-4.109 0,-7 -0.26,-1.409 -2.19,-1.14 -3,-2 -0.14,-2.949 5.08,-4.89 1,-6 -0.43,-2.76 3.73,-0.939 4,-3 1.01,-3.01 -2.23,-1.77 -4,-2 0.22,-0.779 0.84,-1.16 2,-1 -5.86,-3.17 -13.16,-0.97 -20,0 0.1,-2.57 3.9,-1.43 4,-4 -11.19,-0.89 -16.18,6.08 -24,11 -2.71,-0.62 -7.94,1.271 -9,-1 -2.4,-0.399 0.55,4.551 -3,3 0.49,-3.159 -1.8,-3.529 -1,-7 -1.17,0.17 -1.09,1.58 -1,3 -6.91,-4.02 2.17,-7.12 2,-13 3.83,-1.17 4.43,-5.57 8,-7 -0.13,-2.47 -0.15,-4.82 1,-6 2.62,-0.28 4.3,0.36 4,3 1.21,-3.85 1.03,-12.24 6,-15 6,-0.67 9.14,1.53 12,4 0.18,-3.51 -3.38,-3.29 -4,-6 -2.92,0.29 -4.82,-0.4 -7,0 -3.09,0.57 -4.37,4.4 -7,2 -2.89,1.78 -3.28,6.05 -8,6 2.68,-3.51 1.12,-5.75 2,-10 1.15,1.78 3.45,4.56 6,2 -3.01,-5.32 -10.41,-6.25 -18,-7 -0.02,-4.02 5.22,-2.78 9,-3 2.57,1.76 4.32,4.35 7,6 1.71,-0.41 -0.21,-1.29 0,-3 2.51,1.49 5.51,2.49 7,5 1.9,-0.43 2.51,-2.15 5,-2 -0.24,-1.76 -1.72,-2.28 -4,-2 5.76,-3.53 8.92,7.64 15,4 3.45,3.22 5.22,8.12 9,11 -0.26,2.34 -4.39,0.58 -5,0 -3.91,2.96 -2.07,7.75 -2,13 1.76,-0.24 2.28,-1.72 2,-4 1.48,0.19 0.92,2.42 1,4 1.76,-0.24 2.28,-1.72 2,-4 3.65,2.09 0.49,4.78 0,8 3.42,1.63 3,-0.12 5,-2 1.8,-0.13 2.34,0.99 2,3 3.1,1.31 2.85,-0.27 7,0 1.55,-3.56 -3.4,-0.6 -3,-3 -0.15,-1.85 -3.39,-0.61 -4,-2 2.66,-3.67 9.94,-2.73 11,-8 2.91,1.4 -1.77,3.44 -1,6 3.16,-1.18 3.48,-5.19 6,-7 -0.07,-2.93 -2.29,-3.71 -4,-5 1.13,-1.2 2.85,-1.81 2,-5 2.49,0.11 3.1,1.87 5,0 -0.55,-1.45 1.17,-5.17 -1,-5 5.28,-0.56 2.19,-9.95 6,-10 0,0.67 0,1.33 0,2 1.26,-0.25 1.01,-1.99 0,-2 0,-1 0,-2 0,-3 -1.89,-0.22 -2.21,1.13 -4,1 -0.57,-6.77 -0.99,-13.68 -5,-17 -2.4,-0.4 0.55,4.55 -3,3 -0.28,2.28 0.24,3.76 2,4 -2.31,2.24 -5.46,-3.15 -5,-7 2.57,2.59 4.24,-0.84 5,-3 -1.94,0.14 -1.39,-1.73 -3,-4 -2.38,0.63 0.16,6.15 -2,7 -1.73,-1.63 -0.06,-4.02 -1,-6 -0.46,-0.96 -2.18,-1.95 -3,-3 -3.44,0.23 -4.36,2.98 -5,6 -1.93,-1.85 -0.79,-1.83 -4,-1 -0.54,-3.54 3.54,-2.46 3,-6 -0.24,-1.43 -1.65,-1.69 -2,-3 -3.6,-0.6 -2.95,3.05 -6,3 0,-1 0,-2 0,-3 -2.66,-1.67 -4.94,-3.73 -10,-3 1.18,-5.85 -5.55,-3.78 -8,-6 0.43,-4.71 4.51,1.41 7,1 6.19,-0.53 10.32,1.01 13,4 5.77,-0.11 9.86,1.48 13,4 2.09,-1.51 -3.84,-3.43 -3,-7 -1.72,0.05 -2.56,-0.77 -3,-2 -1.22,0.11 -2.37,0.3 -2,2 -1.06,-1.94 -4.61,-1.39 -6,-3 1.45,-0.62 -0.1,-1.21 0,0 -2.52,-1.82 -6.85,-1.82 -7,-6 -3.37,1.72 -3.96,-1.97 -4,-2 -0.66,-0.42 -2.24,0.23 -3,0 -0.38,-0.11 -1.48,-1.83 -2,-2 -5.77,-1.91 -6.17,-0.25 -10,1 1.91,-2.02 -1.89,-3.99 -5,-4 1.39,-2.28 6.96,-0.37 10,-1 0.11,1.89 3.31,0.69 3,3 2.81,-1.45 4.69,-0.54 8,0 0.91,0.15 0.65,0.87 1,1 0.79,0.3 2.07,-0.99 2,-1 1.26,0.25 2.86,1.62 4,2 2.01,0.67 4.67,0.36 6,1 1.14,0.55 2.97,3.47 5,5 0.42,0.31 1.51,-0.22 2,0 0.29,0.13 0.67,1.75 1,2 3.08,2.36 2.98,1.73 4,4 0.12,0.27 1.75,0.7 2,1 2.31,2.77 3.65,3.11 6,5 3.59,2.88 6.05,7.46 10,9 2.87,7.13 5.1,14.9 10,20 -1.81,4.07 1.95,7.08 2,10 0.14,8.65 -7.13,13.98 -7,24 -2.24,2.16 -4.14,5.92 -5,8 -1.55,3.74 -2.97,5.98 -5,9 -1.21,1.79 -3.25,3.06 -4,5 -0.88,2.271 -0.32,4.891 -1,7 -0.22,0.69 -1.92,1.87 -2,3 -0.3,4.141 0.09,7.181 1,9 1.25,2.49 1.88,4.23 3,7 1.04,2.57 2.58,3.681 4,6 0.77,1.261 0.2,2.801 1,4 0.55,0.82 2.47,1.141 3,2 0.3,0.48 -0.29,1.511 0,2 3.55,6.03 8.26,11.17 11,16 2.93,0.9 3.07,0.9 6,0 2.849,9.48 9.28,15.39 12,25 z m -4,-1 c 0.4,-4.729 -2.06,-6.6 -5,-8 -0.89,1.78 -2.79,2.54 -2,6 3.16,-0.16 3.34,2.66 7,2 z m -7,-11 c -0.24,-4.43 -1.07,-8.26 -5,-9 -3.7,1.971 -7.18,4.15 -8,9 3.6,0.73 4.85,3.82 10,3 0.559,-1.44 1.559,-2.44 3,-3 z m -20,-132 c 0.28,0.28 1.52,-0.48 1,-1 -0.28,-0.28 -1.52,0.48 -1,1 z m -2,6 c 0.28,0.28 1.52,-0.48 1,-1 -0.28,-0.28 -1.52,0.48 -1,1 z m 0,-5 c 0.29,-0.61 2.49,-3.85 0,-4 -0.29,0.61 -2.49,3.85 0,4 z m -15,43 c 1.12,-0.1 1.56,1.45 2,0 -0.01,-1.01 -1.75,-1.26 -2,0 z m -16,123 c 0.83,-7.489 -2.67,-10.659 -3,-17 -14.45,0.39 0.01,13.05 3,17 z m -3,-124 c -1,0 -2,0 -3,0 0.73,2.73 -1.99,2.01 -2,4 2.35,0.31 0.59,4.74 4,4 0.71,-2.39 0.47,-3.68 1,-8 z m -4,-6 c 3,-0.2 -0.96,-4.15 0,0 -1.9,0.43 -2.51,2.15 -5,2 0.08,6.08 -4.92,7.08 -6,12 5.03,-0.3 6.13,-4.54 7,-9 1.71,-1.29 3.93,-2.07 4,-5 z m -2,-1 c 0.55,-0.55 0.03,-2.03 -1,-1 -0.55,0.55 -0.03,2.03 1,1 z m -5,130 c 0.02,-2.87 3.5,-13.609 -1,-14 -0.17,1.16 -1.58,1.091 -3,1 0.03,5.64 1.559,9.77 4,13 z m -3,-120 c 0.76,-6.91 3.91,-11.43 6,-17 -1.91,-0.43 -1.81,-2.86 -5,-2 -2.83,1.57 2.26,5.36 -1,7 -2.4,0.4 0.55,-4.56 -3,-3 0.71,5.28 1.36,10.64 3,15 z m -15,6 c 6.66,-0.36 14.88,-4.44 11,-12 0.26,3.9 -3.11,3.19 -4,1 -0.97,5.69 -7.45,5.88 -9,11 0.67,0 1.33,0 2,0 -0.58,1.76 1.21,5.88 -1,6 -2.31,0.31 -1.11,-2.89 -3,-3 -2.14,2.04 0.28,3.959 1,6 4.35,1.021 4.6,-2.069 7,-3 2.98,-0.35 6.09,-0.58 7,-3 -4.02,-1.61 -7.32,2.58 -8,1 -0.21,-5.34 4.48,0.02 6,-4 -3,0 -6,0 -9,0 z m 10,0 c 0.28,0.28 1.52,-0.48 1,-1 -0.28,-0.28 -1.52,0.48 -1,1 z m -2,97 c -1.5,0.17 -3.69,-0.359 -4,1 1.5,-0.17 3.69,0.36 4,-1 z m -2,28 c 0.49,-3.779 0.36,-14.81 -1,-20 -10.26,-1.96 -10.3,23.169 1,20 z"
               inkscape:connector-curvature="0"
               style="fill:#ffffff" />
            <path
               id="path4408"
               d="m 230.422,37.25 c 0.87,5.33 -1.86,9.14 -9,9 -2.71,5.29 -1.88,14.12 -9,15 0.37,-6.02 6.97,-10.5 2,-16 -4.47,0.86 -5.22,5.45 -10,6 -0.5,-2.73 2.82,-4.48 4,-6 3.66,-4.72 8.49,-9.82 13,-15 2.54,1.27 8.39,3.26 9,7 z m -4,5 c -0.22,-1.89 1.13,-2.21 1,-4 -2.22,-6.75 -10.41,-2.85 -9,5 2.88,-0.12 6.55,0.55 8,-1 z"
               inkscape:connector-curvature="0"
               style="fill:#ffffff" />
            <path
               id="path4410"
               d="m 224.422,222.25 c 2.94,1.4 5.4,3.271 5,8 -3.66,0.66 -3.84,-2.159 -7,-2 -0.79,-3.46 1.11,-4.22 2,-6 z"
               inkscape:connector-curvature="0"
               style="fill:#fab017" />
            <path
               id="path4412"
               d="m 227.422,38.25 c 0.13,1.79 -1.22,2.11 -1,4 -1.45,1.55 -5.12,0.88 -8,1 -1.41,-7.85 6.78,-11.75 9,-5 z"
               inkscape:connector-curvature="0"
               style="fill:#fab017" />
            <path
               id="path4414"
               d="m 217.422,210.25 c 3.93,0.74 4.76,4.57 5,9 -1.44,0.561 -2.44,1.561 -3,3 -5.15,0.82 -6.4,-2.27 -10,-3 0.82,-4.85 4.3,-7.03 8,-9 z"
               inkscape:connector-curvature="0"
               style="fill:#fab017" />
            <path
               id="path4416"
               d="m 215.422,25.25 c -2.96,2.89 -6.95,-1.67 -10,-2 -2.64,0.7 -2.11,4.55 -5,5 -0.48,3.15 3.07,2.26 2,6 -9.04,-2.04 -4.59,9.41 -13,8 4.15,-8.19 8.83,-15.83 14,-23 6,0 8.18,3.82 12,6 z"
               inkscape:connector-curvature="0"
               style="fill:#ffffff" />
            <path
               id="path4418"
               d="m 203.422,98.25 c 1.01,0.01 1.26,1.75 0,2 0,-0.67 0,-1.33 0,-2 z"
               inkscape:connector-curvature="0"
               style="fill:#fab017" />
            <path
               id="path4420"
               d="m 203.422,86.25 c 0.52,0.52 -0.72,1.28 -1,1 -0.52,-0.52 0.72,-1.28 1,-1 z"
               inkscape:connector-curvature="0"
               style="fill:#fab017" />
            <path
               id="path4422"
               d="m 201.422,92.25 c 0.52,0.52 -0.72,1.28 -1,1 -0.52,-0.52 0.72,-1.28 1,-1 z"
               inkscape:connector-curvature="0"
               style="fill:#fab017" />
            <path
               id="path4424"
               d="m 200.422,84.25 c 2.49,0.15 0.29,3.39 0,4 -2.49,-0.15 -0.29,-3.39 0,-4 z"
               inkscape:connector-curvature="0"
               style="fill:#fab017" />
            <path
               id="path4426"
               d="m 190.422,72.25 c 1.61,2.27 1.06,4.14 3,4 -0.76,2.16 -2.43,5.59 -5,3 2.16,-0.85 -0.38,-6.37 2,-7 z"
               inkscape:connector-curvature="0"
               style="fill:#fab017" />
            <path
               id="path4428"
               d="m 188.422,204.25 c 0.24,-1.76 1.72,-2.279 4,-2 -0.66,1.34 -2.14,1.86 -4,2 z"
               inkscape:connector-curvature="0"
               style="fill:#ffffff" />
            <path
               id="path4430"
               d="m 184.422,202.25 c 0.14,-2.859 4.17,-1.83 7,-2 -1.18,1.82 -5.21,0.79 -7,2 z"
               inkscape:connector-curvature="0"
               style="fill:#ffffff" />
            <path
               id="path4432"
               d="m 180.422,30.25 c -0.52,5.52 8.35,1.65 7,8 -4.35,-0.65 -7.53,-2.47 -12,-3 2.33,-9.01 4.91,-17.76 9,-25 2.09,-0.42 2.65,0.69 4,1 -2.74,6.26 -5.77,12.23 -8,19 z"
               inkscape:connector-curvature="0"
               style="fill:#ffffff" />
            <path
               id="path4434"
               d="m 187.422,131.25 c -0.44,1.45 -0.88,-0.1 -2,0 0.25,-1.26 1.99,-1.01 2,0 z"
               inkscape:connector-curvature="0"
               style="fill:#fab017" />
            <path
               id="path4436"
               d="m 185.422,74.25 c 1.78,0.73 0.14,1.82 0,3 -1.78,-0.73 -0.14,-1.82 0,-3 z"
               inkscape:connector-curvature="0"
               style="fill:#ffffff" />
            <path
               id="path4438"
               d="m 184.422,183.25 c -0.2,2.99 -4.151,-0.96 0,0 z"
               inkscape:connector-curvature="0"
               style="fill:#ffffff" />
            <path
               id="path4440"
               d="m 181.422,146.25 c 0.099,1.209 -1.45,0.61 0,0 z"
               inkscape:connector-curvature="0"
               style="fill:#ffffff" />
            <path
               id="path4442"
               d="m 173.422,168.25 c 0.44,-1.229 1.28,-2.05 3,-2 -0.441,1.23 -1.28,2.05 -3,2 z"
               inkscape:connector-curvature="0"
               style="fill:#ffffff" />
            <path
               id="path4444"
               d="m 174.422,93.25 c 1.21,-0.1 0.62,1.45 0,0 z"
               inkscape:connector-curvature="0"
               style="fill:#ffffff" />
            <path
               id="path4446"
               d="m 174.422,121.25 c 0.52,0.52 -0.72,1.28 -1,1 -0.52,-0.52 0.72,-1.28 1,-1 z"
               inkscape:connector-curvature="0"
               style="fill:#ffffff" />
            <path
               id="path4448"
               d="m 174.422,93.25 c -1.21,0.1 -0.62,-1.45 0,0 z"
               inkscape:connector-curvature="0"
               style="fill:#ffffff" />
            <path
               id="path4450"
               d="m 171.422,56.25 c -0.1,-1.21 1.45,-0.62 0,0 z"
               inkscape:connector-curvature="0"
               style="fill:#fab017" />
            <path
               id="path4452"
               d="m 169.422,6.25 c 0.07,9.93 2.67,17.33 2,28 -7.37,-2.11 1.07,-16.56 -10,-16 -6.09,0.31 -3.02,8.75 -10,10 -0.96,-4.07 2.76,-8.22 5,-12 2.38,-4.01 4.72,-7.79 7,-11 3.059,-0.72 3.64,1.02 6,1 z m -3,10 c 0.74,-2.34 0.69,-5.63 -1,-8 -1.16,2.51 -3.98,3.35 -4,7 2.32,-0.32 3.84,0.16 5,1 z"
               inkscape:connector-curvature="0"
               style="fill:#ffffff" />
            <path
               id="path4454"
               d="m 169.422,225.25 c -0.1,-1.21 1.45,-0.621 0,0 z"
               inkscape:connector-curvature="0"
               style="fill:#ffffff" />
            <path
               id="path4456"
               d="m 166.422,237.25 c 0.33,6.341 3.83,9.511 3,17 -2.99,-3.95 -17.45,-16.61 -3,-17 z"
               inkscape:connector-curvature="0"
               style="fill:#fab017" />
            <path
               id="path4458"
               d="m 169.422,225.25 c -0.2,2.99 -4.151,-0.96 0,0 z"
               inkscape:connector-curvature="0"
               style="fill:#ffffff" />
            <path
               id="path4460"
               d="m 168.422,165.25 c 0.52,0.521 -0.72,1.28 -1,1 -0.52,-0.52 0.72,-1.28 1,-1 z"
               inkscape:connector-curvature="0"
               style="fill:#ffffff" />
            <path
               id="path4462"
               d="m 165.422,8.25 c 1.69,2.37 1.74,5.66 1,8 -1.16,-0.84 -2.68,-1.32 -5,-1 0.019,-3.65 2.84,-4.49 4,-7 z"
               inkscape:connector-curvature="0"
               style="fill:#fab017" />
            <path
               id="path4464"
               d="m 163.422,130.25 c 1,0 2,0 3,0 -0.53,4.32 -0.29,5.61 -1,8 -3.41,0.74 -1.65,-3.69 -4,-4 0.01,-1.99 2.73,-1.27 2,-4 z"
               inkscape:connector-curvature="0"
               style="fill:#fab017" />
            <path
               id="path4466"
               d="m 158.422,229.25 c 1.73,-1.27 2.62,-3.38 6,-3 -0.91,2.09 -2.95,3.05 -6,3 z"
               inkscape:connector-curvature="0"
               style="fill:#ffffff" />
            <path
               id="path4468"
               d="m 162.422,124.25 c -0.96,-4.15 3,-0.2 0,0 z"
               inkscape:connector-curvature="0"
               style="fill:#fab017" />
            <path
               id="path4470"
               d="m 162.422,124.25 c -0.07,2.93 -2.29,3.71 -4,5 -0.87,4.46 -1.97,8.7 -7,9 1.08,-4.92 6.08,-5.92 6,-12 2.49,0.15 3.099,-1.57 5,-2 z"
               inkscape:connector-curvature="0"
               style="fill:#fab017" />
            <path
               id="path4472"
               d="m 159.422,122.25 c 1.03,-1.03 1.55,0.45 1,1 -1.03,1.03 -1.55,-0.45 -1,-1 z"
               inkscape:connector-curvature="0"
               style="fill:#fab017" />
            <path
               id="path4474"
               d="m 160.422,189.25 c 0.52,0.521 -0.72,1.28 -1,1 -0.52,-0.52 0.72,-1.28 1,-1 z"
               inkscape:connector-curvature="0"
               style="fill:#ffffff" />
            <path
               id="path4476"
               d="m 163.422,93.25 c -2.63,-1.37 -3.79,-4.21 -7,-5 -0.35,0.1 -1.24,9.18 3,8 -4.78,5.93 -5.33,-7.39 -12,-6 1.49,-4.46 4.49,0.58 7,1 -0.33,-2.33 -1.03,-4.31 -3,-5 4.349,-1.99 10.98,2.33 12,7 z"
               inkscape:connector-curvature="0"
               style="fill:#ffffff" />
            <path
               id="path4478"
               d="m 156.422,103.25 c 0.98,-3.07 2.67,1.15 4,1 -0.981,3.06 -3.37,-0.45 -4,-1 z"
               inkscape:connector-curvature="0"
               style="fill:#ffffff" />
            <path
               id="path4480"
               d="m 155.422,65.25 c -0.3,-2.64 1.38,-3.28 4,-3 -0.87,1.46 -1.5,3.17 -4,3 z"
               inkscape:connector-curvature="0"
               style="fill:#ffffff" />
            <path
               id="path4482"
               d="m 157.422,188.25 c -0.1,-1.21 1.45,-0.621 0,0 z"
               inkscape:connector-curvature="0"
               style="fill:#ffffff" />
            <path
               id="path4484"
               d="m 156.422,189.25 c 0.06,-0.609 0.15,-1.18 1,-1 -0.06,0.61 -0.151,1.18 -1,1 z"
               inkscape:connector-curvature="0"
               style="fill:#ffffff" />
            <path
               id="path4486"
               d="m 154.422,192.25 c -2.49,-0.409 -0.06,-3.88 2,-3 -0.24,1.43 -1.651,1.69 -2,3 z"
               inkscape:connector-curvature="0"
               style="fill:#ffffff" />
            <path
               id="path4488"
               d="m 154.422,239.25 c 4.5,0.391 1.02,11.13 1,14 -2.44,-3.229 -3.97,-7.359 -4,-13 1.42,0.09 2.83,0.16 3,-1 z"
               inkscape:connector-curvature="0"
               style="fill:#fab017" />
            <path
               id="path4490"
               d="m 158.422,116.25 c -2.09,5.57 -5.24,10.09 -6,17 -1.64,-4.36 -2.29,-9.72 -3,-15 3.55,-1.56 0.6,3.4 3,3 3.26,-1.64 -1.83,-5.43 1,-7 3.19,-0.86 3.09,1.57 5,2 z"
               inkscape:connector-curvature="0"
               style="fill:#fab017" />
            <path
               id="path4492"
               d="m 148.422,53.25 c 1.21,-0.1 0.62,1.45 0,0 z"
               inkscape:connector-curvature="0"
               style="fill:#ffffff" />
            <path
               id="path4494"
               d="m 148.422,127.25 c 3.88,7.56 -4.34,11.64 -11,12 -0.67,0 -1.33,0 -2,0 1.55,-5.12 8.03,-5.31 9,-11 0.89,2.19 4.26,2.9 4,-1 z"
               inkscape:connector-curvature="0"
               style="fill:#fab017" />
            <path
               id="path4496"
               d="m 147.422,197.25 c 0.25,-1.26 1.99,-1.01 2,0 -0.89,0.61 -1.79,1.209 -2,0 z"
               inkscape:connector-curvature="0"
               style="fill:#ffffff" />
            <path
               id="path4498"
               d="m 148.422,138.25 c 0.52,0.52 -0.72,1.28 -1,1 -0.52,-0.52 0.72,-1.28 1,-1 z"
               inkscape:connector-curvature="0"
               style="fill:#fab017" />
            <path
               id="path4500"
               d="m 148.422,92.25 c -0.03,0.97 -1.22,0.78 -2,1 0.03,-0.97 1.22,-0.78 2,-1 z"
               inkscape:connector-curvature="0"
               style="fill:#ffffff" />
            <path
               id="path4502"
               d="m 140.422,143.25 c 0.68,1.58 3.98,-2.61 8,-1 -0.91,2.42 -4.02,2.65 -7,3 -2.4,0.93 -2.65,4.02 -7,3 -0.72,-2.04 -3.14,-3.959 -1,-6 1.89,0.11 0.69,3.31 3,3 2.21,-0.12 0.42,-4.24 1,-6 3,0 6,0 9,0 -1.52,4.02 -6.21,-1.34 -6,4 z"
               inkscape:connector-curvature="0"
               style="fill:#fab017" />
            <path
               id="path4504"
               d="m 146.422,83.25 c 0.47,2.13 -1.43,1.9 -3,2 0.19,-0.81 1,-1 1,-2 0.67,0 1.33,0 2,0 z"
               inkscape:connector-curvature="0"
               style="fill:#ffffff" />
            <path
               id="path4506"
               d="m 142.422,202.25 c 0.87,-1.46 1.5,-3.17 4,-3 -0.87,1.459 -1.5,3.169 -4,3 z"
               inkscape:connector-curvature="0"
               style="fill:#ffffff" />
            <path
               id="path4508"
               d="m 148.422,58.25 c -0.44,1.23 -1.28,2.05 -3,2 -0.47,-2.13 1.43,-1.91 3,-2 z"
               inkscape:connector-curvature="0"
               style="fill:#ffffff" />
            <path
               id="path4510"
               d="m 145.422,47.25 c -0.87,3.87 2.44,3.56 3,6 -4.08,-0.58 -8.41,-0.92 -8,-6 3.08,0.7 1.92,0.7 5,0 z"
               inkscape:connector-curvature="0"
               style="fill:#ffffff" />
            <path
               id="path4512"
               d="m 141.422,237.25 c 0.31,-1.359 2.5,-0.83 4,-1 -0.31,1.36 -2.5,0.83 -4,1 z"
               inkscape:connector-curvature="0"
               style="fill:#fab017" />
            <path
               id="path4514"
               d="m 142.422,244.25 c 1.36,5.19 1.49,16.221 1,20 -11.3,3.169 -11.26,-21.96 -1,-20 z"
               inkscape:connector-curvature="0"
               style="fill:#fab017" />
            <path
               id="path4516"
               d="m 143.422,98.25 c 0.18,1.64 -2.75,1.29 -3,-1 -0.26,-2.36 2.93,0.36 3,1 z"
               inkscape:connector-curvature="0"
               style="fill:#ffffff" />
            <path
               id="path4518"
               d="m 141.422,102.25 c 0.52,0.52 -0.72,1.28 -1,1 -0.52,-0.52 0.72,-1.28 1,-1 z"
               inkscape:connector-curvature="0"
               style="fill:#ffffff" />
            <path
               id="path4520"
               d="m 141.422,108.25 c 0.52,0.52 -0.72,1.28 -1,1 -0.52,-0.52 0.72,-1.28 1,-1 z"
               inkscape:connector-curvature="0"
               style="fill:#ffffff" />
            <path
               id="path4522"
               d="m 139.422,59.25 c -0.19,1.13 -1,0.55 -1,0 0.19,-1.14 1,-0.56 1,0 z"
               inkscape:connector-curvature="0"
               style="fill:#ffffff" />
            <path
               id="path4524"
               d="m 138.422,108.25 c -3,-0.2 0.96,-4.15 0,0 z"
               inkscape:connector-curvature="0"
               style="fill:#ffffff" />
            <path
               id="path4526"
               d="m 139.422,55.25 c -3.82,3.1 -5.8,-4.16 -12,-2 -0.31,-2.36 -3.47,-1.86 -3,-5 4.99,0.27 10.11,3.9 15,7 z"
               inkscape:connector-curvature="0"
               style="fill:#ffffff" />
            <path
               id="path4528"
               d="m 136.422,40.25 c -0.03,0.97 -1.22,0.78 -2,1 0.03,-0.97 1.22,-0.78 2,-1 z"
               inkscape:connector-curvature="0"
               style="fill:#ffffff" />
            <path
               id="path4530"
               d="m 138.422,17.25 c -0.88,3.46 -5.52,3.14 -6,7 -3.56,-0.1 -2.29,-5.05 -6,-5 0.22,-4.12 5.88,-2.79 4,-9 1,0 2,0 3,0 -1.18,5.18 3.83,4.17 5,7 z"
               inkscape:connector-curvature="0"
               style="fill:#ffffff" />
            <path
               id="path4532"
               d="m 133.422,155.25 c 0.52,0.521 -0.72,1.28 -1,1 -0.52,-0.52 0.72,-1.28 1,-1 z"
               inkscape:connector-curvature="0"
               style="fill:#ffffff" />
            <path
               id="path4534"
               d="m 132.422,165.25 c 0.52,0.521 -0.72,1.28 -1,1 -0.52,-0.52 0.72,-1.28 1,-1 z"
               inkscape:connector-curvature="0"
               style="fill:#ffffff" />
            <path
               id="path4536"
               d="m 131.422,205.25 c 3.21,2.5 -0.77,1.591 -2,3 -1.81,2.07 -4.4,8.03 -9,7 0.46,-6.541 8.63,-5.371 11,-10 z"
               inkscape:connector-curvature="0"
               style="fill:#ffffff" />
            <path
               id="path4538"
               d="m 131.422,171.25 c 0.52,0.521 -0.72,1.28 -1,1 -0.52,-0.52 0.72,-1.28 1,-1 z"
               inkscape:connector-curvature="0"
               style="fill:#ffffff" />
            <path
               id="path4540"
               d="m 130.422,157.25 c -0.19,1.13 -1,0.561 -1,0 0.19,-1.14 1,-0.56 1,0 z"
               inkscape:connector-curvature="0"
               style="fill:#ffffff" />
            <path
               id="path4542"
               d="m 130.422,105.25 c -0.03,0.97 -1.22,0.78 -2,1 0.03,-0.97 1.22,-0.78 2,-1 z"
               inkscape:connector-curvature="0"
               style="fill:#ffffff" />
            <path
               id="path4544"
               d="m 130.422,56.25 c -3.45,2.07 -7.82,-3.49 -14,-2 0.3,-2.63 -3.88,-0.79 -3,-4 1.87,1.96 3.66,0.31 6,0 2.01,3.66 7.7,3.64 11,6 z"
               inkscape:connector-curvature="0"
               style="fill:#ffffff" />
            <path
               id="path4546"
               d="m 128.422,39.25 c 0.52,0.52 -0.72,1.28 -1,1 -0.52,-0.52 0.72,-1.28 1,-1 z"
               inkscape:connector-curvature="0"
               style="fill:#ffffff" />
            <path
               id="path4548"
               d="m 121.422,162.25 c 3.59,0.83 4.84,-2.26 7,0 -3.11,1.15 -0.7,4.19 1,6 -1.49,1.17 -1.18,4.15 -4,4 -0.02,-2.649 0.55,-5.89 -2,-6 -2.82,1.011 0.28,4.25 0,6 -1.89,0.221 -2.21,-1.13 -4,-1 -0.22,1.891 1.13,2.21 1,4 -4.29,0.99 -6.65,2.37 -11,1 0.08,-3.59 6.54,-0.8 8,-3 -1.47,-2.359 -2.11,-1.859 -1,-5 4.87,0.5 6.36,-2.97 5,-6 z"
               inkscape:connector-curvature="0"
               style="fill:#ffffff" />
            <path
               id="path4550"
               d="m 125.422,150.25 c -0.1,-1.21 1.45,-0.621 0,0 z"
               inkscape:connector-curvature="0"
               style="fill:#ffffff" />
            <path
               id="path4552"
               d="m 125.422,134.25 c 0.59,3.07 -2.51,3.11 -4,4 -1.51,0.9 -2.25,3.21 -5,2 0.92,-4.08 3.17,-6.84 9,-6 z"
               inkscape:connector-curvature="0"
               style="fill:#ffffff" />
            <path
               id="path4554"
               d="m 125.422,39.25 c 0.17,2.17 -3.55,0.45 -5,1 0.1,-2.54 3.73,-2.36 5,-1 z"
               inkscape:connector-curvature="0"
               style="fill:#ffffff" />
            <path
               id="path4556"
               d="m 125.422,150.25 c 0,2.67 0,5.33 0,8 -2.64,-1.081 -2.64,-6.92 0,-8 z"
               inkscape:connector-curvature="0"
               style="fill:#ffffff" />
            <path
               id="path4558"
               d="m 123.422,58.25 c 1.05,0.05 0.79,1.28 -1,1 -2.97,-0.97 -5.42,0.88 -8,1 -2.3,0.11 -4.45,-1.22 -6,-1 -1.43,0.21 -2.29,1.62 -4,2 -1.25,0.27 -2.79,-0.38 -4,0 -5.61,1.73 -8.67,4.32 -11,7 -0.32,0.37 -1.8,0.73 -2,1 -0.64,0.87 0.5,3.02 0,4 -0.13,0.26 -1.74,-0.19 -2,0 -1.14,0.81 -0.85,4.04 -1,5 -0.37,2.35 -4.23,6.67 -7,9 0,2.33 0,4.67 0,7 2.67,0 5.33,0 8,0 1.4,2.26 4.05,3.29 5,6 3.93,1.41 7.97,2.69 9,7 3.96,-1.29 2.04,3.29 6,2 -2.09,2.82 2.74,5.4 7,5 -3.45,2.75 -5.16,3.23 -10,2 -2.53,3.81 -8.44,4.23 -11,8 -3.53,-1.29 4.63,-4.85 -2,-4 2.64,-1.7 5.71,-2.96 10,-3 1.34,-0.66 1.86,-2.14 2,-4 -2.69,-2.44 -5.59,1.13 -8,-2 -1.43,0.24 -1.69,1.65 -3,2 0,2.09 -4.25,4.76 -6,8 0.87,1.46 0.79,3.87 4,3 -0.15,2.19 -2.52,2.15 -5,2 -2.39,-7.25 0.13,-15.04 0,-23 -0.74,-3.44 -5.4,5.3 -5,0 -3.37,3.3 -5.35,7.98 -11,9 1.92,-3.75 6.35,-4.99 8,-9 -1.31,-3.36 -1.9,-7.44 -4,-10 0.82,-6.18 3.33,-10.67 8,-13 4.59,-11.74 12.44,-20.23 25,-24 -0.31,-2.35 -4.74,-0.59 -4,-4 3.21,2.67 7.96,-0.1 5,-4 2.02,1.64 3.99,3.34 4,7 5.4,0.27 7.02,4.32 14,3 z m -31,50 c 1.29,0.87 3.75,4.86 5,2 -3.71,-1.29 -3.71,-6.29 -9,-6 -1.6,3.38 2.42,2.93 4,4 z m -6,0 c -0.46,3.12 2.14,3.2 5,3 -0.41,-4.3 -3.42,-1.33 -5,-3 z"
               inkscape:connector-curvature="0"
               style="fill:#ffffff" />
            <path
               id="path4560"
               d="m 122.422,177.25 c 3.12,2.23 -1.97,4.62 -2,7 -0.8,-0.529 -1.62,-1.04 -3,-1 -1.07,-3.739 2.48,-2.85 2,-6 0.81,0.69 2.74,1.56 3,0 z"
               inkscape:connector-curvature="0"
               style="fill:#ffffff" />
            <path
               id="path4562"
               d="m 122.422,209.25 c 0.52,0.521 -0.72,1.28 -1,1 -0.52,-0.52 0.72,-1.28 1,-1 z"
               inkscape:connector-curvature="0"
               style="fill:#ffffff" />
            <path
               id="path4564"
               d="m 120.422,157.25 c 0.52,0.521 -0.72,1.28 -1,1 -0.52,-0.52 0.72,-1.28 1,-1 z"
               inkscape:connector-curvature="0"
               style="fill:#ffffff" />
            <path
               id="path4566"
               d="m 120.422,105.25 c 0,0.67 0,1.33 0,2 -0.67,0 -1.33,0 -2,0 0,-0.67 0,-1.33 0,-2 0.67,0 1.33,0 2,0 z"
               inkscape:connector-curvature="0"
               style="fill:#ffffff" />
            <path
               id="path4568"
               d="m 116.422,164.25 c 0.52,0.521 -0.72,1.28 -1,1 -0.52,-0.52 0.72,-1.28 1,-1 z"
               inkscape:connector-curvature="0"
               style="fill:#ffffff" />
            <path
               id="path4570"
               d="m 111.422,43.25 c 0.44,-1.23 1.28,-2.05 3,-2 -0.44,1.23 -1.28,2.05 -3,2 z"
               inkscape:connector-curvature="0"
               style="fill:#ffffff" />
            <path
               id="path4572"
               d="m 114.422,189.25 c -1.67,0 -3.33,0 -5,0 -0.04,1.38 0.47,2.19 1,3 -4.32,-2.52 -7.51,0.04 -12,-2 -2.8,1.29 3.15,2.07 2,5 5.15,-1.38 3.47,1.771 9,0 -0.1,2.57 -3.9,1.431 -4,4 0.18,3.16 0.7,5.96 4,6 -0.01,3.641 1.23,6.32 2,8 0.57,1.23 0.94,5.141 3,4 -3.59,2.75 -5.75,6.91 -11,8 -0.11,-1.22 -0.3,-2.37 -2,-2 0.8,-2.529 4.12,-2.55 6,-4 1.22,-4.46 -0.36,-8.8 -5,-10 0.35,-1.359 1.38,-1.899 1,-4 -0.33,-1.81 -2.62,-1.1 -3,-2 -0.31,-0.739 1.29,-1.56 1,-2 -1.86,-2.77 -5.46,-6.04 -10,-6 -0.3,-3.67 -4.72,-3.479 -7,-5 -2.2,-1.46 -3.63,-4.1 -6,-5 -4,0.33 -5.55,-1.779 -10,-1 -3.6,-4.06 -9.42,-4.43 -12,-8 -0.45,-0.62 0.29,-2.27 0,-3 -0.28,-0.71 -1.77,-0.81 -2,-2 -0.29,-1.51 1.9,-3.56 2,-6 0.08,-1.859 -1.23,-2.26 -1,-4 0.01,-0.08 1.91,-0.779 2,-1 0.72,-1.68 -1.5,-2.37 -1,-4 1.46,-0.87 3.17,-1.5 3,-4 0.86,-3.189 -1.57,-3.09 -2,-5 -0.76,-5.43 1.23,-8.1 1,-13 -2.16,-1.51 -3.65,-3.68 -5,-6 -0.29,-6.24 3.15,-7.6 6,-10 2.38,-2 4.3,-4.59 7,-5 -2.65,4.68 -8.41,6.26 -9,13 3.25,4.08 11.35,3.32 17,5 2.08,-0.26 0.27,-4.39 2,-5 1.72,-0.39 2.56,1.48 3,0 2.02,0.82 -0.63,5.27 -1,7 1.4,4.94 0.97,11.69 1,18 -2.38,-3.62 -2.95,-9.05 -4,-14 -0.79,-2.6 -3.21,-0.97 -5,-2 -0.58,-0.33 -0.22,-2.58 -1,-3 -1.03,-0.56 -2.9,0.43 -4,0 0.66,1.34 2.14,1.86 4,2 -3.25,1.89 -5.71,-0.62 -8,3 4.66,0.89 -0.19,5.06 4,6 -0.05,1.72 0.77,2.56 2,3 0.71,2.271 -2.62,2.86 -2,5 0.02,0.08 1.94,1.79 2,1 -0.11,1.511 -1.49,0.21 -2,1 -3.3,5.091 4.96,6.95 3,12 -0.78,-0.22 -1.16,-0.84 -1,-2 -2.19,1.16 -3.82,5.88 -7,3 -1.07,2.53 2.48,6.08 2,2 2.52,4.24 14.15,7.54 16,1 2.19,0.15 2.15,2.521 2,5 1.74,-0.08 3.11,0.221 4,1 2.08,-0.26 0.27,-4.39 2,-5 3.89,3.16 5.56,-2.58 7,-5 2.92,3.971 -3.09,7.54 -4,11 0.8,2.011 4.12,-1.79 6,-2 0.1,-1.569 -0.13,-3.47 2,-3 -1.15,2.521 -1.62,5.71 -4,7 0.4,1.931 4.58,0.091 3,4 7.62,1.28 9.11,-3.56 13,-6 0.22,0.78 0.84,1.16 2,1 0.4,4.061 -4.26,3.08 -5,6 -1.24,3.23 3.24,0.761 2,4 3.16,0.09 5.96,-2.67 6,2 z m -15,-3 c 0.28,0.28 1.52,-0.479 1,-1 -0.28,-0.28 -1.52,0.48 -1,1 z m -6,-5 c -1.97,1.42 2.8,7.94 5,5 -1.84,-1.5 -2.49,-4.17 -5,-5 z"
               inkscape:connector-curvature="0"
               style="fill:#ffffff" />
            <path
               id="path4574"
               d="m 106.422,170.25 c 0.29,-3.27 7.55,-2.479 7,1 -1.29,-1.38 -4.34,-0.99 -7,-1 z"
               inkscape:connector-curvature="0"
               style="fill:#ffffff" />
            <path
               id="path4576"
               d="m 114.422,48.25 c -2.36,3.22 -4.04,-3.52 0,0 z"
               inkscape:connector-curvature="0"
               style="fill:#ffffff" />
            <path
               id="path4578"
               d="m 112.422,142.25 c 4.33,0.42 -1.05,5.8 0,0 z"
               inkscape:connector-curvature="0"
               style="fill:#ffffff" />
            <path
               id="path4580"
               d="m 110.422,224.25 c 0.56,-2.08 1.56,-2.12 3,-1 -0.17,1.16 -1.58,1.09 -3,1 z"
               inkscape:connector-curvature="0"
               style="fill:#ffffff" />
            <path
               id="path4582"
               d="m 108.422,101.25 c -0.51,4.84 4.58,4.08 3,10 -4.31,-1.36 -5.41,-5.92 -8,-9 -6.26,-1.08 -11.54,-3.13 -11,-11 1.42,0.09 2.83,0.16 3,-1 0.85,-0.18 0.94,0.39 1,1 -1.1,3.06 1.73,1.73 3,3 0.34,0.34 -0.32,1.63 0,2 1.18,1.35 4.17,0.71 3,4 2.36,-0.02 2.94,1.72 6,1 z"
               inkscape:connector-curvature="0"
               style="fill:#ffffff" />
            <path
               id="path4584"
               d="m 110.422,192.25 c 1.21,-0.1 0.61,1.45 0,0 z"
               inkscape:connector-curvature="0"
               style="fill:#ffffff" />
            <path
               id="path4586"
               d="m 110.422,224.25 c 0.18,2.181 -0.82,3.181 -3,3 0.56,-1.44 1.56,-2.44 3,-3 z"
               inkscape:connector-curvature="0"
               style="fill:#ffffff" />
            <path
               id="path4588"
               d="m 105.422,7.25 c 1.29,8.48 5.79,18.73 4,27 -5.05,-5.28 -4.53,-16.13 -7,-24 -1.2,-1.31 -0.39,-1.57 0,-3 1,0 2,0 3,0 z"
               inkscape:connector-curvature="0"
               style="fill:#ffffff" />
            <path
               id="path4590"
               d="m 104.422,218.25 c 0.52,0.521 -0.72,1.28 -1,1 -0.52,-0.52 0.72,-1.28 1,-1 z"
               inkscape:connector-curvature="0"
               style="fill:#ffffff" />
            <path
               id="path4592"
               d="m 104.422,174.25 c -0.03,0.971 -1.22,0.78 -2,1 0.03,-0.97 1.22,-0.78 2,-1 z"
               inkscape:connector-curvature="0"
               style="fill:#ffffff" />
            <path
               id="path4594"
               d="m 103.422,138.25 c -0.03,0.97 -1.22,0.78 -2,1 0.03,-0.97 1.22,-0.78 2,-1 z"
               inkscape:connector-curvature="0"
               style="fill:#ffffff" />
            <path
               id="path4596"
               d="m 101.422,44.25 c 0.25,-1.26 1.99,-1.01 2,0 -0.89,0.61 -1.79,1.21 -2,0 z"
               inkscape:connector-curvature="0"
               style="fill:#ffffff" />
            <path
               id="path4598"
               d="m 102.422,50.25 c 0.52,0.52 -0.72,1.28 -1,1 -0.52,-0.52 0.72,-1.28 1,-1 z"
               inkscape:connector-curvature="0"
               style="fill:#ffffff" />
            <path
               id="path4600"
               d="m 100.422,185.25 c 0.52,0.521 -0.72,1.28 -1,1 -0.52,-0.52 0.72,-1.28 1,-1 z"
               inkscape:connector-curvature="0"
               style="fill:#fab017" />
            <path
               id="path4602"
               d="m 98.422,224.25 c 0.28,-3.94 4.41,0.19 0,0 z"
               inkscape:connector-curvature="0"
               style="fill:#ffffff" />
            <path
               id="path4604"
               d="m 99.422,231.25 c 1.55,4.221 -5.55,-0.22 -4,4 -4.65,0.681 -6.77,3.891 -11,5 -1.51,4.49 1.19,13.19 -4,14 0.45,-3.8 -2.59,-7.12 0,-10 -4.1,0.08 -8.63,7.49 -12,2 5.06,-0.939 7.16,-4.84 12,-6 0,-3 0,-6 0,-9 -9.57,-1.1 -13.77,8.04 -12,15 -5.18,-0.1 -3.86,-5.149 -3,-9 -2.75,-3.01 -6.94,1 -10,1 -3.31,-0.35 -4.34,-3 -6,-5 0.72,-2.279 0.89,-5.109 2,-7 -3.14,-3.89 -7.44,3.11 -10,0 -0.01,-5.01 7.8,-2.199 10,-5 1.43,-0.239 1.69,-1.649 3,-2 1.75,-4.58 2.12,-10.55 7,-12 0.34,4.681 -2.16,6.511 -3,10 3.28,2.891 7.35,-1.939 12,-1 0.41,1.261 1.29,2.04 3,2 0.42,4.75 -1.45,7.21 -2,11 5.67,0.67 6.75,-3.25 11,-4 4.15,2.29 -0.29,8.15 2,11 4.56,-2.11 8.59,-4.74 15,-5 z m -32,-1 c -0.86,-4.859 2.86,-5.14 2,-10 -4.81,0.521 -8.54,2.13 -13,3 -0.91,3.75 -2.26,7.07 -3,11 6.17,0.169 9.79,-2.21 14,-4 z"
               inkscape:connector-curvature="0"
               style="fill:#ffffff" />
            <path
               id="path4606"
               d="m 98.422,224.25 c -0.2,2.99 -4.15,-0.96 0,0 z"
               inkscape:connector-curvature="0"
               style="fill:#ffffff" />
            <path
               id="path4608"
               d="m 96.422,9.25 c 2.24,7.43 0.4,18.93 1,28 -7.16,-2.51 -11.98,-10.08 -17,-16 -1.16,-1.36 -5.17,-2.63 -3,-5 4.85,-0.69 6.33,3.34 9,6 2.34,2.33 3.9,5.41 7,7 3.62,-5.84 -2.12,-15.59 0,-20 1,0 2,0 3,0 z"
               inkscape:connector-curvature="0"
               style="fill:#ffffff" />
            <path
               id="path4610"
               d="m 98.422,186.25 c -2.2,2.94 -6.97,-3.58 -5,-5 2.51,0.83 3.16,3.5 5,5 z"
               inkscape:connector-curvature="0"
               style="fill:#fab017" />
            <path
               id="path4612"
               d="m 97.422,110.25 c -1.25,2.86 -3.71,-1.13 -5,-2 -1.58,-1.07 -5.6,-0.62 -4,-4 5.29,-0.29 5.29,4.71 9,6 z"
               inkscape:connector-curvature="0"
               style="fill:#fab017" />
            <path
               id="path4614"
               d="m 91.422,111.25 c -2.86,0.2 -5.46,0.12 -5,-3 1.58,1.67 4.59,-1.3 5,3 z"
               inkscape:connector-curvature="0"
               style="fill:#fab017" />
            <path
               id="path4616"
               d="m 92.422,226.25 c -0.44,1.23 -1.28,2.051 -3,2 -0.47,-2.13 1.43,-1.9 3,-2 z"
               inkscape:connector-curvature="0"
               style="fill:#ffffff" />
            <path
               id="path4618"
               d="m 88.422,124.25 c -0.1,-1.21 1.45,-0.62 0,0 z"
               inkscape:connector-curvature="0"
               style="fill:#ffffff" />
            <path
               id="path4620"
               d="m 83.422,156.25 c 2.44,0.561 5.14,0.86 5,4 -3.2,0.2 -4.32,-1.68 -5,-4 z"
               inkscape:connector-curvature="0"
               style="fill:#ffffff" />
            <path
               id="path4622"
               d="m 87.422,224.25 c 0.52,0.521 -0.72,1.28 -1,1 -0.52,-0.52 0.72,-1.28 1,-1 z"
               inkscape:connector-curvature="0"
               style="fill:#ffffff" />
            <path
               id="path4624"
               d="m 86.422,37.25 c 2.74,5 -3.67,7.74 -6,8 -10.56,1.19 -25.93,-21.38 -7,-26 -2.36,4.6 -6.18,6.82 -5,13 0.84,4.43 5.22,6.12 9,8 4.77,0.77 4.44,-3.56 9,-3 z"
               inkscape:connector-curvature="0"
               style="fill:#ffffff" />
            <path
               id="path4626"
               d="m 80.422,231.25 c 0,3 0,6 0,9 -4.84,1.16 -6.94,5.061 -12,6 -1.77,-6.96 2.43,-16.1 12,-15 z"
               inkscape:connector-curvature="0"
               style="fill:#fab017" />
            <path
               id="path4628"
               d="m 74.422,170.25 c 0.52,0.521 -0.72,1.28 -1,1 -0.52,-0.52 0.72,-1.28 1,-1 z"
               inkscape:connector-curvature="0"
               style="fill:#ffffff" />
            <path
               id="path4630"
               d="m 72.422,152.25 c -0.1,-1.21 1.45,-0.621 0,0 z"
               inkscape:connector-curvature="0"
               style="fill:#ffffff" />
            <path
               id="path4632"
               d="m 70.422,144.25 c 1.76,0.24 2.28,1.72 2,4 -1.76,-0.24 -2.28,-1.72 -2,-4 z"
               inkscape:connector-curvature="0"
               style="fill:#ffffff" />
            <path
               id="path4634"
               d="m 72.422,152.25 c 0.08,1.74 -0.22,3.11 -1,4 -1.17,-0.17 -1.09,-1.58 -1,-3 1,0 1.19,-0.81 2,-1 z"
               inkscape:connector-curvature="0"
               style="fill:#ffffff" />
            <path
               id="path4636"
               d="m 64.422,48.25 c 2.1,1.55 7.43,1.68 7,6 -4.77,0.1 -5.47,-3.86 -10,-4 -3.19,3.26 1.56,7.05 1,11 -1.35,0.31 -1.91,1.42 -4,1 0.11,-5.44 -1.52,-9.14 -3,-13 -3.68,-3.32 -9.45,-4.55 -14,-7 2.24,-6.05 7.73,0.34 12,1 3.08,-3.4 -3.08,-8.6 0,-12 3.96,3.31 2.58,7.28 5,11 1.56,2.4 3.75,4.35 6,6 z"
               inkscape:connector-curvature="0"
               style="fill:#ffffff" />
            <path
               id="path4638"
               d="m 69.422,150.25 c 1.17,0.17 1.09,1.58 1,3 -2.08,-0.56 -2.12,-1.56 -1,-3 z"
               inkscape:connector-curvature="0"
               style="fill:#ffffff" />
            <path
               id="path4640"
               d="m 69.422,158.25 c 0.23,-1.58 1.15,-0.05 1,1 -0.23,1.58 -1.15,0.05 -1,-1 z"
               inkscape:connector-curvature="0"
               style="fill:#ffffff" />
            <path
               id="path4642"
               d="m 69.422,220.25 c 0.86,4.86 -2.86,5.141 -2,10 -4.21,1.79 -7.83,4.17 -14,4 0.74,-3.93 2.09,-7.25 3,-11 4.46,-0.871 8.19,-2.48 13,-3 z"
               inkscape:connector-curvature="0"
               style="fill:#fab017" />
            <path
               id="path4644"
               d="m 66.422,142.25 c 0.41,-1.26 1.29,-2.04 3,-2 -0.41,1.26 -1.29,2.04 -3,2 z"
               inkscape:connector-curvature="0"
               style="fill:#ffffff" />
            <path
               id="path4646"
               d="m 68.422,170.25 c 0.52,0.521 -0.72,1.28 -1,1 -0.52,-0.52 0.72,-1.28 1,-1 z"
               inkscape:connector-curvature="0"
               style="fill:#ffffff" />
            <path
               id="path4648"
               d="m 66.422,113.25 c 0.06,-0.61 0.15,-1.18 1,-1 -0.06,0.61 -0.15,1.18 -1,1 z"
               inkscape:connector-curvature="0"
               style="fill:#ffffff" />
            <path
               id="path4650"
               d="m 65.422,143.25 c 0.06,-0.61 0.15,-1.18 1,-1 -0.06,0.61 -0.15,1.18 -1,1 z"
               inkscape:connector-curvature="0"
               style="fill:#ffffff" />
            <path
               id="path4652"
               d="m 58.422,62.25 c 0,1 0,2 0,3 -8.46,6.8 -21.34,-0.82 -26,-7 0.59,-2.07 -1.24,-6.57 1,-7 0.07,-2.69 2.29,-4.81 4,-3 2.28,2.39 -2.19,3.68 -1,8 0.53,3.7 7.05,7.6 10,8 4.37,0.59 7.79,-1.59 12,-2 z"
               inkscape:connector-curvature="0"
               style="fill:#ffffff" />
            <path
               id="path4654"
               d="m 53.422,202.25 c 1.16,-0.159 1.78,0.221 2,1 -0.52,2.38 -2.15,4.44 -4,6 -1.66,1.41 -4.48,1.9 -6,3 -3.3,2.391 -6.35,6.591 -11,7 -0.83,-3.17 1.42,-3.55 3,-5 0.59,-0.54 1.44,-1.569 2,-2 0.78,-0.6 2.12,-0.35 3,-1 1.36,-1.01 2.51,-3.02 4,-4 2.74,-1.8 5.59,-1.47 7,-5 z"
               inkscape:connector-curvature="0"
               style="fill:#ffffff" />
            <path
               id="path4656"
               d="m 47.422,196.25 c 1.33,0 2.67,0 4,0 -1.24,4.641 -7,6.58 -11,9 -3.86,2.341 -8.34,7.101 -13,5 -0.09,-2.689 3.23,-2.96 5,-4 4.45,-2.61 10.57,-6.14 15,-10 z"
               inkscape:connector-curvature="0"
               style="fill:#ffffff" />
            <path
               id="path4658"
               d="m 49.422,72.25 c 0.58,4.58 -3.34,4.66 -5,7 -12.6,1.75 -28.24,-9.8 -18,-19 1.62,-0.28 1.72,0.94 3,1 0.47,3.14 -2.69,2.64 -3,5 2.01,6.33 8.41,8.25 15,10 3.97,-0.03 3.48,-4.52 8,-4 z"
               inkscape:connector-curvature="0"
               style="fill:#ffffff" />
            <path
               id="path4660"
               d="m 35.422,192.25 c 2.65,-1.189 7.4,-4.25 11,-3 -2.47,3.801 -7.01,5.82 -11,8 -3.75,2.051 -7.88,4.811 -13,5 1.54,-4.529 7.85,-5.64 12,-8 0.42,-0.24 0.65,-1.84 1,-2 z"
               inkscape:connector-curvature="0"
               style="fill:#ffffff" />
            <path
               id="path4662"
               d="m 42.422,83.25 c 0.72,3.06 -1.02,3.64 -1,6 -1.79,-0.89 -2.29,1.63 -4,2 -7.06,1.52 -19.83,-4.8 -21,-9 -0.81,-2.9 -0.43,-7.04 2,-10 1,0 2,0 3,0 2.89,3.01 -2.39,3.49 -1,8 1.6,5.4 7.97,6.03 13,8 5.29,0.62 3.65,-5.68 9,-5 z"
               inkscape:connector-curvature="0"
               style="fill:#ffffff" />
            <path
               id="path4664"
               d="m 36.422,167.25 c 3.56,8.801 -25.25,18.32 -27,7 -1.07,-6.97 22.55,-16.63 27,-7 z m -4,3 c -0.01,-4.71 -5.48,-4.31 -9,-4 -2.68,0.23 -11.59,5.08 -10,8 4.05,5.9 14.93,-0.69 19,-4 z"
               inkscape:connector-curvature="0"
               style="fill:#ffffff" />
            <path
               id="path4666"
               d="m 35.422,98.25 c -0.27,3.39 0.77,8.11 -1,10 -10.01,-0.99 -16.84,-5.16 -27,-6 -0.69,-4.02 0.96,-5.71 1,-9 3.04,-0.63 4.08,-2.66 7,-3 6.84,-0.81 15.43,5.14 20,8 z m -4,5 c 0.2,-8.67 -11.6,-10.21 -19,-8 -0.31,1.35 -1.42,1.91 -1,4 6.98,1.02 12.28,3.72 20,4 z"
               inkscape:connector-curvature="0"
               style="fill:#ffffff" />
            <path
               id="path4668"
               d="m 30.422,147.25 c 1.92,2.41 2.95,5.71 3,10 -8.91,2.42 -18.2,4.471 -27,7 -6.39,-8.069 3,-17.18 12,-13 1.69,-3.65 6.1,-4.57 12,-4 z m -9,9 c 3.88,-0.12 9.21,1.21 8,-4 -2.06,-3.55 -9.58,-1.93 -8,4 z m -4,-1 c -2.29,-4.409 -11.28,-1.46 -10,4 3.01,1.77 9.61,0.03 10,-4 z"
               inkscape:connector-curvature="0"
               style="fill:#ffffff" />
            <path
               id="path4670"
               d="m 12.422,95.25 c 7.4,-2.21 19.2,-0.67 19,8 -7.72,-0.28 -13.02,-2.98 -20,-4 -0.42,-2.09 0.69,-2.65 1,-4 z"
               inkscape:connector-curvature="0"
               style="fill:#fab017" />
            <path
               id="path4672"
               d="m 29.422,152.25 c 1.21,5.21 -4.12,3.88 -8,4 -1.58,-5.93 5.94,-7.55 8,-4 z"
               inkscape:connector-curvature="0"
               style="fill:#fab017" />
            <path
               id="path4674"
               d="m 32.422,130.25 c -1.7,4.23 -6.38,1.16 -10,1 -6.81,-0.31 -15.59,-0.28 -20,-3 4.01,-3.65 11.44,-3.89 16,-7 -2.71,-4.29 -9.88,-4.12 -14,-7 0,-1 0,-2 0,-3 8.48,-2.65 18.94,0.93 28,1 -0.64,7.01 -11.09,-0.21 -14,3 1.99,3.34 7.81,2.85 10,6 -0.13,3.24 -4.58,2.33 -7,3 -2.44,0.68 -4.8,1.69 -7,2 3.62,3.72 13.46,1.21 18,4 z"
               inkscape:connector-curvature="0"
               style="fill:#ffffff" />
            <path
               id="path4676"
               d="m 29.422,184.25 c 0,1 0,2 0,3 -1,0 -2,0 -3,0 0,-1 0,-2 0,-3 1,0 2,0 3,0 z"
               inkscape:connector-curvature="0"
               style="fill:#ffffff" />
            <path
               id="path4678"
               d="m 23.422,166.25 c 3.52,-0.31 8.99,-0.71 9,4 -4.07,3.311 -14.95,9.9 -19,4 -1.59,-2.92 7.32,-7.77 10,-8 z"
               inkscape:connector-curvature="0"
               style="fill:#fab017" />
            <path
               id="path4680"
               d="m 7.422,159.25 c -1.28,-5.46 7.71,-8.409 10,-4 -0.39,4.03 -6.99,5.77 -10,4 z"
               inkscape:connector-curvature="0"
               style="fill:#fab017" />
          </g>
          <g
             id="g4682" />
        </g>
      </g>
    </g>
  </g>
</svg>
