<?xml version="1.0" encoding="UTF-8" standalone="no"?>
<?xml-stylesheet type="text/css" href="svg.css" ?>
<svg xmlns="http://www.w3.org/2000/svg" xml:space="preserve" height="50" width="250" version="1.1" viewBox="0 0 249.99999 50.000001"><path id="logo_unmdp" style="stroke-width:.22272;fill-rule:evenodd" d="m25.717 1.8633c-2.989-0.0605-6.078 0.4869-8.358 1.4668-5.759 2.5123-9.7835 5.7286-12.693 11.598-1.0559 2.13-2.1127 5.166-2.1133 7.738-0.6767 10.35 5.0614 19.375 15.363 23.617 6.536 2.694 16.92 1.406 22.4-3.197 2.252-1.889 4.484-4.944 5.6-7.496 0.399-0.905 1.056-2.09 1.594-3.537h-11.836c-4.763 0-12.854 0.541-14.01-6.453-1.355-8.261 8.927-11.316 13.869-4.522 1.236 1.729 0.658 7.797 1.176 2.391 0.359-3.699-1.016-7.476-6.117-9.567-1.455-0.583-4.165-1.025-5.42-1.226 3.368-2.251 11.278-0.06 11.935 1.226-2.829-5.3462-9.943-6.3112-10.541-6.2711 2.591-1.005 8.29 0.482 10.323 1.1855 3.248 1.1256 5.938 2.9346 8.568 5.8696 1.156 1.266 2.411 3.196 2.969 4.523-0.538-1.789-0.897-3.217-2.352-5.568-3.667-5.8894-8.747-8.784-15.283-10.975-1.524-0.5125-3.281-0.7664-5.074-0.8027zm139.3 2.8613v0.5684h0.56c0.28 0 0.5 0.0518 0.66 0.1543 0.16 0.1013 0.28 0.2205 0.36 0.3496 0.08 0.1296 0.13 0.3672 0.13 0.7187 0.02 0.8243 0.03 1.6597 0.03 2.502v4.4944c0 1.138-0.03 2.039-0.1 2.703-0.03 0.321-0.1 0.534-0.22 0.642-0.12 0.109-0.38 0.164-0.77 0.164h-0.65v0.571c1.32-0.043 2.16-0.067 2.53-0.067 0.53 0 1.12 0.024 1.78 0.067v-0.571l-0.58-0.046c-0.47-0.041-0.76-0.109-0.86-0.205-0.1-0.092-0.17-0.351-0.21-0.78-0.06-0.561-0.08-1.552-0.08-2.974v-6.2465l6.5 8.0275c0.73 0.904 1.43 1.728 2.1 2.469 0.12 0.132 0.25 0.229 0.38 0.285 0.14 0.058 0.61 0.151 1.43 0.277-0.09-1.524-0.14-2.837-0.14-3.935v-4.0785c0-2.3912 0.02-3.7122 0.08-3.959 0.08-0.3736 0.41-0.5625 0.97-0.5625h0.69v-0.5684c-0.89 0.0402-1.61 0.0625-2.17 0.0625-0.54 0-1.29-0.0223-2.26-0.0625v0.5684l0.68 0.0644c0.61 0.0589 0.96 0.2044 1.04 0.4297 0.09 0.2254 0.13 1.5521 0.13 3.9805v5.8044c-0.49-0.53-1.3-1.473-2.41-2.838l-3.09-3.7965c-0.57-0.7008-1.12-1.3942-1.65-2.0859-0.52-0.6878-1.08-1.3985-1.68-2.127-0.52 0.0402-0.99 0.0625-1.43 0.0625-0.4 0-0.99-0.0223-1.75-0.0625zm-106.96 0.3711v0.5684h0.64c0.537 0 0.856 0.102 0.955 0.3086 0.102 0.2037 0.151 1.1569 0.151 2.8574v2.7559l-0.02 1.719c0 1.151 0.081 1.965 0.238 2.443 0.161 0.478 0.42 0.886 0.778 1.217 0.361 0.333 0.896 0.611 1.605 0.836 0.713 0.226 1.54 0.34 2.487 0.34 0.917 0 1.713-0.128 2.392-0.381s1.221-0.595 1.625-1.03c0.408-0.435 0.69-0.92 0.844-1.46 0.155-0.54 0.232-1.583 0.232-3.131v-3.3929c0-1.543 0.063-2.4408 0.2-2.6973 0.135-0.2558 0.445-0.3847 0.92-0.3847h0.613v-0.5684c-0.815 0.0402-1.492 0.0625-2.041 0.0625-0.336 0-1.131-0.0223-2.381-0.0625v0.5684h0.473c0.639 0 1.027 0.114 1.17 0.3398 0.141 0.2254 0.212 1.128 0.212 2.7051v3.41c0 1.525-0.112 2.563-0.334 3.106-0.225 0.546-0.576 0.945-1.058 1.205-0.7 0.373-1.558 0.562-2.576 0.562-0.988 0-1.779-0.176-2.371-0.525-0.59-0.348-0.956-0.777-1.098-1.283-0.142-0.507-0.213-1.407-0.213-2.704v-3.5425c0-1.7496 0.059-2.731 0.174-2.9473 0.114-0.219 0.454-0.3261 1.019-0.3261h0.661v-0.5684c-1.145 0.0402-2.011 0.0625-2.604 0.0625-0.559 0-1.456-0.0223-2.693-0.0625zm139.21 2.6836c-1.22 0-2.26 0.2061-3.1 0.625-0.85 0.4183-1.5 1.0098-1.96 1.7697-0.46 0.759-0.69 1.622-0.69 2.586 0 0.963 0.23 1.828 0.68 2.594 0.46 0.764 1.11 1.361 1.97 1.796 0.85 0.433 1.83 0.651 2.96 0.651 0.55 0 1.09-0.068 1.63-0.201 0.54-0.136 1.08-0.335 1.62-0.602 0.08-0.212 0.17-0.425 0.26-0.637l-0.14-0.136c-0.45 0.334-0.9 0.554-1.35 0.66-0.6 0.14-1.2 0.211-1.81 0.211-0.78 0-1.51-0.202-2.21-0.602-0.69-0.402-1.22-0.949-1.6-1.639s-0.57-1.476-0.57-2.355c0-1.258 0.38-2.259 1.12-3.0098 0.74-0.7483 1.73-1.123 2.96-1.123 0.48 0 0.95 0.0656 1.4 0.1992 0.44 0.1336 0.86 0.3324 1.27 0.6035l0.06 1.2191h0.46c0.03-0.8919 0.15-1.5821 0.35-2.0706-0.27-0.0487-0.62-0.1234-1.05-0.2246-0.86-0.2101-1.61-0.3145-2.26-0.3145zm14.01 0c-1.62 0-2.91 0.4582-3.88 1.3769-0.96 0.9168-1.45 2.1278-1.45 3.6308 0 0.994 0.21 1.878 0.63 2.651 0.41 0.771 0.98 1.357 1.7 1.759 0.71 0.402 1.57 0.604 2.56 0.604 1.58 0 2.89-0.511 3.94-1.533 1.04-1.024 1.56-2.297 1.56-3.817 0-1.412-0.45-2.5413-1.35-3.3944-0.9-0.8513-2.13-1.2773-3.71-1.2773zm-25.94 0.0605c-0.18 0.5118-0.53 1.3353-1.03 2.4672l-1.88 4.267c-0.34 0.763-0.67 1.474-0.99 2.131-0.11 0.224-0.21 0.363-0.3 0.422-0.1 0.057-0.3 0.09-0.62 0.1l-0.21 0.005v0.434c0.5-0.033 1.08-0.051 1.73-0.051 0.55 0 1.05 0.018 1.48 0.051v-0.434l-0.65-0.074c-0.24-0.028-0.38-0.067-0.44-0.111-0.05-0.047-0.09-0.119-0.09-0.225 0-0.164 0.16-0.614 0.46-1.343l0.47-1.104h3.96l0.75 1.906c0.14 0.347 0.21 0.561 0.21 0.643 0 0.077-0.03 0.142-0.1 0.191-0.05 0.033-0.19 0.06-0.43 0.076l-0.68 0.041v0.434c0.83-0.033 1.5-0.051 2-0.051 0.54 0 1.11 0.018 1.7 0.051v-0.434c-0.35-0.018-0.57-0.05-0.67-0.099-0.1-0.047-0.19-0.126-0.27-0.238-0.08-0.113-0.23-0.443-0.47-0.991l-3.46-8.0642h-0.47zm48.28 0c-0.19 0.5118-0.53 1.3353-1.03 2.4672l-1.88 4.267c-0.34 0.763-0.68 1.474-1 2.131-0.1 0.224-0.2 0.363-0.3 0.422-0.09 0.057-0.3 0.09-0.62 0.1l-0.2 0.005v0.434c0.49-0.033 1.07-0.051 1.73-0.051 0.55 0 1.04 0.018 1.48 0.051v-0.434l-0.66-0.074c-0.23-0.028-0.38-0.067-0.43-0.111-0.06-0.047-0.09-0.119-0.09-0.225 0-0.164 0.16-0.614 0.46-1.343l0.47-1.104h3.96l0.75 1.906c0.14 0.347 0.2 0.561 0.2 0.643 0 0.077-0.03 0.142-0.1 0.191-0.04 0.033-0.19 0.06-0.43 0.076l-0.68 0.041v0.434c0.84-0.033 1.51-0.051 2.01-0.051 0.54 0 1.1 0.018 1.7 0.051v-0.434c-0.35-0.018-0.58-0.05-0.68-0.099-0.1-0.047-0.19-0.126-0.26-0.238-0.08-0.113-0.24-0.443-0.47-0.991l-3.47-8.0642h-0.46zm-32.3 0.0762v0.4317h0.56c0.36 0 0.58 0.0925 0.65 0.2793 0.08 0.1873 0.11 1.1953 0.11 3.021v2.323c0 1.763-0.04 2.747-0.12 2.953-0.09 0.206-0.34 0.308-0.77 0.308h-0.43v0.436c0.62-0.033 1.32-0.049 2.09-0.049 0.66 0 1.28 0.016 1.84 0.049v-0.432h-0.45c-0.42 0-0.67-0.091-0.75-0.271-0.08-0.179-0.12-1.158-0.12-2.936v-2.367c0-1.251 0.01-2.1207 0.04-2.6093 0.01-0.3158 0.06-0.5122 0.14-0.5898 0.08-0.077 0.29-0.1152 0.61-0.1152h0.53v-0.4317c-0.5 0.03-1.06 0.0469-1.68 0.0469-0.74 0-1.49-0.0169-2.25-0.0469zm15.65 0v0.4317h0.42c0.22 0 0.39 0.0382 0.5 0.1152 0.12 0.0776 0.21 0.1677 0.27 0.2656 0.06 0.098 0.1 0.2783 0.11 0.5449 0.01 0.6238 0.02 1.2576 0.02 1.8966v3.404c0 0.864-0.02 1.546-0.08 2.049-0.02 0.243-0.07 0.405-0.17 0.486-0.09 0.083-0.28 0.123-0.58 0.123h-0.49v0.434c1-0.033 1.64-0.049 1.92-0.049 0.4 0 0.85 0.016 1.35 0.049v-0.434l-0.44-0.035c-0.36-0.03-0.58-0.082-0.66-0.154-0.07-0.07-0.12-0.267-0.16-0.592-0.04-0.426-0.06-1.175-0.06-2.254v-4.7322l4.93 6.0822c0.55 0.685 1.09 1.31 1.59 1.871 0.09 0.101 0.19 0.173 0.29 0.215 0.1 0.045 0.46 0.115 1.08 0.211-0.07-1.156-0.1-2.15-0.1-2.983v-3.088c0-1.8121 0.02-2.8128 0.06-2.9996 0.06-0.283 0.3-0.4257 0.73-0.4257h0.53v-0.4317c-0.68 0.03-1.22 0.0469-1.65 0.0469-0.41 0-0.98-0.0169-1.71-0.0469v0.4317l0.51 0.0488c0.46 0.0448 0.73 0.1532 0.79 0.3242 0.07 0.1706 0.1 1.1768 0.1 3.0173v4.399c-0.37-0.402-0.98-1.119-1.83-2.153l-2.34-2.875c-0.43-0.531-0.84-1.057-1.24-1.5817-0.4-0.5212-0.83-1.0594-1.28-1.6113-0.39 0.03-0.75 0.0469-1.08 0.0469-0.31 0-0.75-0.0169-1.33-0.0469zm22.61 0v0.4317h0.75c0.31 0 0.49 0.0776 0.56 0.2343 0.06 0.1591 0.1 0.9226 0.1 2.293v3.77c0 1.265-0.04 1.987-0.1 2.169-0.07 0.183-0.28 0.355-0.65 0.514v0.363c0.93-0.048 1.61-0.074 2.05-0.074l3.26 0.053c0.71 0 1.27-0.032 1.69-0.102 0.06-0.748 0.15-1.557 0.26-2.42h-0.44l-0.41 1.612c-0.36 0.096-0.72 0.162-1.05 0.199-0.49 0.045-1.16 0.068-2.02 0.068-0.42 0-0.86-0.012-1.3-0.035l0.02-0.402-0.02-1.934v-4.365c0-1.0166 0.03-1.5965 0.09-1.7363 0.07-0.1387 0.22-0.207 0.46-0.207h0.85v-0.4317c-0.81 0.03-1.46 0.0469-1.93 0.0469-0.36 0-1.08-0.0169-2.17-0.0469zm-119.19 0.1426c-1.14 0-2.03 0.2835-2.67 0.8496-0.65 0.5655-0.97 1.2948-0.97 2.1858 0 0.524 0.11 0.963 0.32 1.318 0.21 0.353 0.5 0.613 0.87 0.777 0.37 0.166 1.07 0.287 2.1 0.37 0.78 0.065 1.31 0.159 1.6 0.283 0.28 0.122 0.51 0.312 0.67 0.564 0.16 0.256 0.24 0.563 0.24 0.928 0 0.627-0.24 1.144-0.71 1.549-0.47 0.407-1.13 0.609-2 0.609-0.4 0-0.77-0.047-1.12-0.14-0.35-0.094-0.65-0.229-0.9-0.407-0.17-0.118-0.27-0.232-0.32-0.338-0.05-0.104-0.07-0.378-0.07-0.82v-0.344h-0.47c0.01 0.858-0.03 1.562-0.11 2.112 0.45 0.172 0.9 0.305 1.35 0.394 0.44 0.089 0.88 0.133 1.32 0.133 1.28 0 2.3-0.33 3.07-0.994 0.76-0.662 1.15-1.453 1.15-2.369 0-0.459-0.1-0.854-0.3-1.186-0.2-0.334-0.46-0.576-0.79-0.728-0.33-0.15-0.97-0.27-1.91-0.362-0.94-0.086-1.56-0.19-1.85-0.304-0.29-0.118-0.52-0.306-0.69-0.571-0.17-0.262-0.25-0.574-0.25-0.939 0-0.58 0.2-1.0582 0.62-1.4278 0.42-0.3697 0.99-0.5528 1.72-0.5528 0.45 0 0.88 0.0728 1.28 0.2149 0.41 0.1455 0.66 0.281 0.75 0.4101 0.1 0.1257 0.14 0.3691 0.14 0.7246v0.547h0.48c0.01-0.7852 0.08-1.4144 0.2-1.8888-0.46-0.2015-0.92-0.3513-1.38-0.4492-0.45-0.0985-0.91-0.1484-1.37-0.1484zm24.42 0.0605c-0.18 0.5123-0.52 1.3372-1.02 2.4689l-1.89 4.266c-0.34 0.762-0.67 1.473-0.99 2.13-0.11 0.225-0.21 0.366-0.3 0.424-0.1 0.056-0.3 0.089-0.62 0.098l-0.21 0.008v0.431c0.5-0.033 1.08-0.049 1.74-0.049 0.55 0 1.04 0.016 1.48 0.049v-0.431l-0.66-0.076c-0.24-0.029-0.38-0.065-0.44-0.11-0.05-0.046-0.08-0.121-0.08-0.226 0-0.164 0.15-0.613 0.46-1.342l0.46-1.104h3.96l0.76 1.906c0.13 0.346 0.2 0.561 0.2 0.643 0 0.077-0.03 0.143-0.1 0.191-0.05 0.033-0.19 0.058-0.43 0.075l-0.68 0.043v0.433c0.83-0.033 1.5-0.051 2.01-0.051 0.54 0 1.1 0.018 1.7 0.051v-0.433c-0.36-0.019-0.58-0.053-0.68-0.102-0.1-0.046-0.19-0.125-0.27-0.236-0.08-0.113-0.23-0.444-0.47-0.99l-3.46-8.0669h-0.47zm-32.54 0.0567c-0.29 0-0.77 0.0122-1.42 0.0332-0.57 0.0231-1 0.0351-1.31 0.0351-0.44 0-1.09-0.0195-1.94-0.0546v0.4375h0.37c0.46 0 0.74 0.0848 0.82 0.2558 0.09 0.1681 0.13 0.9604 0.13 2.3752v3.295c0 1.632-0.03 2.532-0.11 2.703-0.07 0.17-0.3 0.258-0.7 0.258h-0.51v0.431c1.03-0.033 1.74-0.049 2.13-0.049 0.5 0 1.13 0.016 1.89 0.049v-0.431h-0.54c-0.43 0-0.68-0.09-0.75-0.266-0.08-0.175-0.12-1.068-0.12-2.682v-3.308c0-0.826 0.03-1.6028 0.08-2.3303 0.49-0.1777 0.97-0.2656 1.45-0.2656 0.69 0 1.22 0.1666 1.58 0.4961 0.36 0.3323 0.55 0.7922 0.55 1.3808 0 0.657-0.22 1.181-0.65 1.574s-1.03 0.59-1.79 0.59c-0.13 0-0.33-0.012-0.59-0.033l-0.07 0.232c0.52 0.575 1 1.164 1.45 1.768l2.43 3.275c0.29-0.033 0.56-0.049 0.82-0.049 0.28 0 0.62 0.016 0.99 0.049v-0.431h-0.17c-0.08 0-0.17-0.021-0.25-0.061-0.07-0.042-0.23-0.21-0.46-0.502l-1.32-1.707c-0.66-0.853-1.21-1.6-1.66-2.246 0.88-0.182 1.55-0.52 2.02-1.014 0.46-0.493 0.69-1.059 0.69-1.705 0-0.4372-0.1-0.8147-0.32-1.1306-0.21-0.3158-0.52-0.5568-0.93-0.7226-0.41-0.1681-1-0.25-1.79-0.25zm21.56 0.0137l-1.5 0.0273-1.85 0.0137c-0.25 0-0.76-0.0117-1.52-0.0332v0.4297l0.55 0.082c0.33 0.0464 0.51 0.0963 0.57 0.1523 0.05 0.0544 0.09 0.2521 0.13 0.5957 0.05 0.59 0.08 1.29 0.08 2.104v1.986c0 1.768-0.04 3.004-0.11 3.713l-0.64 0.377v0.328c0.57-0.055 1.04-0.082 1.41-0.082 0.22 0 0.74 0.016 1.57 0.049l0.85 0.019c1.67 0 3.03-0.504 4.07-1.513 1.04-1.01 1.55-2.287 1.55-3.831 0-0.762-0.13-1.432-0.4-2.017-0.27-0.582-0.66-1.0672-1.18-1.4533-0.51-0.3855-1.09-0.6433-1.72-0.7695-0.64-0.1285-1.26-0.1869-1.86-0.1777zm21.77 0l-1.5 0.0273-1.84 0.0137c-0.26 0-0.77-0.0117-1.52-0.0332v0.4297l0.55 0.082c0.32 0.0464 0.51 0.0963 0.56 0.1523 0.05 0.0544 0.1 0.2521 0.13 0.5957 0.05 0.59 0.08 1.29 0.08 2.104v1.986c0 1.768-0.04 3.004-0.11 3.713l-0.64 0.377v0.328c0.57-0.055 1.04-0.082 1.41-0.082 0.22 0 0.75 0.016 1.57 0.049l0.85 0.019c1.67 0 3.03-0.504 4.07-1.513 1.04-1.01 1.56-2.287 1.56-3.831 0-0.762-0.14-1.432-0.41-2.017-0.27-0.582-0.66-1.0672-1.17-1.4533-0.52-0.3855-1.1-0.6433-1.73-0.7695-0.64-0.1285-1.26-0.1869-1.86-0.1777zm-83.184 0.0078v0.4297h0.422c0.216 0 0.385 0.0407 0.502 0.1171 0.119 0.0776 0.209 0.1657 0.269 0.2637 0.061 0.0979 0.099 0.2789 0.106 0.5449 0.014 0.6243 0.021 1.2573 0.021 1.8963v3.405c0 0.863-0.024 1.546-0.076 2.048-0.023 0.244-0.077 0.405-0.168 0.487-0.092 0.082-0.287 0.125-0.584 0.125h-0.492v0.431c1.001-0.033 1.638-0.049 1.916-0.049 0.403 0 0.851 0.016 1.35 0.049v-0.431l-0.438-0.035c-0.36-0.031-0.579-0.084-0.654-0.157-0.075-0.069-0.127-0.265-0.16-0.59-0.041-0.425-0.063-1.176-0.063-2.253v-4.7349l4.926 6.0819c0.559 0.685 1.089 1.31 1.596 1.871 0.091 0.1 0.188 0.173 0.289 0.215 0.1 0.044 0.46 0.115 1.082 0.211-0.073-1.155-0.11-2.15-0.11-2.982v-3.088c0-1.813 0.021-2.8129 0.061-3.0003 0.066-0.283 0.309-0.4257 0.734-0.4257h0.526v-0.4297c-0.672 0.0305-1.219 0.0468-1.645 0.0468-0.406 0-0.977-0.0163-1.711-0.0468v0.4297l0.514 0.0488c0.461 0.0447 0.725 0.1532 0.791 0.3242 0.065 0.1711 0.098 1.177 0.098 3.018v4.398c-0.375-0.402-0.985-1.117-1.829-2.15l-2.341-2.877c-0.429-0.531-0.844-1.058-1.244-1.5824-0.398-0.5207-0.826-1.0574-1.278-1.6093-0.393 0.0305-0.752 0.0468-1.082 0.0468-0.307 0-0.748-0.0163-1.328-0.0468zm11.77 0v0.4297h0.552c0.365 0 0.587 0.0944 0.658 0.2812 0.076 0.1866 0.11 1.1958 0.11 3.0218v2.32c0 1.763-0.043 2.749-0.127 2.955s-0.338 0.309-0.764 0.309h-0.429v0.431c0.619-0.033 1.316-0.049 2.087-0.049 0.663 0 1.275 0.016 1.836 0.049v-0.431h-0.453c-0.421 0-0.668-0.092-0.746-0.272-0.077-0.18-0.115-1.159-0.115-2.935v-2.364c0-1.251 0.011-2.1205 0.035-2.609 0.012-0.3159 0.061-0.5123 0.143-0.5899 0.082-0.0764 0.283-0.1171 0.609-0.1171h0.527v-0.4297c-0.501 0.0305-1.063 0.0468-1.677 0.0468-0.742 0-1.489-0.0163-2.246-0.0468zm4.476 0v0.4297h0.281c0.335 0 0.531 0.0415 0.59 0.123 0.061 0.0815 0.265 0.5672 0.615 1.453l2.456 6.131c0.215 0.536 0.422 1.108 0.628 1.719h0.706c0.182-0.634 0.491-1.48 0.925-2.541l2.309-5.639c0.255-0.6243 0.433-0.9882 0.531-1.0918 0.099-0.1024 0.257-0.1542 0.477-0.1542h0.273v-0.4297c-0.622 0.0305-1.137 0.0468-1.547 0.0468-0.392 0-0.893-0.0163-1.502-0.0468v0.4297l0.59 0.0605 0.279 0.0215c0.253 0.009 0.377 0.1195 0.377 0.3301 0 0.2597-0.303 1.1539-0.908 2.6839l-1.804 4.502-1.85-4.719-0.891-2.3498c-0.023-0.0753-0.033-0.1409-0.033-0.1992 0-0.0912 0.033-0.1589 0.104-0.2031 0.068-0.0419 0.217-0.0664 0.451-0.0664h0.677v-0.4902c-0.739 0.0305-1.374 0.0468-1.906 0.0468-0.5 0-1.11-0.0163-1.828-0.0468zm35.688 0v0.4297h0.55c0.37 0 0.59 0.0944 0.66 0.2812 0.08 0.1866 0.11 1.1958 0.11 3.0218v2.32c0 1.763-0.04 2.749-0.13 2.955-0.08 0.206-0.34 0.309-0.76 0.309h-0.43v0.431c0.62-0.033 1.32-0.049 2.09-0.049 0.66 0 1.27 0.016 1.83 0.049v-0.431h-0.45c-0.42 0-0.67-0.092-0.74-0.272-0.08-0.18-0.12-1.159-0.12-2.935v-2.364c0-1.251 0.01-2.1205 0.03-2.609 0.02-0.3159 0.07-0.5123 0.15-0.5899 0.08-0.0764 0.28-0.1171 0.61-0.1171h0.52v-0.4297c-0.5 0.0305-1.06 0.0468-1.67 0.0468-0.75 0-1.49-0.0163-2.25-0.0468zm-25.364 0.0039v0.4258l0.528 0.0566c0.327 0.03 0.526 0.0677 0.586 0.1074 0.07 0.0419 0.12 0.1006 0.15 0.1758 0.03 0.0748 0.07 0.3083 0.1 0.7012 0.03 0.392 0.04 0.897 0.04 1.514v3.761c0 0.982-0.01 1.619-0.05 1.907-0.03 0.287-0.1 0.47-0.21 0.546-0.1 0.078-0.349 0.118-0.747 0.118h-0.211v0.431c0.888-0.033 1.598-0.049 2.128-0.049 0.56 0 1.43 0.016 2.62 0.049l1.08 0.02c0.5 0 1.02-0.025 1.54-0.076l-0.01-0.309c0-0.332 0.06-0.999 0.18-1.998h-0.45c-0.12 0.603-0.24 1.104-0.35 1.506-0.25 0.092-0.49 0.152-0.71 0.178-0.35 0.047-0.78 0.07-1.29 0.07-0.77 0-1.48-0.027-2.15-0.076-0.01-0.281-0.02-0.719-0.02-1.322l-0.01-0.967v-1.678c0.42-0.035 0.81-0.055 1.2-0.055 1.03 0 1.64 0.048 1.81 0.147 0.17 0.098 0.26 0.368 0.26 0.804v0.399h0.46c-0.03-0.589-0.05-1.103-0.05-1.535 0-0.412 0.02-0.961 0.05-1.651h-0.46v0.446c0 0.392-0.08 0.626-0.22 0.701-0.14 0.077-0.76 0.113-1.85 0.113-0.35 0-0.74-0.013-1.2-0.041v-1.391l0.02-1.054c0.01-0.4281 0.02-0.8591 0.01-1.2893 0.69-0.0543 1.34-0.082 1.97-0.082 0.78 0 1.45 0.0998 1.98 0.3008 0.06 0.3345 0.08 0.7513 0.08 1.2535h0.47c0.01-0.8623 0.11-1.564 0.28-2.1012-0.43-0.0419-0.86-0.0589-1.28-0.0566l-1.25 0.0078-2.63 0.0351c-0.21 0-0.52-0.0073-0.93-0.0214l-0.721-0.0215h-0.743zm111.94 0.166c0.8 0 1.49 0.1733 2.08 0.5215 0.58 0.3458 1.04 0.8636 1.38 1.5503 0.33 0.688 0.5 1.516 0.5 2.485 0 0.923-0.15 1.706-0.45 2.349-0.31 0.643-0.72 1.127-1.25 1.452s-1.15 0.488-1.86 0.488c-0.76 0-1.44-0.191-2.04-0.572-0.59-0.384-1.06-0.956-1.42-1.721-0.35-0.765-0.53-1.662-0.53-2.695 0-0.776 0.15-1.46 0.45-2.051 0.31-0.5918 0.72-1.0416 1.25-1.3478 0.53-0.3063 1.16-0.459 1.89-0.459zm-77.57 0.418c1.37 0 2.41 0.3497 3.12 1.0488 0.71 0.699 1.07 1.714 1.07 3.047 0 1.531-0.43 2.696-1.28 3.496-0.71 0.657-1.7 0.984-2.98 0.984-0.47 0-1.02-0.045-1.63-0.136-0.06-0.722-0.08-1.497-0.08-2.323v-4.478c0-0.5594 0.02-1.0545 0.08-1.4943 0.65-0.0962 1.22-0.1445 1.7-0.1445zm21.78 0.0019c1.37 0 2.4 0.3478 3.12 1.0469 0.71 0.699 1.06 1.714 1.06 3.047 0 1.531-0.43 2.696-1.28 3.496-0.71 0.657-1.7 0.984-2.98 0.984-0.47 0-1.01-0.043-1.63-0.134-0.05-0.723-0.08-1.499-0.08-2.325v-4.478c0-0.5594 0.03-1.0545 0.08-1.4943 0.66-0.0962 1.23-0.1426 1.71-0.1426zm30.11 0.9024l1.73 4.1245h-3.46l1.73-4.1245zm48.28 0l1.72 4.1245h-3.45l1.73-4.1245zm-88.81 0.2812l1.73 4.1233h-3.45l1.72-4.1233zm17.14 15.31c-0.28 0-0.7 0.013-1.24 0.037-0.84 0.034-1.59 0.053-2.27 0.053-1.16 0-2.12-0.015-2.87-0.043v0.567h0.45c0.6 0 0.97 0.088 1.13 0.263 0.15 0.176 0.24 0.651 0.25 1.43l0.02 1.869v4.83c-0.03 1.463-0.07 2.338-0.1 2.625s-0.09 0.475-0.2 0.57c-0.11 0.093-0.36 0.141-0.74 0.141h-0.81v0.57c1.38-0.043 2.34-0.064 2.88-0.064 0.62 0 1.46 0.021 2.53 0.064v-0.57h-0.63c-0.6 0-0.95-0.109-1.06-0.328-0.11-0.216-0.17-1.232-0.17-3.047v-5.162c0-0.981 0.03-1.906 0.07-2.774 0.69-0.221 1.33-0.337 1.91-0.337 1.03 0 1.81 0.238 2.33 0.711 0.52 0.474 0.78 1.132 0.78 1.978 0 0.873-0.24 1.562-0.73 2.065s-1.15 0.755-1.98 0.755c-0.36 0-0.8-0.072-1.33-0.211l0.18 0.69c0.54 0.114 1 0.172 1.36 0.172 0.79 0 1.53-0.184 2.23-0.551s1.23-0.856 1.61-1.461c0.38-0.608 0.57-1.237 0.57-1.894 0-0.905-0.33-1.62-0.99-2.151s-1.72-0.797-3.18-0.797zm-79.174 0.045v0.569h0.476c0.457 0 0.767 0.056 0.918 0.164 0.154 0.107 0.243 0.265 0.268 0.468 0.052 0.398 0.08 1.216 0.08 2.45v5.117c0 0.977-0.04 1.888-0.117 2.73-0.031 0.303-0.11 0.511-0.243 0.625-0.132 0.115-0.398 0.172-0.797 0.172h-0.585v0.57c1.132-0.043 1.887-0.064 2.267-0.064 0.525 0 1.207 0.021 2.043 0.064v-0.57h-0.334c-0.676 0-1.075-0.111-1.205-0.33s-0.195-1.145-0.195-2.771v-6.991l3.234 6.701c1.055 2.219 1.695 3.595 1.92 4.131h0.357c0.646-1.568 1.47-3.397 2.479-5.496l2.686-5.588 0.001 7.35c0 1.58-0.049 2.474-0.15 2.684-0.099 0.206-0.386 0.31-0.861 0.31h-0.6v0.57c0.923-0.043 1.805-0.064 2.651-0.064 0.765 0 1.564 0.021 2.404 0.064v-0.57h-0.516c-0.568 0-0.912-0.107-1.035-0.326-0.123-0.216-0.186-1.059-0.186-2.531v-6.608c0-1.141 0.059-1.801 0.176-1.986 0.12-0.182 0.445-0.275 0.973-0.275h0.588v-0.569c-0.929 0.04-1.571 0.063-1.926 0.063-0.308 0-0.839-0.023-1.592-0.063-0.988 2.228-1.867 4.137-2.638 5.723l-2.198 4.529-2.379-4.89c-0.95-1.954-1.793-3.742-2.521-5.362-0.633 0.04-1.122 0.063-1.467 0.063-0.272 0-0.928-0.023-1.976-0.063zm-15.694 2.408c-0.587 0.226-1.312 0.407-2.17 0.545l-0.054 0.061-0.02 0.172 0.053 0.056 0.578 0.008c0.186 0 0.312 0.021 0.383 0.061 0.07 0.042 0.107 0.111 0.107 0.213 0 0.119-0.017 0.265-0.055 0.441l-0.357 2.086c-0.505-0.115-0.89-0.172-1.158-0.172-0.247 0-0.49 0.048-0.727 0.147-0.235 0.096-0.517 0.251-0.843 0.472-0.325 0.219-0.586 0.443-0.782 0.668-0.194 0.226-0.39 0.56-0.588 1.002-0.197 0.444-0.361 0.968-0.49 1.572-0.127 0.607-0.191 1.105-0.191 1.495 0 0.284 0.031 0.556 0.092 0.812 0.058 0.256 0.136 0.435 0.232 0.531 0.097 0.097 0.213 0.145 0.352 0.145 0.385 0 0.92-0.297 1.607-0.889 0.686-0.592 1.276-1.306 1.771-2.14l0.036 0.005c-0.179 0.748-0.304 1.294-0.37 1.637-0.065 0.341-0.099 0.596-0.099 0.766 0 0.206 0.032 0.361 0.094 0.465 0.061 0.103 0.14 0.154 0.236 0.154 0.174 0 0.469-0.132 0.883-0.395 0.413-0.266 0.832-0.581 1.258-0.953l0.021-0.09-0.068-0.16-0.075-0.017c-0.557 0.439-0.921 0.66-1.095 0.66-0.13 0-0.192-0.111-0.192-0.332 0-0.092 0.005-0.181 0.012-0.268 0.033-0.275 0.111-0.743 0.24-1.406l0.815-3.881c0.275-1.318 0.518-2.43 0.734-3.34l-0.17-0.131zm38.208 0.588c-0.18 0.512-0.53 1.336-1.03 2.467l-1.88 4.268c-0.34 0.762-0.67 1.473-1 2.131-0.1 0.224-0.2 0.364-0.29 0.421-0.1 0.057-0.3 0.09-0.62 0.1l-0.21 0.006v0.433c0.5-0.032 1.08-0.05 1.73-0.05 0.55 0 1.05 0.018 1.48 0.05v-0.433l-0.65-0.074c-0.24-0.029-0.38-0.066-0.44-0.11-0.06-0.046-0.08-0.123-0.08-0.228 0-0.164 0.15-0.612 0.46-1.342l0.46-1.104h3.96l0.76 1.907c0.13 0.346 0.2 0.561 0.2 0.642 0 0.078-0.03 0.142-0.1 0.192-0.05 0.032-0.19 0.059-0.43 0.076l-0.68 0.041v0.433c0.83-0.032 1.5-0.05 2-0.05 0.54 0 1.11 0.018 1.7 0.05v-0.433c-0.35-0.019-0.57-0.051-0.67-0.1-0.11-0.047-0.19-0.125-0.27-0.238-0.08-0.112-0.23-0.443-0.47-0.99l-3.46-8.065h-0.47zm75.06 0c-0.18 0.512-0.53 1.336-1.03 2.467l-1.88 4.268c-0.34 0.762-0.67 1.473-1 2.131-0.1 0.224-0.2 0.366-0.3 0.423-0.09 0.057-0.3 0.088-0.62 0.098l-0.2 0.008v0.431c0.5-0.032 1.07-0.048 1.73-0.048 0.55 0 1.04 0.016 1.48 0.048v-0.431l-0.66-0.076c-0.23-0.029-0.37-0.066-0.43-0.11-0.06-0.046-0.09-0.121-0.09-0.226 0-0.164 0.16-0.612 0.46-1.342l0.47-1.106h3.96l0.75 1.907c0.14 0.346 0.21 0.561 0.21 0.642 0 0.078-0.04 0.144-0.11 0.194-0.04 0.032-0.19 0.057-0.43 0.074l-0.67 0.043v0.431c0.83-0.032 1.5-0.048 2-0.048 0.54 0 1.11 0.016 1.7 0.048v-0.431c-0.35-0.019-0.58-0.053-0.68-0.102-0.1-0.047-0.19-0.125-0.26-0.238-0.08-0.112-0.24-0.442-0.47-0.988l-3.47-8.067h-0.46zm19.51 0c-0.18 0.512-0.53 1.336-1.03 2.467l-1.88 4.268c-0.34 0.762-0.67 1.473-0.99 2.131-0.11 0.224-0.21 0.366-0.3 0.423-0.1 0.057-0.3 0.088-0.62 0.098l-0.21 0.008v0.431c0.5-0.032 1.08-0.048 1.73-0.048 0.55 0 1.05 0.016 1.48 0.048v-0.431l-0.65-0.076c-0.24-0.029-0.38-0.066-0.44-0.11-0.05-0.046-0.08-0.121-0.08-0.226 0-0.164 0.15-0.612 0.46-1.342l0.46-1.104h3.96l0.76 1.905c0.13 0.346 0.2 0.561 0.2 0.642 0 0.078-0.03 0.144-0.1 0.194-0.05 0.032-0.19 0.057-0.43 0.074l-0.68 0.043v0.431c0.83-0.032 1.5-0.048 2-0.048 0.54 0 1.11 0.016 1.7 0.048v-0.431c-0.35-0.019-0.57-0.053-0.67-0.102-0.1-0.047-0.19-0.125-0.27-0.238-0.08-0.112-0.23-0.442-0.47-0.988l-3.46-8.067h-0.47zm-83.88 0.055c-0.29 0-0.76 0.012-1.42 0.033-0.57 0.023-1 0.035-1.3 0.035-0.45 0-1.1-0.019-1.95-0.054v0.437h0.37c0.47 0 0.74 0.086 0.83 0.256 0.08 0.169 0.12 0.962 0.12 2.377v3.295c0 1.632-0.03 2.53-0.11 2.701-0.07 0.17-0.3 0.258-0.69 0.258h-0.52v0.433c1.03-0.032 1.74-0.05 2.13-0.05 0.5 0 1.13 0.018 1.89 0.05v-0.433h-0.54c-0.42 0-0.67-0.088-0.75-0.264-0.08-0.175-0.12-1.07-0.12-2.683v-3.307c0-0.826 0.03-1.603 0.08-2.33 0.49-0.178 0.97-0.268 1.45-0.268 0.69 0 1.22 0.167 1.58 0.496 0.37 0.333 0.55 0.794 0.55 1.383 0 0.657-0.22 1.18-0.65 1.572-0.43 0.394-1.03 0.59-1.79 0.59-0.13 0-0.32-0.01-0.59-0.031l-0.07 0.231c0.52 0.575 1 1.164 1.46 1.767l2.42 3.275c0.29-0.032 0.57-0.048 0.82-0.048 0.29 0 0.62 0.016 1 0.048v-0.431h-0.18c-0.08 0-0.17-0.021-0.24-0.061-0.08-0.042-0.23-0.208-0.47-0.5l-1.31-1.707c-0.67-0.853-1.22-1.603-1.67-2.248 0.88-0.183 1.56-0.518 2.02-1.011 0.46-0.494 0.7-1.062 0.7-1.708 0-0.436-0.11-0.813-0.32-1.128-0.21-0.316-0.52-0.559-0.93-0.725-0.41-0.169-1.01-0.25-1.8-0.25zm12.98 0.014l-1.5 0.027-1.84 0.014c-0.26 0-0.77-0.013-1.52-0.034v0.43l0.54 0.082c0.33 0.047 0.52 0.096 0.57 0.152 0.05 0.054 0.09 0.254 0.13 0.598 0.05 0.589 0.08 1.287 0.08 2.102v1.986c0 1.768-0.04 3.007-0.11 3.715l-0.64 0.377v0.326c0.57-0.054 1.04-0.082 1.41-0.082 0.22 0 0.75 0.018 1.57 0.051l0.84 0.017c1.68 0 3.04-0.503 4.08-1.513 1.04-1.011 1.56-2.287 1.56-3.83 0-0.763-0.14-1.433-0.41-2.018-0.27-0.582-0.66-1.066-1.18-1.451-0.51-0.386-1.09-0.644-1.72-0.77-0.64-0.129-1.26-0.188-1.86-0.179zm14.61 0.007v0.43h0.74c0.31 0 0.5 0.08 0.56 0.236 0.07 0.16 0.1 0.923 0.1 2.293v3.77c0 1.265-0.03 1.988-0.1 2.17-0.06 0.183-0.28 0.354-0.64 0.514v0.363c0.92-0.049 1.6-0.076 2.04-0.076l3.26 0.054c0.72 0 1.28-0.034 1.69-0.103 0.06-0.748 0.15-1.555 0.27-2.418h-0.45l-0.41 1.611c-0.36 0.096-0.71 0.162-1.05 0.199-0.48 0.045-1.15 0.069-2.01 0.069-0.43 0-0.86-0.012-1.31-0.035l0.02-0.403-0.02-1.933v-4.366c0-1.017 0.03-1.596 0.1-1.736 0.06-0.137 0.21-0.209 0.45-0.209h0.85v-0.43c-0.81 0.03-1.45 0.047-1.93 0.047-0.35 0-1.08-0.017-2.16-0.047zm23.26 0.002v0.43h0.75c0.3 0 0.49 0.08 0.56 0.236 0.06 0.16 0.09 0.921 0.09 2.291v3.77c0 1.265-0.03 1.988-0.09 2.17-0.07 0.183-0.29 0.356-0.65 0.515v0.362c0.93-0.049 1.61-0.074 2.05-0.074l3.26 0.054c0.71 0 1.27-0.034 1.68-0.103 0.07-0.749 0.16-1.555 0.27-2.418h-0.44l-0.42 1.611c-0.35 0.096-0.71 0.162-1.04 0.199-0.49 0.045-1.16 0.067-2.02 0.067-0.42 0-0.86-0.012-1.31-0.035l0.03-0.403-0.03-1.933v-4.364c0-1.017 0.03-1.598 0.1-1.738 0.06-0.137 0.22-0.207 0.46-0.207h0.85v-0.43c-0.81 0.03-1.46 0.045-1.93 0.045-0.36 0-1.08-0.015-2.17-0.045zm-31.82 0.002v0.426l0.53 0.057c0.33 0.03 0.52 0.067 0.59 0.107 0.06 0.042 0.11 0.101 0.15 0.176 0.03 0.075 0.06 0.308 0.09 0.701s0.05 0.898 0.05 1.516v3.76c0 0.982-0.02 1.618-0.06 1.906-0.03 0.287-0.1 0.47-0.2 0.547-0.11 0.077-0.35 0.117-0.75 0.117h-0.21v0.433c0.88-0.032 1.59-0.05 2.13-0.05 0.55 0 1.43 0.018 2.61 0.05l1.08 0.018c0.51 0 1.02-0.023 1.55-0.074l-0.02-0.309c0-0.332 0.07-1.001 0.19-2h-0.46c-0.12 0.604-0.24 1.104-0.35 1.506-0.25 0.091-0.49 0.152-0.71 0.178-0.35 0.047-0.78 0.07-1.29 0.07-0.76 0-1.48-0.025-2.14-0.074-0.02-0.281-0.03-0.721-0.03-1.324v-0.965-1.68c0.41-0.036 0.81-0.055 1.19-0.055 1.04 0 1.64 0.05 1.81 0.149 0.17 0.098 0.26 0.368 0.26 0.805v0.396h0.46c-0.03-0.589-0.04-1.1-0.04-1.533 0-0.411 0.01-0.961 0.04-1.651h-0.46v0.444c0 0.393-0.07 0.626-0.22 0.701-0.14 0.078-0.76 0.115-1.84 0.115-0.35 0-0.75-0.014-1.2-0.043v-1.39l0.01-1.055c0.02-0.428 0.02-0.859 0.02-1.289 0.68-0.053 1.34-0.082 1.96-0.082 0.79 0 1.45 0.102 1.99 0.303 0.05 0.334 0.07 0.751 0.07 1.253h0.47c0.02-0.862 0.12-1.565 0.29-2.103-0.44-0.042-0.87-0.059-1.29-0.057l-1.25 0.008-2.63 0.035c-0.21 0-0.52-0.007-0.92-0.021l-0.73-0.022h-0.74zm51.19 0c0.05 0.616 0.08 1.087 0.08 1.416l-0.01 0.817h0.43l0.1-0.918c0.03-0.356 0.1-0.562 0.22-0.613 0.11-0.054 0.74-0.081 1.86-0.081h0.7c0.03 0.646 0.05 1.352 0.05 2.123v3.913c0 0.846-0.02 1.534-0.07 2.07-0.02 0.233-0.08 0.387-0.17 0.469-0.09 0.079-0.29 0.121-0.59 0.121h-0.57v0.431c0.79-0.032 1.47-0.048 2.04-0.048 0.56 0 1.24 0.016 2.05 0.048v-0.431h-0.51c-0.45 0-0.71-0.076-0.78-0.223-0.07-0.15-0.11-0.95-0.11-2.402v-3.906c0-0.758 0.02-1.481 0.07-2.167l0.54 0.002c0.64 0 1.21 0.02 1.71 0.057 0.18 0.011 0.28 0.049 0.34 0.106 0.05 0.056 0.09 0.24 0.11 0.55l0.07 0.899h0.43c0.01-0.718 0.06-1.461 0.15-2.233l-3.79 0.045c-0.44 0-1.89-0.015-4.35-0.045zm-57.71 0.586c1.37 0 2.41 0.348 3.13 1.047 0.71 0.7 1.06 1.715 1.06 3.047 0 1.532-0.43 2.697-1.28 3.496-0.71 0.658-1.7 0.984-2.98 0.984-0.47 0-1.02-0.043-1.63-0.134-0.06-0.723-0.08-1.497-0.08-2.323v-4.48c0-0.559 0.02-1.054 0.08-1.494 0.65-0.096 1.22-0.143 1.7-0.143zm-23.29 1.184l1.73 4.125h-3.46l1.73-4.125zm75.06 0l1.73 4.125h-3.46l1.73-4.125zm19.51 0l1.73 4.125h-3.46l1.73-4.125zm-128.25 1.033c-0.322 0-0.653 0.086-0.996 0.252-0.341 0.167-0.704 0.387-1.084 0.66-0.381 0.273-0.667 0.563-0.858 0.873s-0.38 0.791-0.57 1.442c-0.19 0.648-0.287 1.258-0.287 1.832 0 0.408 0.066 0.745 0.197 1.006 0.132 0.261 0.328 0.462 0.594 0.601 0.268 0.141 0.529 0.213 0.785 0.213 0.785 0 1.745-0.477 2.873-1.434l0.014-0.089-0.076-0.172-0.079-0.028c-0.867 0.68-1.608 1.02-2.228 1.02-0.329 0-0.589-0.122-0.772-0.363-0.183-0.245-0.275-0.575-0.275-0.987 0-0.294 0.045-0.662 0.137-1.101l0.324-0.076c0.78-0.179 1.45-0.408 2.012-0.688 0.559-0.28 0.944-0.577 1.156-0.893 0.211-0.312 0.316-0.655 0.316-1.029 0-0.324-0.109-0.58-0.33-0.764-0.221-0.183-0.506-0.275-0.853-0.275zm-0.488 0.557c0.173 0 0.32 0.062 0.445 0.179 0.124 0.12 0.185 0.302 0.185 0.551 0 0.322-0.115 0.637-0.347 0.947-0.231 0.308-0.564 0.557-0.998 0.743-0.433 0.185-0.892 0.323-1.373 0.41 0.279-1.079 0.519-1.765 0.718-2.059 0.2-0.294 0.431-0.495 0.69-0.603 0.258-0.111 0.487-0.168 0.68-0.168zm-6.948 0.07c0.458 0 0.904 0.111 1.336 0.336-0.183 0.853-0.32 1.417-0.406 1.687-0.193 0.593-0.484 1.15-0.869 1.674-0.386 0.524-0.823 0.94-1.309 1.252-0.32 0.202-0.568 0.303-0.742 0.303-0.106 0-0.183-0.048-0.234-0.145-0.05-0.096-0.077-0.268-0.077-0.515 0-0.399 0.038-0.814 0.114-1.242 0.077-0.43 0.183-0.865 0.322-1.309 0.136-0.442 0.276-0.815 0.422-1.121 0.143-0.306 0.262-0.506 0.351-0.598 0.089-0.091 0.223-0.167 0.399-0.23 0.176-0.061 0.409-0.092 0.693-0.092zm-2.568 14.467c-0.259 0-0.477 0.088-0.656 0.269-0.178 0.182-0.268 0.399-0.268 0.653s0.09 0.473 0.272 0.652c0.181 0.182 0.397 0.272 0.652 0.272 0.254 0 0.471-0.09 0.65-0.272 0.177-0.179 0.268-0.398 0.268-0.652 0-0.259-0.091-0.475-0.268-0.655-0.179-0.179-0.396-0.267-0.65-0.267zm6.152 0c-0.258 0-0.477 0.088-0.656 0.269-0.178 0.182-0.27 0.399-0.27 0.653s0.092 0.473 0.274 0.652c0.181 0.182 0.397 0.272 0.652 0.272 0.254 0 0.471-0.09 0.651-0.272 0.177-0.179 0.267-0.398 0.267-0.652 0-0.259-0.09-0.475-0.267-0.655-0.18-0.179-0.397-0.267-0.651-0.267zm6.151 0c-0.259 0-0.477 0.088-0.657 0.269-0.177 0.182-0.267 0.399-0.267 0.653s0.09 0.473 0.271 0.652c0.181 0.182 0.398 0.272 0.653 0.272 0.254 0 0.471-0.09 0.65-0.272 0.178-0.179 0.27-0.398 0.27-0.652 0-0.259-0.092-0.475-0.27-0.655-0.179-0.179-0.396-0.267-0.65-0.267zm6.152 0c-0.258 0-0.477 0.088-0.656 0.269-0.178 0.182-0.27 0.399-0.27 0.653s0.092 0.473 0.274 0.652c0.181 0.182 0.397 0.272 0.652 0.272 0.254 0 0.47-0.09 0.65-0.272 0.178-0.179 0.268-0.398 0.268-0.652 0-0.259-0.09-0.475-0.268-0.655-0.18-0.179-0.396-0.267-0.65-0.267zm6.15 0c-0.258 0-0.476 0.088-0.656 0.269-0.178 0.182-0.267 0.399-0.267 0.653s0.089 0.473 0.271 0.652c0.181 0.182 0.398 0.272 0.652 0.272 0.255 0 0.472-0.09 0.651-0.272 0.178-0.179 0.269-0.398 0.269-0.652 0-0.259-0.091-0.475-0.269-0.655-0.179-0.179-0.396-0.267-0.651-0.267zm6.153 0c-0.258 0-0.477 0.088-0.657 0.269-0.177 0.182-0.269 0.399-0.269 0.653s0.092 0.473 0.273 0.652c0.181 0.182 0.399 0.272 0.653 0.272s0.471-0.09 0.65-0.272c0.177-0.179 0.268-0.398 0.268-0.652 0-0.259-0.091-0.475-0.268-0.655-0.179-0.179-0.396-0.267-0.65-0.267zm6.152 0c-0.259 0-0.477 0.088-0.656 0.269-0.179 0.182-0.27 0.399-0.27 0.653s0.09 0.473 0.272 0.652c0.181 0.182 0.399 0.272 0.654 0.272 0.254 0 0.471-0.09 0.65-0.272 0.178-0.179 0.268-0.398 0.268-0.652 0-0.259-0.09-0.475-0.268-0.655-0.179-0.179-0.396-0.267-0.65-0.267zm6.148 0c-0.26 0-0.47 0.088-0.65 0.269-0.18 0.182-0.27 0.399-0.27 0.653s0.09 0.473 0.27 0.652c0.18 0.182 0.4 0.272 0.65 0.272 0.26 0 0.47-0.09 0.65-0.272 0.18-0.179 0.27-0.398 0.27-0.652 0-0.259-0.09-0.475-0.27-0.655-0.18-0.179-0.39-0.267-0.65-0.267zm6.15 0c-0.25 0-0.47 0.088-0.65 0.269-0.18 0.182-0.27 0.399-0.27 0.653s0.09 0.473 0.27 0.652c0.18 0.182 0.4 0.272 0.65 0.272 0.26 0 0.48-0.09 0.66-0.272 0.17-0.179 0.26-0.398 0.26-0.652 0-0.259-0.09-0.475-0.26-0.655-0.18-0.179-0.4-0.267-0.66-0.267zm6.16 0c-0.26 0-0.48 0.088-0.66 0.269-0.18 0.182-0.27 0.399-0.27 0.653s0.09 0.473 0.27 0.652c0.18 0.182 0.4 0.272 0.66 0.272 0.25 0 0.47-0.09 0.65-0.272 0.17-0.179 0.27-0.398 0.27-0.652 0-0.259-0.1-0.475-0.27-0.655-0.18-0.179-0.4-0.267-0.65-0.267zm6.15 0c-0.26 0-0.48 0.088-0.66 0.269-0.18 0.182-0.27 0.399-0.27 0.653s0.09 0.473 0.28 0.652c0.18 0.182 0.39 0.272 0.65 0.272 0.25 0 0.47-0.09 0.65-0.272 0.18-0.179 0.27-0.398 0.27-0.652 0-0.259-0.09-0.475-0.27-0.655-0.18-0.179-0.4-0.267-0.65-0.267zm6.15 0c-0.26 0-0.48 0.088-0.66 0.269-0.18 0.182-0.27 0.399-0.27 0.653s0.09 0.473 0.28 0.652c0.18 0.182 0.39 0.272 0.65 0.272 0.25 0 0.47-0.09 0.65-0.272 0.18-0.179 0.27-0.398 0.27-0.652 0-0.259-0.09-0.475-0.27-0.655-0.18-0.179-0.4-0.267-0.65-0.267zm6.15 0c-0.26 0-0.48 0.088-0.66 0.269-0.17 0.182-0.26 0.399-0.26 0.653s0.09 0.473 0.27 0.652c0.18 0.182 0.4 0.272 0.65 0.272s0.47-0.09 0.65-0.272c0.18-0.179 0.27-0.398 0.27-0.652 0-0.259-0.09-0.475-0.27-0.655-0.18-0.179-0.4-0.267-0.65-0.267zm6.15 0c-0.26 0-0.48 0.088-0.66 0.269-0.17 0.182-0.26 0.399-0.26 0.653s0.09 0.473 0.27 0.652c0.18 0.182 0.4 0.272 0.65 0.272 0.26 0 0.47-0.09 0.65-0.272 0.18-0.179 0.27-0.398 0.27-0.652 0-0.259-0.09-0.475-0.27-0.655-0.18-0.179-0.39-0.267-0.65-0.267zm6.15 0c-0.26 0-0.47 0.088-0.65 0.269-0.18 0.182-0.27 0.399-0.27 0.653s0.09 0.473 0.27 0.652c0.18 0.182 0.4 0.272 0.65 0.272 0.26 0 0.47-0.09 0.65-0.272 0.18-0.179 0.27-0.398 0.27-0.652 0-0.259-0.09-0.475-0.27-0.655-0.18-0.179-0.39-0.267-0.65-0.267zm6.16 0c-0.26 0-0.48 0.088-0.66 0.269-0.18 0.182-0.27 0.399-0.27 0.653s0.09 0.473 0.27 0.652c0.18 0.182 0.4 0.272 0.66 0.272 0.25 0 0.47-0.09 0.65-0.272 0.17-0.179 0.26-0.398 0.26-0.652 0-0.259-0.09-0.475-0.26-0.655-0.18-0.179-0.4-0.267-0.65-0.267zm6.15 0c-0.26 0-0.48 0.088-0.66 0.269-0.18 0.182-0.27 0.399-0.27 0.653s0.09 0.473 0.27 0.652c0.18 0.182 0.4 0.272 0.66 0.272 0.25 0 0.47-0.09 0.65-0.272 0.17-0.179 0.27-0.398 0.27-0.652 0-0.259-0.1-0.475-0.27-0.655-0.18-0.179-0.4-0.267-0.65-0.267zm6.15 0c-0.26 0-0.48 0.088-0.66 0.269-0.18 0.182-0.27 0.399-0.27 0.653s0.09 0.473 0.28 0.652c0.18 0.182 0.39 0.272 0.65 0.272 0.25 0 0.47-0.09 0.65-0.272 0.18-0.179 0.27-0.398 0.27-0.652 0-0.259-0.09-0.475-0.27-0.655-0.18-0.179-0.4-0.267-0.65-0.267zm6.15 0c-0.26 0-0.48 0.088-0.66 0.269-0.17 0.182-0.27 0.399-0.27 0.653s0.09 0.473 0.28 0.652c0.18 0.182 0.39 0.272 0.65 0.272 0.25 0 0.47-0.09 0.65-0.272 0.18-0.179 0.27-0.398 0.27-0.652 0-0.259-0.09-0.475-0.27-0.655-0.18-0.179-0.4-0.267-0.65-0.267zm6.15 0c-0.26 0-0.48 0.088-0.66 0.269-0.17 0.182-0.26 0.399-0.26 0.653s0.09 0.473 0.27 0.652c0.18 0.182 0.4 0.272 0.65 0.272s0.47-0.09 0.65-0.272c0.18-0.179 0.27-0.398 0.27-0.652 0-0.259-0.09-0.475-0.27-0.655-0.18-0.179-0.4-0.267-0.65-0.267zm6.15 0c-0.26 0-0.48 0.088-0.66 0.269-0.17 0.182-0.26 0.399-0.26 0.653s0.09 0.473 0.27 0.652c0.18 0.182 0.4 0.272 0.65 0.272 0.26 0 0.47-0.09 0.65-0.272 0.18-0.179 0.27-0.398 0.27-0.652 0-0.259-0.09-0.475-0.27-0.655-0.18-0.179-0.39-0.267-0.65-0.267zm6.15 0c-0.25 0-0.47 0.088-0.65 0.269-0.18 0.182-0.27 0.399-0.27 0.653s0.09 0.473 0.27 0.652c0.18 0.182 0.4 0.272 0.65 0.272 0.26 0 0.48-0.09 0.65-0.272 0.18-0.179 0.27-0.398 0.27-0.652 0-0.259-0.09-0.475-0.27-0.655-0.17-0.179-0.39-0.267-0.65-0.267zm6.16 0c-0.26 0-0.48 0.088-0.66 0.269-0.18 0.182-0.27 0.399-0.27 0.653s0.09 0.473 0.28 0.652c0.18 0.182 0.39 0.272 0.65 0.272 0.25 0 0.47-0.09 0.65-0.272 0.18-0.179 0.27-0.398 0.27-0.652 0-0.259-0.09-0.475-0.27-0.655-0.18-0.179-0.4-0.267-0.65-0.267zm6.15 0c-0.26 0-0.48 0.088-0.66 0.269-0.18 0.182-0.27 0.399-0.27 0.653s0.09 0.473 0.28 0.652c0.18 0.182 0.39 0.272 0.65 0.272 0.25 0 0.47-0.09 0.65-0.272 0.18-0.179 0.27-0.398 0.27-0.652 0-0.259-0.09-0.475-0.27-0.655-0.18-0.179-0.4-0.267-0.65-0.267z"/></svg>
