<?xml version="1.0" encoding="UTF-8" standalone="no"?>
<!-- Created with Inkscape (http://www.inkscape.org/) -->

<svg
   xmlns:dc="http://purl.org/dc/elements/1.1/"
   xmlns:cc="http://creativecommons.org/ns#"
   xmlns:rdf="http://www.w3.org/1999/02/22-rdf-syntax-ns#"
   xmlns:svg="http://www.w3.org/2000/svg"
   xmlns="http://www.w3.org/2000/svg"
   xmlns:sodipodi="http://sodipodi.sourceforge.net/DTD/sodipodi-0.dtd"
   xmlns:inkscape="http://www.inkscape.org/namespaces/inkscape"
   width="1360"
   height="400"
   viewBox="0 0 359.83333 105.83334"
   version="1.1"
   id="svg1792"
   inkscape:version="0.92.3 (unknown)"
   sodipodi:docname="trama.svg">
  <defs
     id="defs1786" />
  <sodipodi:namedview
     id="base"
     pagecolor="#ffffff"
     bordercolor="#666666"
     borderopacity="1.0"
     inkscape:pageopacity="0.0"
     inkscape:pageshadow="2"
     inkscape:zoom="0.68333481"
     inkscape:cx="689.39245"
     inkscape:cy="242.12808"
     inkscape:document-units="mm"
     inkscape:current-layer="layer1"
     showgrid="false"
     units="px"
     inkscape:window-width="1920"
     inkscape:window-height="1031"
     inkscape:window-x="0"
     inkscape:window-y="25"
     inkscape:window-maximized="1" />
  <metadata
     id="metadata1789">
    <rdf:RDF>
      <cc:Work
         rdf:about="">
        <dc:format>image/svg+xml</dc:format>
        <dc:type
           rdf:resource="http://purl.org/dc/dcmitype/StillImage" />
        <dc:title></dc:title>
      </cc:Work>
    </rdf:RDF>
  </metadata>
  <g
     inkscape:label="Capa 1"
     inkscape:groupmode="layer"
     id="layer1"
     transform="translate(0,-191.16664)">
    <g
       id="g1365"
       transform="matrix(0.10987464,0,0,0.10987464,168.76071,60.671897)"
       style="fill:#5fbcd3">
      <g
         id="g1332"
         style="fill:#5fbcd3">
        <path
           style="opacity:1;fill:#5fbcd3;fill-opacity:0.23255813;stroke:none;stroke-width:2.7111671;stroke-linecap:round;stroke-linejoin:round;stroke-miterlimit:4;stroke-dasharray:none;stroke-dashoffset:0;stroke-opacity:1"
           d="m 902.10156,1467.75 -235.55078,235.5508 235.55078,235.5488 235.55074,-235.5488 z m -0.63867,50.0391 175.83011,176.5136 H 725.63086 Z"
           id="rect7187"
           inkscape:connector-curvature="0" />
        <path
           style="opacity:1;fill:#5fbcd3;fill-opacity:0.23255813;stroke:none;stroke-width:2.7111671;stroke-linecap:round;stroke-linejoin:round;stroke-miterlimit:4;stroke-dasharray:none;stroke-dashoffset:0;stroke-opacity:1"
           d="m 1509.093,1378.2996 -235.5508,235.5508 235.5508,235.5508 235.5507,-235.5508 z m 0,116.6817 a 118.8691,118.8691 0 0 1 118.8691,118.8691 118.8691,118.8691 0 0 1 -118.8691,118.8691 118.8691,118.8691 0 0 1 -118.8692,-118.8691 118.8691,118.8691 0 0 1 118.8692,-118.8691 z"
           id="rect7189"
           inkscape:connector-curvature="0" />
        <path
           id="path1287"
           d="m 1166.5071,1211.5876 -235.55075,235.5508 235.55075,235.5508 235.5507,-235.5508 z m 0,116.6817 a 118.8691,118.8691 0 0 1 118.8691,118.8691 118.8691,118.8691 0 0 1 -118.8691,118.8691 118.8691,118.8691 0 0 1 -118.8692,-118.8691 118.8691,118.8691 0 0 1 118.8692,-118.8691 z"
           style="opacity:1;fill:#5fbcd3;fill-opacity:0.23255813;stroke:none;stroke-width:2.7111671;stroke-linecap:round;stroke-linejoin:round;stroke-miterlimit:4;stroke-dasharray:none;stroke-dashoffset:0;stroke-opacity:1"
           inkscape:connector-curvature="0" />
        <path
           id="path1293"
           d="m 634.28811,1684.7702 -235.55078,-235.5508 235.55078,-235.5488 235.55074,235.5488 z m -0.63867,-50.0391 175.83011,-176.5136 H 457.81741 Z"
           style="opacity:1;fill:#5fbcd3;fill-opacity:0.23255813;stroke:none;stroke-width:2.7111671;stroke-linecap:round;stroke-linejoin:round;stroke-miterlimit:4;stroke-dasharray:none;stroke-dashoffset:0;stroke-opacity:1"
           inkscape:connector-curvature="0" />
        <path
           inkscape:connector-curvature="0"
           style="opacity:1;fill:#5fbcd3;fill-opacity:0.23255813;stroke:none;stroke-width:2.7111671;stroke-linecap:round;stroke-linejoin:round;stroke-miterlimit:4;stroke-dasharray:none;stroke-dashoffset:0;stroke-opacity:1"
           d="M 233.16002,1324.3268 -2.3907304,1559.8776 233.16002,1795.4284 468.71072,1559.8776 Z m 0,116.6817 a 118.8691,118.8691 0 0 1 118.8691,118.8691 118.8691,118.8691 0 0 1 -118.8691,118.8691 118.8691,118.8691 0 0 1 -118.8692,-118.8691 118.8691,118.8691 0 0 1 118.8692,-118.8691 z"
           id="path1310" />
      </g>
      <path
         style="opacity:1;fill:#5fbcd3;fill-opacity:0.23255813;stroke:none;stroke-width:2.7111671;stroke-linecap:round;stroke-linejoin:round;stroke-miterlimit:4;stroke-dasharray:none;stroke-dashoffset:0;stroke-opacity:1"
         d="m -625.80854,1666.8933 -235.55078,235.5508 235.55078,235.5488 235.55074,-235.5488 z m -0.63867,50.0391 175.83011,176.5136 h -351.66214 z"
         id="path1334"
         inkscape:connector-curvature="0" />
      <path
         style="opacity:1;fill:#5fbcd3;fill-opacity:0.23255813;stroke:none;stroke-width:2.7111671;stroke-linecap:round;stroke-linejoin:round;stroke-miterlimit:4;stroke-dasharray:none;stroke-dashoffset:0;stroke-opacity:1"
         d="m -18.8171,1577.4429 -235.5508,235.5508 235.5508,235.5508 235.5507,-235.5508 z m 0,116.6817 a 118.8691,118.8691 0 0 1 118.8691,118.8691 118.8691,118.8691 0 0 1 -118.8691,118.8691 118.8691,118.8691 0 0 1 -118.8692,-118.8691 118.8691,118.8691 0 0 1 118.8692,-118.8691 z"
         id="path1336"
         inkscape:connector-curvature="0" />
      <path
         id="path1338"
         d="m -361.403,1410.7309 -235.55075,235.5508 235.55075,235.5508 235.5507,-235.5508 z m 0,116.6817 a 118.8691,118.8691 0 0 1 118.8691,118.8691 118.8691,118.8691 0 0 1 -118.8691,118.8691 118.8691,118.8691 0 0 1 -118.8692,-118.8691 118.8691,118.8691 0 0 1 118.8692,-118.8691 z"
         style="opacity:1;fill:#5fbcd3;fill-opacity:0.23255813;stroke:none;stroke-width:2.7111671;stroke-linecap:round;stroke-linejoin:round;stroke-miterlimit:4;stroke-dasharray:none;stroke-dashoffset:0;stroke-opacity:1"
         inkscape:connector-curvature="0" />
      <path
         id="path1340"
         d="m -893.62199,1883.9135 -235.55081,-235.5508 235.55081,-235.5488 235.55074,235.5488 z m -0.63867,-50.0391 175.83011,-176.5136 h -351.66215 z"
         style="opacity:1;fill:#5fbcd3;fill-opacity:0.23255813;stroke:none;stroke-width:2.7111671;stroke-linecap:round;stroke-linejoin:round;stroke-miterlimit:4;stroke-dasharray:none;stroke-dashoffset:0;stroke-opacity:1"
         inkscape:connector-curvature="0" />
      <path
         inkscape:connector-curvature="0"
         style="opacity:1;fill:#5fbcd3;fill-opacity:0.23255813;stroke:none;stroke-width:2.7111671;stroke-linecap:round;stroke-linejoin:round;stroke-miterlimit:4;stroke-dasharray:none;stroke-dashoffset:0;stroke-opacity:1"
         d="m -1294.7501,1523.4701 -235.5507,235.5508 235.5507,235.5508 235.5507,-235.5508 z m 0,116.6817 a 118.8691,118.8691 0 0 1 118.8691,118.8691 118.8691,118.8691 0 0 1 -118.8691,118.8691 118.8691,118.8691 0 0 1 -118.8692,-118.8691 118.8691,118.8691 0 0 1 118.8692,-118.8691 z"
         id="path1342" />
      <path
         inkscape:connector-curvature="0"
         style="opacity:1;fill:#5fbcd3;fill-opacity:0.23255813;stroke:none;stroke-width:2.7111671;stroke-linecap:round;stroke-linejoin:round;stroke-miterlimit:4;stroke-dasharray:none;stroke-dashoffset:0;stroke-opacity:1"
         d="m 496.94785,2059.0223 -235.55081,-235.5508 235.55081,-235.5488 235.55074,235.5488 z m -0.63867,-50.0391 175.83011,-176.5136 H 320.47714 Z"
         id="path1351" />
    </g>
  </g>
</svg>
